<svg width="39" height="39" viewBox="0 0 39 39" fill="none" xmlns="http://www.w3.org/2000/svg">
<path fill-rule="evenodd" clip-rule="evenodd" d="M20.8701 1.87006C20.8701 1.31777 20.4224 0.870056 19.8701 0.870056C19.3178 0.870056 18.8701 1.31777 18.8701 1.87006V18.8701H1.87012C1.31783 18.8701 0.870117 19.3178 0.870117 19.8701C0.870117 20.4223 1.31783 20.8701 1.87012 20.8701H18.8701L18.8701 37.8701C18.8701 38.4223 19.3178 38.8701 19.8701 38.8701C20.4224 38.8701 20.8701 38.4223 20.8701 37.8701L20.8701 20.8701L37.8701 20.8701C38.4224 20.8701 38.8701 20.4223 38.8701 19.8701C38.8701 19.3178 38.4224 18.8701 37.8701 18.8701L20.8701 18.8701V1.87006Z" fill="white"/>
</svg>
