<svg width="72" height="72" viewBox="0 0 72 72" fill="none" xmlns="http://www.w3.org/2000/svg">
<path d="M12.6874 29.4708L12.6875 29.4708C12.8836 29.1306 13.2218 28.8959 13.6089 28.831C13.9957 28.7661 14.3918 28.8766 14.6888 29.1338L30.6046 42.8866C32.108 42.3666 33.7745 42.6296 35.0448 43.5927C36.3078 44.5499 37.0109 46.0703 36.9268 47.6475L59.6307 55.1019L59.6352 55.0985L59.7095 55.1228C60.0861 55.2462 60.3876 55.5329 60.5296 55.9032L60.5298 55.9034C60.6711 56.2742 60.6384 56.6882 60.4404 57.032L60.4403 57.0321L55.1907 66.1256L55.1906 66.1257L54.6074 67.1343L12.6874 29.4708ZM12.6874 29.4708L10.9537 32.4821C7.71586 31.3367 4.11175 32.6613 2.3909 35.6478L1.8077 36.657L1.80767 36.6571M12.6874 29.4708L1.80767 36.6571M1.80767 36.6571C0.854618 38.3077 0.60037 40.2714 1.10132 42.1111L1.10133 42.1112M1.80767 36.6571L1.10133 42.1112M1.10133 42.1112C1.60286 43.9503 2.81771 45.5137 4.47713 46.4528L4.47707 46.4529M1.10133 42.1112L4.47707 46.4529M4.47707 46.4529L4.48259 46.4557M4.47707 46.4529L4.48259 46.4557M4.48259 46.4557L22.1901 55.5327M4.48259 46.4557L22.1901 55.5327M26.6052 71.1507H26.6035C26.5467 71.15 26.49 71.1462 26.4327 71.1385C26.4326 71.1385 26.4326 71.1385 26.4325 71.1385L26.4525 70.9898L26.6052 71.1507ZM26.6052 71.1507C27.0756 71.1507 27.5108 70.9 27.7466 70.4925L27.7467 70.4924L32.6982 61.9154M26.6052 71.1507L32.6982 61.9154M32.6982 61.9154L44.8298 69.7522L44.8297 69.7523L44.8362 69.7561C46.4793 70.705 48.4325 70.9622 50.2652 70.4705C52.0979 69.9789 53.6601 68.7787 54.6073 67.1345L32.6982 61.9154ZM22.1901 55.5327C21.9034 56.8815 22.208 58.2891 23.0272 59.3993L19.4034 65.676C19.1372 66.1369 19.1745 66.7129 19.4991 67.1359C19.8231 67.5583 20.3702 67.7441 20.8845 67.6059C20.8846 67.6059 20.8846 67.6059 20.8846 67.6059L24.3943 66.665L22.1901 55.5327ZM31.5624 45.3204C32.0863 45.179 32.6428 45.2386 33.1237 45.4845L33.2181 45.539C34.2617 46.1418 34.6193 47.477 34.016 48.5212L34.0159 48.5212L28.7668 57.6196C28.7667 57.6197 28.7666 57.6198 28.7665 57.62C28.1599 58.6552 26.8314 59.0063 25.7921 58.4062C24.7528 57.8061 24.3925 56.4796 24.9855 55.4367C24.9856 55.4366 24.9856 55.4365 24.9857 55.4364L30.2348 46.3449L30.2352 46.3443C30.5235 45.8401 31.0011 45.4713 31.5622 45.3205L31.5624 45.3204ZM3.63652 41.4016L3.63632 41.4009C3.32377 40.2439 3.48639 39.0102 4.08777 37.9739L4.08791 37.9737L4.6712 36.9643L4.67125 36.9642C5.90654 34.8237 8.6318 34.0735 10.7879 35.2799L27.3956 46.0046L23.2826 53.1301L5.73619 44.1409C4.69881 43.5449 3.94267 42.5585 3.63652 41.4016ZM27.0541 66.4221L26.5974 64.712L26.5974 64.7119C26.409 64.0099 25.6871 63.5926 24.9844 63.7817L23.2728 64.2395L25.138 61.0102C26.7886 61.6549 28.6626 61.3352 30.0058 60.1779L30.4823 60.4846L27.0541 66.4221ZM55.6612 60.0432C55.0828 58.4798 53.9725 57.1658 52.5195 56.3348L52.5196 56.3346L52.5134 56.3314L48.2047 54.1278L57.3443 57.1281L55.6612 60.0432ZM14.1769 32.1668L24.0963 40.7411L13.2648 33.7459L14.1769 32.1668ZM46.2054 67.5074L31.5628 58.0484L35.7936 50.7207L51.2557 58.6497C53.4132 59.8977 54.1523 62.658 52.9059 64.817C52.9059 64.817 52.9059 64.817 52.9058 64.817L52.3226 65.8263C51.0862 67.9652 48.3609 68.7143 46.2054 67.5074Z" fill="#2468EB" stroke="#2468EB" stroke-width="0.3"/>
<path d="M71.0794 9.41104L71.0793 9.41113L69.6469 13.8375L71.0861 18.2576L71.0862 18.2578C71.2861 18.8749 71.0066 19.5452 70.4283 19.8379L70.4284 19.8378L70.3602 19.7042L70.4278 19.8381L66.2849 21.9541L64.1689 26.097C63.8765 26.6755 63.206 26.9552 62.5894 26.7553L71.0794 9.41104ZM71.0794 9.41104C71.2786 8.7942 70.9999 8.12383 70.4214 7.83115C70.4213 7.83108 70.4211 7.83101 70.421 7.83094L66.2826 5.7161L64.1666 1.57316C63.8741 0.994569 63.2036 0.7149 62.5864 0.914844L62.5863 0.914881L58.161 2.3524L53.7334 0.919388L53.7334 0.919372C53.1169 0.720091 52.4464 0.999051 52.1538 1.57772L50.0401 5.71609L45.8966 7.83236L45.8966 7.83231L45.893 7.83427C45.8811 7.84079 45.8705 7.84808 45.8618 7.85468H25.4965H25.4964C22.1941 7.85819 19.5177 10.5347 19.5136 13.8375V13.8376V29.8783C19.5136 30.6054 20.1031 31.1949 20.8302 31.1949C21.5579 31.1949 22.1468 30.6053 22.1468 29.8783V13.8376C22.1468 11.9872 23.6466 10.4879 25.4965 10.4879H45.592L46.6759 13.8376L45.2434 18.2641C45.2434 18.2641 45.2434 18.2641 45.2434 18.2641C45.0435 18.8807 45.3231 19.5511 45.9015 19.8437C45.9016 19.8437 45.9017 19.8437 45.9017 19.8438L50.0447 21.9598L52.1607 26.1027C52.4532 26.6813 53.1237 26.9609 53.7409 26.761L53.7411 26.7609L58.1612 25.3229L59.1777 25.652V51.1686C59.1777 51.8956 59.7672 52.4851 60.4943 52.4851C61.222 52.4851 61.8109 51.8956 61.8109 51.1686V26.5037M71.0794 9.41104L61.8109 26.5037M61.8109 26.5037L62.5892 26.7553L61.8109 26.5037ZM67.0104 13.4322L67.0105 13.432L68.2288 9.66763L64.7057 7.86715C64.7056 7.86713 64.7056 7.86712 64.7056 7.86711C64.4586 7.74104 64.258 7.53979 64.1327 7.29349L62.3322 3.76987L58.5669 4.98819C58.5669 4.9882 58.5669 4.9882 58.5669 4.98821C58.3038 5.07375 58.0201 5.07375 57.757 4.98821C57.757 4.9882 57.757 4.9882 57.757 4.98819L53.9917 3.76987L52.1912 7.29363C52.0652 7.54047 51.8646 7.74108 51.6171 7.86711L67.0104 13.4322ZM67.0104 13.4322C66.9256 13.6957 66.9256 13.979 67.0104 14.2425L67.0439 14.3465M67.0104 13.4322L67.0439 14.3465M67.0439 14.3465H67.0469M67.0439 14.3465H67.0469M67.0469 14.3465L68.2311 18.0071L64.7079 19.8076C64.7079 19.8076 64.7079 19.8076 64.7079 19.8076C64.4609 19.9337 64.2603 20.135 64.1349 20.3819L62.3323 23.9049L58.5672 22.6872C58.5671 22.6872 58.5671 22.6871 58.567 22.6871C58.3038 22.6009 58.0201 22.6009 57.7569 22.6871C57.7568 22.6871 57.7567 22.6872 57.7567 22.6872L53.9917 23.9049L52.1912 20.3818C52.0652 20.1343 51.8646 19.9336 51.6171 19.8076L67.0469 14.3465ZM48.0939 9.66764L51.6169 7.86722V19.8075L48.0939 18.0071L49.3113 14.2438C49.3114 14.2437 49.3114 14.2435 49.3115 14.2433C49.399 13.9799 49.399 13.6948 49.3115 13.4314C49.3114 13.4312 49.3114 13.4311 49.3113 13.4309L48.0939 9.66764Z" fill="#2468EB" stroke="#2468EB" stroke-width="0.3"/>
<path d="M58.1615 7.85464H58.1613C54.8573 7.85464 52.1784 10.5329 52.1784 13.8376C52.1784 17.1417 54.8573 19.8205 58.1613 19.8205C61.466 19.8205 64.1443 17.1417 64.1443 13.8376V13.8374C64.1408 10.5346 61.4643 7.85814 58.1615 7.85464ZM58.1613 17.1874C56.3114 17.1874 54.8116 15.6875 54.8116 13.8376C54.8116 11.9871 56.3114 10.4878 58.1613 10.4878C60.0118 10.4878 61.5111 11.9871 61.5111 13.8376C61.5111 15.6875 60.0118 17.1874 58.1613 17.1874Z" fill="#2468EB" stroke="#2468EB" stroke-width="0.3"/>
<path d="M30.1629 31.4865H49.995C50.7227 31.4865 51.3116 30.8969 51.3116 30.1699C51.3116 29.4428 50.7227 28.8533 49.995 28.8533H30.1629C29.4358 28.8533 28.8463 29.4428 28.8463 30.1699C28.8463 30.897 29.4358 31.4865 30.1629 31.4865Z" fill="#2468EB" stroke="#2468EB" stroke-width="0.3"/>
<path d="M49.9952 34.6863H33.6629C32.9358 34.6863 32.3463 35.2758 32.3463 36.0029C32.3463 36.73 32.9358 37.3195 33.6629 37.3195H49.9952C50.7229 37.3195 51.3118 36.7299 51.3118 36.0029C51.3118 35.2759 50.7229 34.6863 49.9952 34.6863Z" fill="#2468EB" stroke="#2468EB" stroke-width="0.3"/>
<path d="M49.9951 40.5193H41.8289C41.1019 40.5193 40.5124 41.1088 40.5124 41.8359C40.5124 42.563 41.1019 43.1525 41.8289 43.1525H49.9951C50.7228 43.1525 51.3117 42.5629 51.3117 41.8359C51.3117 41.1089 50.7228 40.5193 49.9951 40.5193Z" fill="#2468EB" stroke="#2468EB" stroke-width="0.3"/>
<path d="M32.4961 19.8206H39.4957C40.2234 19.8206 40.8122 19.231 40.8122 18.504C40.8122 17.777 40.2234 17.1874 39.4957 17.1874H32.4961C30.4805 17.1874 28.8463 18.821 28.8463 20.8372C28.8463 22.8528 30.4805 24.4869 32.4961 24.4869H39.4957C40.2234 24.4869 40.8122 23.8974 40.8122 23.1704C40.8122 22.4433 40.2234 21.8538 39.4957 21.8538H32.4961C31.9347 21.8538 31.4795 21.3986 31.4795 20.8372C31.4795 20.2758 31.9347 19.8206 32.4961 19.8206Z" fill="#2468EB" stroke="#2468EB" stroke-width="0.3"/>
</svg>
