<svg width="68" height="72" viewBox="0 0 68 72" fill="none" xmlns="http://www.w3.org/2000/svg">
<path d="M26.0162 23.2469L26.0162 23.2468L26.0123 23.2493C22.0703 25.7972 19.6547 30.1389 19.567 34.8313H19.567V34.8331C19.567 35.5329 20.134 36.1 20.8334 36.1C21.5329 36.1 22.0997 35.5335 22.1003 34.8342C22.18 31.0254 24.1344 27.5009 27.3231 25.4165C27.9103 25.0504 28.0948 24.2809 27.7385 23.6882L27.7384 23.6881C27.3813 23.0956 26.6142 22.8983 26.0162 23.2469Z" fill="#2468EB" stroke="#2468EB" stroke-width="0.2"/>
<mask id="path-2-outside-1" maskUnits="userSpaceOnUse" x="0" y="0" width="68" height="72" fill="black">
<rect fill="white" width="68" height="72"/>
<path d="M61.6668 30.1665C58.8961 30.1702 56.5089 32.1195 55.9513 34.8331H41.7155C41.4458 33.5556 40.7536 32.4063 39.7507 31.57L43.6926 24.3335H47.7845C48.3837 27.2676 51.1069 29.2714 54.0864 28.9702C57.0659 28.6695 59.3335 26.1611 59.3335 23.1666C59.3335 20.1721 57.0659 17.6637 54.0864 17.363C51.1069 17.0618 48.3837 19.0661 47.7845 22.0002H44.1668V14.3162L48.1498 10.3332H53.618C54.2167 13.2673 56.9404 15.2716 59.9199 14.9704C62.8994 14.6697 65.167 12.1613 65.167 9.16681C65.167 6.17181 62.8994 3.66388 59.9199 3.36267C56.9404 3.062 54.2167 5.06578 53.618 7.99989H48.1498C47.5314 8.0015 46.9386 8.24716 46.5001 8.68349L45.4998 9.68431C44.68 9.38097 43.8458 9.11874 42.9999 8.89925V3.3333C42.9983 2.04515 41.9547 1.0016 40.6666 1H31.3334C30.0453 1.0016 29.0017 2.04515 29.0001 3.3333V8.89818C26.4639 9.54492 24.0323 10.5495 21.7791 11.8804L17.8655 7.96625C17.4292 7.51657 16.8284 7.26343 16.2014 7.26503H16.1993C15.5782 7.26236 14.9822 7.51176 14.5485 7.95663L7.96678 14.5373C7.51978 14.9731 7.26717 15.5702 7.26503 16.1939C7.26343 16.8183 7.5123 17.4169 7.95663 17.8554L11.8793 21.7786C10.5484 24.0323 9.54439 26.4639 8.89658 29.0001H3.3333C2.04515 29.0017 1.0016 30.0453 1 31.3334V40.6666C1.0016 41.9547 2.04515 42.9983 3.3333 42.9999H8.89658C9.54439 45.5361 10.5484 47.9677 11.8793 50.2214L7.96678 54.1339C7.51978 54.5697 7.26717 55.1668 7.26503 55.7906C7.26343 56.4149 7.5123 57.0136 7.95663 57.4515L14.5384 64.0327C14.9736 64.4829 15.5734 64.7366 16.1998 64.735H16.202C16.8241 64.7376 17.4201 64.4882 17.8554 64.0434L21.7791 60.1202C24.0323 61.451 26.4639 62.4556 29.0001 63.1024V68.6667C29.0017 69.9548 30.0453 70.9984 31.3334 71H40.6666C41.9547 70.9984 42.9983 69.9548 42.9999 68.6667V63.1008C43.8458 62.8813 44.68 62.619 45.4998 62.3157L46.5001 63.3165C46.9386 63.7528 47.5314 63.9985 48.1498 64.0001H53.618C54.2167 66.9342 56.9404 68.938 59.9199 68.6373C62.8994 68.3361 65.167 65.8282 65.167 62.8332C65.167 59.8387 62.8994 57.3303 59.9199 57.0296C56.9404 56.7284 54.2167 58.7327 53.618 61.6668H48.1498L44.1668 57.6838V49.9998H47.7845C48.3837 52.9339 51.1069 54.9382 54.0864 54.637C57.0659 54.3363 59.3335 51.8279 59.3335 48.8334C59.3335 45.8389 57.0659 43.3305 54.0864 43.0298C51.1069 42.7286 48.3837 44.7324 47.7845 47.6665H43.6926L39.7507 40.43C40.7536 39.5937 41.4458 38.4444 41.7155 37.1669H55.9513C56.5655 40.1742 59.4051 42.1919 62.4476 41.7806C65.4896 41.3699 67.6931 38.6714 67.487 35.6085C67.2808 32.5457 64.7366 30.1665 61.6668 30.1665ZM59.3335 5.6666C61.2663 5.6666 62.8332 7.23352 62.8332 9.16681C62.8332 11.0996 61.2663 12.6665 59.3335 12.6665C57.4002 12.6665 55.8333 11.0996 55.8333 9.16681C55.8354 7.23459 57.4013 5.66873 59.3335 5.6666ZM59.3335 59.3335C61.2663 59.3335 62.8332 60.9004 62.8332 62.8332C62.8332 64.7665 61.2663 66.3334 59.3335 66.3334C57.4002 66.3334 55.8333 64.7665 55.8333 62.8332C55.8354 60.901 57.4013 59.3356 59.3335 59.3335ZM36 39.5002C34.0672 39.5002 32.4998 37.9328 32.4998 36C32.4998 34.0672 34.0672 32.4998 36 32.4998C37.9328 32.4998 39.5002 34.0672 39.5002 36C39.4981 37.9322 37.9322 39.4981 36 39.5002ZM53.5 19.6669C55.4328 19.6669 57.0002 21.2338 57.0002 23.1666C57.0002 25.0999 55.4328 26.6668 53.5 26.6668C51.5672 26.6668 49.9998 25.0999 49.9998 23.1666C50.0019 21.2344 51.5678 19.6691 53.5 19.6669ZM41.5804 61.0414C41.0463 61.1595 40.6666 61.6332 40.6666 62.18V68.6667H31.3334V62.18C31.3334 61.6316 30.9516 61.1573 30.4164 61.0404C27.5096 60.4032 24.7383 59.2593 22.2288 57.6603C21.7674 57.3687 21.1655 57.4349 20.7788 57.8205L16.1987 62.3937L9.60687 55.7948L14.18 51.2217C14.5667 50.8351 14.6329 50.2321 14.3397 49.7712C12.7413 47.2617 11.5968 44.4899 10.9591 41.5841C10.8421 41.0484 10.3679 40.6671 9.81996 40.6666H3.3333V31.3334H9.81996C10.3679 31.3334 10.8421 30.9516 10.9591 30.4164C11.5968 27.5101 12.7413 24.7383 14.3397 22.2288C14.6329 21.7679 14.5667 21.1649 14.18 20.7788L9.60687 16.1982L16.2057 9.60634L20.7788 14.1795C21.1655 14.5661 21.7684 14.6329 22.2293 14.3397C24.7389 12.7407 27.5101 11.5968 30.4164 10.9602C30.9521 10.8427 31.3334 10.3679 31.3334 9.81996V3.3333H40.6666V9.81996C40.6666 10.3668 41.0463 10.8405 41.5804 10.9586C42.3019 11.1193 42.9956 11.3089 43.6664 11.5172L42.5171 12.6665C42.0776 13.1033 41.8319 13.6972 41.8335 14.3162V15.8281C33.2544 13.3447 24.0435 16.5587 18.8722 23.8406C13.7004 31.1219 13.7004 40.8781 18.8722 48.1594C24.0435 55.4413 33.2544 58.6553 41.8335 56.1719V57.6838C41.8319 58.3028 42.0781 58.8967 42.5171 59.3335L43.6664 60.4823C42.9956 60.6916 42.3019 60.8807 41.5804 61.0414ZM53.5 45.3332C55.4328 45.3332 57.0002 46.9001 57.0002 48.8334C57.0002 50.7662 55.4328 52.3331 53.5 52.3331C51.5672 52.3331 49.9998 50.7662 49.9998 48.8334C50.0019 46.9012 51.5678 45.3353 53.5 45.3332ZM41.8335 49.1303V53.7179C34.1313 56.2718 25.6612 53.5577 20.8787 47.0021C16.0957 40.4471 16.0957 31.5529 20.8787 24.9979C25.6612 18.4423 34.1313 15.7282 41.8335 18.2821V22.8697L37.7042 30.4501C37.1536 30.2706 36.5789 30.175 36 30.1665C32.7786 30.1665 30.1665 32.7786 30.1665 36C30.1665 39.2214 32.7786 41.8335 36 41.8335C36.5789 41.825 37.1536 41.7294 37.7042 41.5499L41.8335 49.1303ZM61.6668 39.5002C59.7335 39.5002 58.1666 37.9328 58.1666 36C58.1666 34.0672 59.7335 32.4998 61.6668 32.4998C63.5996 32.4998 65.1665 34.0672 65.1665 36C65.1644 37.9322 63.599 39.4981 61.6668 39.5002Z"/>
</mask>
<path d="M61.6668 30.1665C58.8961 30.1702 56.5089 32.1195 55.9513 34.8331H41.7155C41.4458 33.5556 40.7536 32.4063 39.7507 31.57L43.6926 24.3335H47.7845C48.3837 27.2676 51.1069 29.2714 54.0864 28.9702C57.0659 28.6695 59.3335 26.1611 59.3335 23.1666C59.3335 20.1721 57.0659 17.6637 54.0864 17.363C51.1069 17.0618 48.3837 19.0661 47.7845 22.0002H44.1668V14.3162L48.1498 10.3332H53.618C54.2167 13.2673 56.9404 15.2716 59.9199 14.9704C62.8994 14.6697 65.167 12.1613 65.167 9.16681C65.167 6.17181 62.8994 3.66388 59.9199 3.36267C56.9404 3.062 54.2167 5.06578 53.618 7.99989H48.1498C47.5314 8.0015 46.9386 8.24716 46.5001 8.68349L45.4998 9.68431C44.68 9.38097 43.8458 9.11874 42.9999 8.89925V3.3333C42.9983 2.04515 41.9547 1.0016 40.6666 1H31.3334C30.0453 1.0016 29.0017 2.04515 29.0001 3.3333V8.89818C26.4639 9.54492 24.0323 10.5495 21.7791 11.8804L17.8655 7.96625C17.4292 7.51657 16.8284 7.26343 16.2014 7.26503H16.1993C15.5782 7.26236 14.9822 7.51176 14.5485 7.95663L7.96678 14.5373C7.51978 14.9731 7.26717 15.5702 7.26503 16.1939C7.26343 16.8183 7.5123 17.4169 7.95663 17.8554L11.8793 21.7786C10.5484 24.0323 9.54439 26.4639 8.89658 29.0001H3.3333C2.04515 29.0017 1.0016 30.0453 1 31.3334V40.6666C1.0016 41.9547 2.04515 42.9983 3.3333 42.9999H8.89658C9.54439 45.5361 10.5484 47.9677 11.8793 50.2214L7.96678 54.1339C7.51978 54.5697 7.26717 55.1668 7.26503 55.7906C7.26343 56.4149 7.5123 57.0136 7.95663 57.4515L14.5384 64.0327C14.9736 64.4829 15.5734 64.7366 16.1998 64.735H16.202C16.8241 64.7376 17.4201 64.4882 17.8554 64.0434L21.7791 60.1202C24.0323 61.451 26.4639 62.4556 29.0001 63.1024V68.6667C29.0017 69.9548 30.0453 70.9984 31.3334 71H40.6666C41.9547 70.9984 42.9983 69.9548 42.9999 68.6667V63.1008C43.8458 62.8813 44.68 62.619 45.4998 62.3157L46.5001 63.3165C46.9386 63.7528 47.5314 63.9985 48.1498 64.0001H53.618C54.2167 66.9342 56.9404 68.938 59.9199 68.6373C62.8994 68.3361 65.167 65.8282 65.167 62.8332C65.167 59.8387 62.8994 57.3303 59.9199 57.0296C56.9404 56.7284 54.2167 58.7327 53.618 61.6668H48.1498L44.1668 57.6838V49.9998H47.7845C48.3837 52.9339 51.1069 54.9382 54.0864 54.637C57.0659 54.3363 59.3335 51.8279 59.3335 48.8334C59.3335 45.8389 57.0659 43.3305 54.0864 43.0298C51.1069 42.7286 48.3837 44.7324 47.7845 47.6665H43.6926L39.7507 40.43C40.7536 39.5937 41.4458 38.4444 41.7155 37.1669H55.9513C56.5655 40.1742 59.4051 42.1919 62.4476 41.7806C65.4896 41.3699 67.6931 38.6714 67.487 35.6085C67.2808 32.5457 64.7366 30.1665 61.6668 30.1665ZM59.3335 5.6666C61.2663 5.6666 62.8332 7.23352 62.8332 9.16681C62.8332 11.0996 61.2663 12.6665 59.3335 12.6665C57.4002 12.6665 55.8333 11.0996 55.8333 9.16681C55.8354 7.23459 57.4013 5.66873 59.3335 5.6666ZM59.3335 59.3335C61.2663 59.3335 62.8332 60.9004 62.8332 62.8332C62.8332 64.7665 61.2663 66.3334 59.3335 66.3334C57.4002 66.3334 55.8333 64.7665 55.8333 62.8332C55.8354 60.901 57.4013 59.3356 59.3335 59.3335ZM36 39.5002C34.0672 39.5002 32.4998 37.9328 32.4998 36C32.4998 34.0672 34.0672 32.4998 36 32.4998C37.9328 32.4998 39.5002 34.0672 39.5002 36C39.4981 37.9322 37.9322 39.4981 36 39.5002ZM53.5 19.6669C55.4328 19.6669 57.0002 21.2338 57.0002 23.1666C57.0002 25.0999 55.4328 26.6668 53.5 26.6668C51.5672 26.6668 49.9998 25.0999 49.9998 23.1666C50.0019 21.2344 51.5678 19.6691 53.5 19.6669ZM41.5804 61.0414C41.0463 61.1595 40.6666 61.6332 40.6666 62.18V68.6667H31.3334V62.18C31.3334 61.6316 30.9516 61.1573 30.4164 61.0404C27.5096 60.4032 24.7383 59.2593 22.2288 57.6603C21.7674 57.3687 21.1655 57.4349 20.7788 57.8205L16.1987 62.3937L9.60687 55.7948L14.18 51.2217C14.5667 50.8351 14.6329 50.2321 14.3397 49.7712C12.7413 47.2617 11.5968 44.4899 10.9591 41.5841C10.8421 41.0484 10.3679 40.6671 9.81996 40.6666H3.3333V31.3334H9.81996C10.3679 31.3334 10.8421 30.9516 10.9591 30.4164C11.5968 27.5101 12.7413 24.7383 14.3397 22.2288C14.6329 21.7679 14.5667 21.1649 14.18 20.7788L9.60687 16.1982L16.2057 9.60634L20.7788 14.1795C21.1655 14.5661 21.7684 14.6329 22.2293 14.3397C24.7389 12.7407 27.5101 11.5968 30.4164 10.9602C30.9521 10.8427 31.3334 10.3679 31.3334 9.81996V3.3333H40.6666V9.81996C40.6666 10.3668 41.0463 10.8405 41.5804 10.9586C42.3019 11.1193 42.9956 11.3089 43.6664 11.5172L42.5171 12.6665C42.0776 13.1033 41.8319 13.6972 41.8335 14.3162V15.8281C33.2544 13.3447 24.0435 16.5587 18.8722 23.8406C13.7004 31.1219 13.7004 40.8781 18.8722 48.1594C24.0435 55.4413 33.2544 58.6553 41.8335 56.1719V57.6838C41.8319 58.3028 42.0781 58.8967 42.5171 59.3335L43.6664 60.4823C42.9956 60.6916 42.3019 60.8807 41.5804 61.0414ZM53.5 45.3332C55.4328 45.3332 57.0002 46.9001 57.0002 48.8334C57.0002 50.7662 55.4328 52.3331 53.5 52.3331C51.5672 52.3331 49.9998 50.7662 49.9998 48.8334C50.0019 46.9012 51.5678 45.3353 53.5 45.3332ZM41.8335 49.1303V53.7179C34.1313 56.2718 25.6612 53.5577 20.8787 47.0021C16.0957 40.4471 16.0957 31.5529 20.8787 24.9979C25.6612 18.4423 34.1313 15.7282 41.8335 18.2821V22.8697L37.7042 30.4501C37.1536 30.2706 36.5789 30.175 36 30.1665C32.7786 30.1665 30.1665 32.7786 30.1665 36C30.1665 39.2214 32.7786 41.8335 36 41.8335C36.5789 41.825 37.1536 41.7294 37.7042 41.5499L41.8335 49.1303ZM61.6668 39.5002C59.7335 39.5002 58.1666 37.9328 58.1666 36C58.1666 34.0672 59.7335 32.4998 61.6668 32.4998C63.5996 32.4998 65.1665 34.0672 65.1665 36C65.1644 37.9322 63.599 39.4981 61.6668 39.5002Z" fill="#2468EB"/>
<path d="M61.6668 30.1665C58.8961 30.1702 56.5089 32.1195 55.9513 34.8331H41.7155C41.4458 33.5556 40.7536 32.4063 39.7507 31.57L43.6926 24.3335H47.7845C48.3837 27.2676 51.1069 29.2714 54.0864 28.9702C57.0659 28.6695 59.3335 26.1611 59.3335 23.1666C59.3335 20.1721 57.0659 17.6637 54.0864 17.363C51.1069 17.0618 48.3837 19.0661 47.7845 22.0002H44.1668V14.3162L48.1498 10.3332H53.618C54.2167 13.2673 56.9404 15.2716 59.9199 14.9704C62.8994 14.6697 65.167 12.1613 65.167 9.16681C65.167 6.17181 62.8994 3.66388 59.9199 3.36267C56.9404 3.062 54.2167 5.06578 53.618 7.99989H48.1498C47.5314 8.0015 46.9386 8.24716 46.5001 8.68349L45.4998 9.68431C44.68 9.38097 43.8458 9.11874 42.9999 8.89925V3.3333C42.9983 2.04515 41.9547 1.0016 40.6666 1H31.3334C30.0453 1.0016 29.0017 2.04515 29.0001 3.3333V8.89818C26.4639 9.54492 24.0323 10.5495 21.7791 11.8804L17.8655 7.96625C17.4292 7.51657 16.8284 7.26343 16.2014 7.26503H16.1993C15.5782 7.26236 14.9822 7.51176 14.5485 7.95663L7.96678 14.5373C7.51978 14.9731 7.26717 15.5702 7.26503 16.1939C7.26343 16.8183 7.5123 17.4169 7.95663 17.8554L11.8793 21.7786C10.5484 24.0323 9.54439 26.4639 8.89658 29.0001H3.3333C2.04515 29.0017 1.0016 30.0453 1 31.3334V40.6666C1.0016 41.9547 2.04515 42.9983 3.3333 42.9999H8.89658C9.54439 45.5361 10.5484 47.9677 11.8793 50.2214L7.96678 54.1339C7.51978 54.5697 7.26717 55.1668 7.26503 55.7906C7.26343 56.4149 7.5123 57.0136 7.95663 57.4515L14.5384 64.0327C14.9736 64.4829 15.5734 64.7366 16.1998 64.735H16.202C16.8241 64.7376 17.4201 64.4882 17.8554 64.0434L21.7791 60.1202C24.0323 61.451 26.4639 62.4556 29.0001 63.1024V68.6667C29.0017 69.9548 30.0453 70.9984 31.3334 71H40.6666C41.9547 70.9984 42.9983 69.9548 42.9999 68.6667V63.1008C43.8458 62.8813 44.68 62.619 45.4998 62.3157L46.5001 63.3165C46.9386 63.7528 47.5314 63.9985 48.1498 64.0001H53.618C54.2167 66.9342 56.9404 68.938 59.9199 68.6373C62.8994 68.3361 65.167 65.8282 65.167 62.8332C65.167 59.8387 62.8994 57.3303 59.9199 57.0296C56.9404 56.7284 54.2167 58.7327 53.618 61.6668H48.1498L44.1668 57.6838V49.9998H47.7845C48.3837 52.9339 51.1069 54.9382 54.0864 54.637C57.0659 54.3363 59.3335 51.8279 59.3335 48.8334C59.3335 45.8389 57.0659 43.3305 54.0864 43.0298C51.1069 42.7286 48.3837 44.7324 47.7845 47.6665H43.6926L39.7507 40.43C40.7536 39.5937 41.4458 38.4444 41.7155 37.1669H55.9513C56.5655 40.1742 59.4051 42.1919 62.4476 41.7806C65.4896 41.3699 67.6931 38.6714 67.487 35.6085C67.2808 32.5457 64.7366 30.1665 61.6668 30.1665ZM59.3335 5.6666C61.2663 5.6666 62.8332 7.23352 62.8332 9.16681C62.8332 11.0996 61.2663 12.6665 59.3335 12.6665C57.4002 12.6665 55.8333 11.0996 55.8333 9.16681C55.8354 7.23459 57.4013 5.66873 59.3335 5.6666ZM59.3335 59.3335C61.2663 59.3335 62.8332 60.9004 62.8332 62.8332C62.8332 64.7665 61.2663 66.3334 59.3335 66.3334C57.4002 66.3334 55.8333 64.7665 55.8333 62.8332C55.8354 60.901 57.4013 59.3356 59.3335 59.3335ZM36 39.5002C34.0672 39.5002 32.4998 37.9328 32.4998 36C32.4998 34.0672 34.0672 32.4998 36 32.4998C37.9328 32.4998 39.5002 34.0672 39.5002 36C39.4981 37.9322 37.9322 39.4981 36 39.5002ZM53.5 19.6669C55.4328 19.6669 57.0002 21.2338 57.0002 23.1666C57.0002 25.0999 55.4328 26.6668 53.5 26.6668C51.5672 26.6668 49.9998 25.0999 49.9998 23.1666C50.0019 21.2344 51.5678 19.6691 53.5 19.6669ZM41.5804 61.0414C41.0463 61.1595 40.6666 61.6332 40.6666 62.18V68.6667H31.3334V62.18C31.3334 61.6316 30.9516 61.1573 30.4164 61.0404C27.5096 60.4032 24.7383 59.2593 22.2288 57.6603C21.7674 57.3687 21.1655 57.4349 20.7788 57.8205L16.1987 62.3937L9.60687 55.7948L14.18 51.2217C14.5667 50.8351 14.6329 50.2321 14.3397 49.7712C12.7413 47.2617 11.5968 44.4899 10.9591 41.5841C10.8421 41.0484 10.3679 40.6671 9.81996 40.6666H3.3333V31.3334H9.81996C10.3679 31.3334 10.8421 30.9516 10.9591 30.4164C11.5968 27.5101 12.7413 24.7383 14.3397 22.2288C14.6329 21.7679 14.5667 21.1649 14.18 20.7788L9.60687 16.1982L16.2057 9.60634L20.7788 14.1795C21.1655 14.5661 21.7684 14.6329 22.2293 14.3397C24.7389 12.7407 27.5101 11.5968 30.4164 10.9602C30.9521 10.8427 31.3334 10.3679 31.3334 9.81996V3.3333H40.6666V9.81996C40.6666 10.3668 41.0463 10.8405 41.5804 10.9586C42.3019 11.1193 42.9956 11.3089 43.6664 11.5172L42.5171 12.6665C42.0776 13.1033 41.8319 13.6972 41.8335 14.3162V15.8281C33.2544 13.3447 24.0435 16.5587 18.8722 23.8406C13.7004 31.1219 13.7004 40.8781 18.8722 48.1594C24.0435 55.4413 33.2544 58.6553 41.8335 56.1719V57.6838C41.8319 58.3028 42.0781 58.8967 42.5171 59.3335L43.6664 60.4823C42.9956 60.6916 42.3019 60.8807 41.5804 61.0414ZM53.5 45.3332C55.4328 45.3332 57.0002 46.9001 57.0002 48.8334C57.0002 50.7662 55.4328 52.3331 53.5 52.3331C51.5672 52.3331 49.9998 50.7662 49.9998 48.8334C50.0019 46.9012 51.5678 45.3353 53.5 45.3332ZM41.8335 49.1303V53.7179C34.1313 56.2718 25.6612 53.5577 20.8787 47.0021C16.0957 40.4471 16.0957 31.5529 20.8787 24.9979C25.6612 18.4423 34.1313 15.7282 41.8335 18.2821V22.8697L37.7042 30.4501C37.1536 30.2706 36.5789 30.175 36 30.1665C32.7786 30.1665 30.1665 32.7786 30.1665 36C30.1665 39.2214 32.7786 41.8335 36 41.8335C36.5789 41.825 37.1536 41.7294 37.7042 41.5499L41.8335 49.1303ZM61.6668 39.5002C59.7335 39.5002 58.1666 37.9328 58.1666 36C58.1666 34.0672 59.7335 32.4998 61.6668 32.4998C63.5996 32.4998 65.1665 34.0672 65.1665 36C65.1644 37.9322 63.599 39.4981 61.6668 39.5002Z" stroke="#2468EB" stroke-width="0.4" mask="url(#path-2-outside-1)"/>
</svg>
