<svg width="64" height="72" viewBox="0 0 64 72" fill="none" xmlns="http://www.w3.org/2000/svg">
<mask id="path-1-outside-1" maskUnits="userSpaceOnUse" x="0" y="7.24121" width="64" height="53" fill="black">
<rect fill="white" y="7.24121" width="64" height="53"/>
<path d="M63.1653 28.8552C63.1653 28.0802 62.8636 27.3517 62.3156 26.8037L44.6028 9.09092C44.0549 8.54295 43.3263 8.24121 42.5515 8.24121C41.7766 8.24121 41.0479 8.54309 40.5 9.09092L38.5119 11.079L35.7022 9.15572C35.0627 8.71809 34.2914 8.55553 33.5293 8.69813C32.7676 8.84072 32.107 9.27153 31.6692 9.91096L21.8475 24.2599C21.4018 24.1848 20.9448 24.1438 20.4782 24.1438C16.0061 24.1438 12.3589 27.732 12.258 32.1803H6.01144C3.24821 32.1803 1 34.4284 1 37.1917V51.9921C1 52.551 1.45309 53.0041 2.01199 53.0041C2.5709 53.0041 3.02399 52.551 3.02399 51.9921V37.1916C3.02399 35.5444 4.36411 34.2043 6.0113 34.2043H53.2552C54.9024 34.2043 56.2426 35.5444 56.2426 37.1916V45.3137H52.869V44.8703C52.869 44.3114 52.4159 43.8583 51.857 43.8583C51.298 43.8583 50.845 44.3114 50.845 44.8703V45.3137H44.1659C42.6405 45.3137 41.3997 46.5547 41.3997 48.0799V54.8575C41.3997 56.3829 42.6406 57.6237 44.1659 57.6237H50.8449V58.3099C50.8449 58.8688 51.298 59.3219 51.8569 59.3219C52.4159 59.3219 52.8689 58.8688 52.8689 58.3099V57.6237H58.2726C59.7979 57.6237 61.0388 56.3827 61.0388 54.8575V48.0799C61.0388 46.5545 59.7978 45.3137 58.2726 45.3137H58.2665V37.1916C58.2665 36.5299 58.1364 35.8985 57.9025 35.3196L62.3155 30.9066C62.8636 30.3587 63.1653 29.6302 63.1653 28.8552ZM59.0149 48.08V54.8576C59.0149 55.2668 58.6819 55.5997 58.2728 55.5997H44.1659C43.7567 55.5997 43.4238 55.2668 43.4238 54.8576V48.08C43.4238 47.6708 43.7568 47.3379 44.1659 47.3379H58.2727C58.682 47.3378 59.0149 47.6707 59.0149 48.08ZM52.369 32.1802H45.122C44.7633 31.6794 44.5084 31.2226 44.2582 30.6145C43.9475 29.9076 43.5956 29.1066 42.9479 28.4588C42.3002 27.811 41.4989 27.4591 40.7921 27.1485C40.0821 26.8562 39.5785 26.5587 38.9699 26.0956C37.7886 25.017 35.8553 24.5057 34.2994 24.8507C33.8514 24.8991 33.4675 24.9434 33.0584 24.9268L39.0146 18.9706C42.6583 20.1947 46.7026 19.4187 49.6346 16.9851L54.4216 21.772C52.0364 24.6463 51.2446 28.5928 52.369 32.1802ZM41.9312 10.5222C42.0969 10.3565 42.317 10.2653 42.5514 10.2653C42.7857 10.2653 43.0058 10.3565 43.1715 10.5222L48.1965 15.5472C45.7666 17.4803 42.4533 18.0552 39.4904 16.9936C38.8817 16.7753 38.1915 16.9307 37.7334 17.3894L30.5064 24.6166C30.1533 24.9696 30.0373 25.4998 30.2111 25.9674C30.4668 26.7273 31.2621 26.8299 31.9633 26.8632C32.7835 26.9779 33.6995 26.9779 34.5195 26.8629C35.874 26.6316 36.7152 26.8515 37.7771 27.7311C38.4266 28.2339 39.2127 28.6938 39.9779 29.0019C41.2717 29.4737 41.933 30.135 42.4049 31.4289C42.5138 31.6766 42.6263 31.9297 42.7515 32.1804H28.6985C28.6465 29.8883 27.6535 27.8257 26.09 26.3637L41.9312 10.5222ZM33.3395 11.0543C33.4719 10.861 33.6715 10.7309 33.9017 10.6877C34.1322 10.6446 34.3653 10.6935 34.5588 10.826L37.0557 12.5351L24.4319 25.159C24.2506 25.0592 24.0645 24.9673 23.8753 24.8811L33.3395 11.0543ZM20.4781 26.1679C23.8341 26.1679 26.574 28.8482 26.6743 32.1803H24.4656C24.3668 30.0664 22.6162 28.3768 20.4782 28.3768C18.3402 28.3768 16.5898 30.0664 16.4909 32.1803H14.2821C14.3823 28.848 17.1222 26.1679 20.4781 26.1679ZM18.5197 32.1802C18.615 31.1832 19.4567 30.4006 20.4781 30.4006C21.4995 30.4006 22.3413 31.1831 22.4366 32.1802H18.5197ZM60.8843 29.4755L56.7526 33.6071C56.1337 33.0031 55.3603 32.557 54.4972 32.3362C54.4867 32.1871 54.457 32.0385 54.4057 31.8944C53.3549 28.938 53.9324 25.6332 55.8596 23.2102L60.8844 28.235C61.0501 28.4007 61.1413 28.621 61.1413 28.8552C61.1412 29.0895 61.05 29.3097 60.8843 29.4755Z"/>
</mask>
<path d="M63.1653 28.8552C63.1653 28.0802 62.8636 27.3517 62.3156 26.8037L44.6028 9.09092C44.0549 8.54295 43.3263 8.24121 42.5515 8.24121C41.7766 8.24121 41.0479 8.54309 40.5 9.09092L38.5119 11.079L35.7022 9.15572C35.0627 8.71809 34.2914 8.55553 33.5293 8.69813C32.7676 8.84072 32.107 9.27153 31.6692 9.91096L21.8475 24.2599C21.4018 24.1848 20.9448 24.1438 20.4782 24.1438C16.0061 24.1438 12.3589 27.732 12.258 32.1803H6.01144C3.24821 32.1803 1 34.4284 1 37.1917V51.9921C1 52.551 1.45309 53.0041 2.01199 53.0041C2.5709 53.0041 3.02399 52.551 3.02399 51.9921V37.1916C3.02399 35.5444 4.36411 34.2043 6.0113 34.2043H53.2552C54.9024 34.2043 56.2426 35.5444 56.2426 37.1916V45.3137H52.869V44.8703C52.869 44.3114 52.4159 43.8583 51.857 43.8583C51.298 43.8583 50.845 44.3114 50.845 44.8703V45.3137H44.1659C42.6405 45.3137 41.3997 46.5547 41.3997 48.0799V54.8575C41.3997 56.3829 42.6406 57.6237 44.1659 57.6237H50.8449V58.3099C50.8449 58.8688 51.298 59.3219 51.8569 59.3219C52.4159 59.3219 52.8689 58.8688 52.8689 58.3099V57.6237H58.2726C59.7979 57.6237 61.0388 56.3827 61.0388 54.8575V48.0799C61.0388 46.5545 59.7978 45.3137 58.2726 45.3137H58.2665V37.1916C58.2665 36.5299 58.1364 35.8985 57.9025 35.3196L62.3155 30.9066C62.8636 30.3587 63.1653 29.6302 63.1653 28.8552ZM59.0149 48.08V54.8576C59.0149 55.2668 58.6819 55.5997 58.2728 55.5997H44.1659C43.7567 55.5997 43.4238 55.2668 43.4238 54.8576V48.08C43.4238 47.6708 43.7568 47.3379 44.1659 47.3379H58.2727C58.682 47.3378 59.0149 47.6707 59.0149 48.08ZM52.369 32.1802H45.122C44.7633 31.6794 44.5084 31.2226 44.2582 30.6145C43.9475 29.9076 43.5956 29.1066 42.9479 28.4588C42.3002 27.811 41.4989 27.4591 40.7921 27.1485C40.0821 26.8562 39.5785 26.5587 38.9699 26.0956C37.7886 25.017 35.8553 24.5057 34.2994 24.8507C33.8514 24.8991 33.4675 24.9434 33.0584 24.9268L39.0146 18.9706C42.6583 20.1947 46.7026 19.4187 49.6346 16.9851L54.4216 21.772C52.0364 24.6463 51.2446 28.5928 52.369 32.1802ZM41.9312 10.5222C42.0969 10.3565 42.317 10.2653 42.5514 10.2653C42.7857 10.2653 43.0058 10.3565 43.1715 10.5222L48.1965 15.5472C45.7666 17.4803 42.4533 18.0552 39.4904 16.9936C38.8817 16.7753 38.1915 16.9307 37.7334 17.3894L30.5064 24.6166C30.1533 24.9696 30.0373 25.4998 30.2111 25.9674C30.4668 26.7273 31.2621 26.8299 31.9633 26.8632C32.7835 26.9779 33.6995 26.9779 34.5195 26.8629C35.874 26.6316 36.7152 26.8515 37.7771 27.7311C38.4266 28.2339 39.2127 28.6938 39.9779 29.0019C41.2717 29.4737 41.933 30.135 42.4049 31.4289C42.5138 31.6766 42.6263 31.9297 42.7515 32.1804H28.6985C28.6465 29.8883 27.6535 27.8257 26.09 26.3637L41.9312 10.5222ZM33.3395 11.0543C33.4719 10.861 33.6715 10.7309 33.9017 10.6877C34.1322 10.6446 34.3653 10.6935 34.5588 10.826L37.0557 12.5351L24.4319 25.159C24.2506 25.0592 24.0645 24.9673 23.8753 24.8811L33.3395 11.0543ZM20.4781 26.1679C23.8341 26.1679 26.574 28.8482 26.6743 32.1803H24.4656C24.3668 30.0664 22.6162 28.3768 20.4782 28.3768C18.3402 28.3768 16.5898 30.0664 16.4909 32.1803H14.2821C14.3823 28.848 17.1222 26.1679 20.4781 26.1679ZM18.5197 32.1802C18.615 31.1832 19.4567 30.4006 20.4781 30.4006C21.4995 30.4006 22.3413 31.1831 22.4366 32.1802H18.5197ZM60.8843 29.4755L56.7526 33.6071C56.1337 33.0031 55.3603 32.557 54.4972 32.3362C54.4867 32.1871 54.457 32.0385 54.4057 31.8944C53.3549 28.938 53.9324 25.6332 55.8596 23.2102L60.8844 28.235C61.0501 28.4007 61.1413 28.621 61.1413 28.8552C61.1412 29.0895 61.05 29.3097 60.8843 29.4755Z" fill="#2468EB"/>
<path d="M63.1653 28.8552C63.1653 28.0802 62.8636 27.3517 62.3156 26.8037L44.6028 9.09092C44.0549 8.54295 43.3263 8.24121 42.5515 8.24121C41.7766 8.24121 41.0479 8.54309 40.5 9.09092L38.5119 11.079L35.7022 9.15572C35.0627 8.71809 34.2914 8.55553 33.5293 8.69813C32.7676 8.84072 32.107 9.27153 31.6692 9.91096L21.8475 24.2599C21.4018 24.1848 20.9448 24.1438 20.4782 24.1438C16.0061 24.1438 12.3589 27.732 12.258 32.1803H6.01144C3.24821 32.1803 1 34.4284 1 37.1917V51.9921C1 52.551 1.45309 53.0041 2.01199 53.0041C2.5709 53.0041 3.02399 52.551 3.02399 51.9921V37.1916C3.02399 35.5444 4.36411 34.2043 6.0113 34.2043H53.2552C54.9024 34.2043 56.2426 35.5444 56.2426 37.1916V45.3137H52.869V44.8703C52.869 44.3114 52.4159 43.8583 51.857 43.8583C51.298 43.8583 50.845 44.3114 50.845 44.8703V45.3137H44.1659C42.6405 45.3137 41.3997 46.5547 41.3997 48.0799V54.8575C41.3997 56.3829 42.6406 57.6237 44.1659 57.6237H50.8449V58.3099C50.8449 58.8688 51.298 59.3219 51.8569 59.3219C52.4159 59.3219 52.8689 58.8688 52.8689 58.3099V57.6237H58.2726C59.7979 57.6237 61.0388 56.3827 61.0388 54.8575V48.0799C61.0388 46.5545 59.7978 45.3137 58.2726 45.3137H58.2665V37.1916C58.2665 36.5299 58.1364 35.8985 57.9025 35.3196L62.3155 30.9066C62.8636 30.3587 63.1653 29.6302 63.1653 28.8552ZM59.0149 48.08V54.8576C59.0149 55.2668 58.6819 55.5997 58.2728 55.5997H44.1659C43.7567 55.5997 43.4238 55.2668 43.4238 54.8576V48.08C43.4238 47.6708 43.7568 47.3379 44.1659 47.3379H58.2727C58.682 47.3378 59.0149 47.6707 59.0149 48.08ZM52.369 32.1802H45.122C44.7633 31.6794 44.5084 31.2226 44.2582 30.6145C43.9475 29.9076 43.5956 29.1066 42.9479 28.4588C42.3002 27.811 41.4989 27.4591 40.7921 27.1485C40.0821 26.8562 39.5785 26.5587 38.9699 26.0956C37.7886 25.017 35.8553 24.5057 34.2994 24.8507C33.8514 24.8991 33.4675 24.9434 33.0584 24.9268L39.0146 18.9706C42.6583 20.1947 46.7026 19.4187 49.6346 16.9851L54.4216 21.772C52.0364 24.6463 51.2446 28.5928 52.369 32.1802ZM41.9312 10.5222C42.0969 10.3565 42.317 10.2653 42.5514 10.2653C42.7857 10.2653 43.0058 10.3565 43.1715 10.5222L48.1965 15.5472C45.7666 17.4803 42.4533 18.0552 39.4904 16.9936C38.8817 16.7753 38.1915 16.9307 37.7334 17.3894L30.5064 24.6166C30.1533 24.9696 30.0373 25.4998 30.2111 25.9674C30.4668 26.7273 31.2621 26.8299 31.9633 26.8632C32.7835 26.9779 33.6995 26.9779 34.5195 26.8629C35.874 26.6316 36.7152 26.8515 37.7771 27.7311C38.4266 28.2339 39.2127 28.6938 39.9779 29.0019C41.2717 29.4737 41.933 30.135 42.4049 31.4289C42.5138 31.6766 42.6263 31.9297 42.7515 32.1804H28.6985C28.6465 29.8883 27.6535 27.8257 26.09 26.3637L41.9312 10.5222ZM33.3395 11.0543C33.4719 10.861 33.6715 10.7309 33.9017 10.6877C34.1322 10.6446 34.3653 10.6935 34.5588 10.826L37.0557 12.5351L24.4319 25.159C24.2506 25.0592 24.0645 24.9673 23.8753 24.8811L33.3395 11.0543ZM20.4781 26.1679C23.8341 26.1679 26.574 28.8482 26.6743 32.1803H24.4656C24.3668 30.0664 22.6162 28.3768 20.4782 28.3768C18.3402 28.3768 16.5898 30.0664 16.4909 32.1803H14.2821C14.3823 28.848 17.1222 26.1679 20.4781 26.1679ZM18.5197 32.1802C18.615 31.1832 19.4567 30.4006 20.4781 30.4006C21.4995 30.4006 22.3413 31.1831 22.4366 32.1802H18.5197ZM60.8843 29.4755L56.7526 33.6071C56.1337 33.0031 55.3603 32.557 54.4972 32.3362C54.4867 32.1871 54.457 32.0385 54.4057 31.8944C53.3549 28.938 53.9324 25.6332 55.8596 23.2102L60.8844 28.235C61.0501 28.4007 61.1413 28.621 61.1413 28.8552C61.1412 29.0895 61.05 29.3097 60.8843 29.4755Z" stroke="#2468EB" stroke-width="0.6" mask="url(#path-1-outside-1)"/>
<path d="M8.00804 9.05518L8.00803 9.05518C7.40822 9.28358 7.10709 9.95486 7.33567 10.5547C7.56397 11.1546 8.23553 11.4554 8.83514 11.2272L8.83517 11.2272C9.52106 10.9659 10.2452 10.8335 10.9875 10.8335C14.3238 10.8335 17.0384 13.5481 17.0384 16.8844C17.0384 20.2208 14.3238 22.9353 10.9875 22.9353C7.6511 22.9353 4.93658 20.2208 4.93658 16.8844C4.93658 15.8517 5.20095 14.8329 5.70065 13.9384L5.70067 13.9384C6.01351 13.3782 5.81324 12.6702 5.25294 12.3572L5.25294 12.3572C4.69239 12.044 3.98467 12.2445 3.67165 12.8049L3.8008 12.877L3.67165 12.8049C2.97879 14.0454 2.61245 15.456 2.61245 16.8844C2.61245 21.5025 6.36938 25.2595 10.9875 25.2595C15.6056 25.2595 19.3625 21.5025 19.3625 16.8844C19.3625 12.2664 15.6056 8.50942 10.9875 8.50942C9.96189 8.50942 8.95942 8.69303 8.00804 9.05518Z" fill="#2468EB" stroke="#2468EB" stroke-width="0.3"/>
<path d="M24.63 11.9976C27.7035 11.9976 30.2038 9.49735 30.2038 6.42378C30.2036 3.35021 27.7035 0.85 24.63 0.85C21.5564 0.85 19.0561 3.3502 19.0561 6.42378C19.0561 9.49722 21.5564 11.9976 24.63 11.9976ZM24.63 3.17413C26.4217 3.17413 27.8796 4.63207 27.8796 6.42378C27.8796 8.21549 26.4217 9.67344 24.63 9.67344C22.8381 9.67344 21.3802 8.21549 21.3802 6.42378C21.3802 4.63207 22.8381 3.17413 24.63 3.17413Z" fill="#2468EB" stroke="#2468EB" stroke-width="0.3"/>
<path d="M15.1294 16.8843C15.1294 14.6001 13.2713 12.7421 10.9873 12.7421C8.70316 12.7421 6.84512 14.6001 6.84512 16.8843C6.84512 19.1684 8.70316 21.0265 10.9873 21.0265C13.2713 21.0265 15.1294 19.1684 15.1294 16.8843ZM9.16924 16.8843C9.16924 15.882 9.98502 15.0662 10.9873 15.0662C11.9896 15.0662 12.8052 15.8818 12.8052 16.8843C12.8052 17.8867 11.9896 18.7024 10.9873 18.7024C9.98501 18.7024 9.16924 17.8867 9.16924 16.8843Z" fill="#2468EB" stroke="#2468EB" stroke-width="0.3"/>
<path d="M58.4171 61.9591V61.959C58.4167 61.3174 57.8967 60.7971 57.2548 60.7971C56.6129 60.7971 56.0928 61.3174 56.0928 61.9591V65.9886C56.0928 67.553 54.8198 68.8259 53.2555 68.8259H6.01154C4.4472 68.8259 3.17423 67.553 3.17423 65.9886V57.3304C3.17423 56.6886 2.65399 56.1684 2.01224 56.1684C1.37049 56.1684 0.850244 56.6886 0.850244 57.3304V65.9886C0.850244 68.8348 3.16547 71.1501 6.01168 71.1501H53.2556C56.1017 71.1501 58.4171 68.8348 58.4171 65.9886V61.9591Z" fill="#2468EB" stroke="#2468EB" stroke-width="0.3"/>
<path d="M50.6951 41.0862V41.0863C50.6952 41.7281 51.2153 42.2483 51.8572 42.2483C52.4991 42.2483 53.0192 41.7281 53.0192 41.0864V41.019C53.0192 39.0387 51.4084 37.428 49.4283 37.428H49.3609C48.719 37.428 48.1989 37.9483 48.1989 38.59C48.1989 39.2317 48.7191 39.752 49.3609 39.752H49.4283C50.1268 39.752 50.6951 40.3204 50.6951 41.0188V41.0862Z" fill="#2468EB" stroke="#2468EB" stroke-width="0.3"/>
<path d="M49.2781 65.7495V65.7525H49.4281C51.4084 65.7525 53.0191 64.1416 53.0191 62.1615V62.0941C53.0191 61.4524 52.4988 60.9322 51.8571 60.9322C51.2152 60.9322 50.6951 61.4524 50.6951 62.0941V62.1615C50.6951 62.8599 50.1266 63.4284 49.4283 63.4284H49.3609C48.719 63.4284 48.1989 63.9486 48.1989 64.5904C48.1989 65.2043 48.675 65.707 49.2781 65.7495Z" fill="#2468EB" stroke="#2468EB" stroke-width="0.3"/>
<path d="M31.586 63.4284C30.9441 63.4284 30.424 63.9486 30.424 64.5904C30.424 65.2321 30.9442 65.7524 31.586 65.7524H36.5683C37.2102 65.7524 37.7303 65.2321 37.7303 64.5904C37.7303 63.9486 37.21 63.4284 36.5683 63.4284H31.586Z" fill="#2468EB" stroke="#2468EB" stroke-width="0.3"/>
<path d="M13.8113 63.4284C13.1694 63.4284 12.6493 63.9486 12.6493 64.5904C12.6493 65.2321 13.1696 65.7524 13.8113 65.7524H18.7936C19.4355 65.7524 19.9556 65.2321 19.9556 64.5904C19.9556 63.9486 19.4354 63.4284 18.7936 63.4284H13.8113Z" fill="#2468EB" stroke="#2468EB" stroke-width="0.3"/>
<path d="M39.3114 64.5905C39.3114 65.2322 39.8317 65.7525 40.4734 65.7525H45.4557C46.0976 65.7525 46.6177 65.2322 46.6177 64.5905C46.6177 63.9487 46.0975 63.4285 45.4557 63.4285H40.4735C40.4734 63.4285 40.4734 63.4285 40.4734 63.4285C39.8315 63.4284 39.3114 63.9488 39.3114 64.5905Z" fill="#2468EB" stroke="#2468EB" stroke-width="0.3"/>
<path d="M22.6988 63.4284C22.0569 63.4284 21.5368 63.9486 21.5368 64.5904C21.5368 65.2321 22.057 65.7524 22.6988 65.7524H27.6811C28.323 65.7524 28.8431 65.2321 28.8431 64.5904C28.8431 63.9486 28.3228 63.4284 27.6811 63.4284H22.6988Z" fill="#2468EB" stroke="#2468EB" stroke-width="0.3"/>
<path d="M6.2505 62.0115H6.24746V62.1615C6.24746 64.1418 7.85832 65.7525 9.83841 65.7525H9.90581C10.5477 65.7525 11.0678 65.2322 11.0678 64.5905C11.0678 63.9487 10.5476 63.4285 9.90581 63.4285H9.83841C9.13991 63.4285 8.57159 62.86 8.57159 62.1617V62.0943C8.57159 61.4525 8.05134 60.9323 7.40959 60.9323C6.79552 60.9323 6.29291 61.4084 6.2505 62.0115Z" fill="#2468EB" stroke="#2468EB" stroke-width="0.3"/>
<path d="M6.24746 49.6981C6.24746 50.3398 6.76771 50.8601 7.40946 50.8601C8.05135 50.8601 8.57145 50.3398 8.57145 49.6981V44.8703C8.57145 44.2285 8.05121 43.7083 7.40946 43.7083C6.76755 43.7083 6.24746 44.2285 6.24746 44.8703V49.6981Z" fill="#2468EB" stroke="#2468EB" stroke-width="0.3"/>
<path d="M6.24746 58.3099C6.24746 58.9517 6.7677 59.4719 7.40946 59.4719C8.05136 59.4719 8.57145 58.9516 8.57145 58.3099V53.4821C8.57145 52.8403 8.0512 52.3201 7.40946 52.3201C6.76756 52.3201 6.24746 52.8403 6.24746 53.4821V58.3099Z" fill="#2468EB" stroke="#2468EB" stroke-width="0.3"/>
<path d="M6.24746 41.0865V41.0865C6.24762 41.7281 6.7677 42.2483 7.40959 42.2483C8.05149 42.2483 8.57159 41.7281 8.57159 41.0863V41.0189C8.57159 40.3206 9.14004 39.7521 9.83841 39.7521H9.90581C10.5477 39.7521 11.0678 39.2319 11.0678 38.5901C11.0678 37.9484 10.5476 37.4281 9.90581 37.4281H9.83841C7.85817 37.4281 6.24746 39.039 6.24746 41.0191V41.0865Z" fill="#2468EB" stroke="#2468EB" stroke-width="0.3"/>
<path d="M27.6806 37.4279H22.6983C22.0564 37.4279 21.5363 37.9481 21.5363 38.5899C21.5363 39.2316 22.0565 39.7519 22.6983 39.7519H27.6806C28.3225 39.7519 28.8426 39.2316 28.8426 38.5899C28.8426 37.9481 28.3225 37.4279 27.6806 37.4279Z" fill="#2468EB" stroke="#2468EB" stroke-width="0.3"/>
<path d="M18.7934 37.4279H13.8111C13.1692 37.4279 12.6491 37.9481 12.6491 38.5899C12.6491 39.2316 13.1693 39.7519 13.8111 39.7519H18.7934C19.4353 39.7519 19.9554 39.2316 19.9554 38.5899C19.9554 37.9481 19.4353 37.4279 18.7934 37.4279Z" fill="#2468EB" stroke="#2468EB" stroke-width="0.3"/>
<path d="M46.6175 38.59C46.6175 37.9482 46.0972 37.428 45.4555 37.428H40.4732C39.8313 37.428 39.3112 37.9483 39.3112 38.59C39.3112 39.2317 39.8314 39.752 40.4732 39.752H45.4555C46.0972 39.752 46.6175 39.2317 46.6175 38.59Z" fill="#2468EB" stroke="#2468EB" stroke-width="0.3"/>
<path d="M36.568 37.4279H31.5857C30.9438 37.4279 30.4237 37.9481 30.4237 38.5899C30.4237 39.2316 30.944 39.7519 31.5857 39.7519H36.568C37.2099 39.7519 37.73 39.2316 37.73 38.5899C37.73 37.9481 37.2099 37.4279 36.568 37.4279Z" fill="#2468EB" stroke="#2468EB" stroke-width="0.3"/>
<path d="M46.9946 52.9768C47.8276 52.9768 48.5028 52.3016 48.5028 51.4686C48.5028 50.6357 47.8276 49.9605 46.9946 49.9605C46.1617 49.9605 45.4865 50.6357 45.4865 51.4686C45.4865 52.3016 46.1617 52.9768 46.9946 52.9768Z" fill="#2468EB" stroke="#2468EB" stroke-width="0.3"/>
</svg>
