<svg width="60" height="61" viewBox="0 0 60 61" fill="none" xmlns="http://www.w3.org/2000/svg">
<path d="M54.0269 36.0834C53.8087 35.8652 53.5061 35.7397 53.1977 35.7397C52.8892 35.7397 52.5867 35.8652 52.3685 36.0834C52.1504 36.3027 52.0249 36.6041 52.0249 36.9125C52.0249 37.2222 52.1504 37.5236 52.3685 37.7417C52.5867 37.961 52.8892 38.0865 53.1977 38.0865C53.5061 38.0865 53.8087 37.961 54.0269 37.7417C54.245 37.5247 54.3705 37.2222 54.3705 36.9125C54.3705 36.6041 54.245 36.3015 54.0269 36.0834Z" fill="#2468EB"/>
<path d="M56.4814 5.16027H48.9182C48.3747 4.09878 47.2703 3.37001 45.9981 3.37001H40.6987C40.1805 1.43174 38.4091 0 36.3094 0C34.2099 0 32.4385 1.43174 31.9201 3.37001H26.6208C25.3485 3.37001 24.2441 4.09878 23.7007 5.16027H16.1375C14.1974 5.16027 12.6191 6.73861 12.6191 8.67864V10.7897C12.6191 11.4374 13.1442 11.9624 13.7919 11.9624C14.4396 11.9624 14.9647 11.4374 14.9647 10.7897V8.67864C14.9647 8.03196 15.4908 7.50585 16.1375 7.50585H23.3417V10.3205H19.4196C18.7719 10.3205 18.2468 10.8456 18.2468 11.4933V14.8554H14.0771C13.4294 14.8554 12.9043 15.3804 12.9043 16.0282V16.5778C12.9043 17.4824 12.3528 18.2943 11.498 18.6469L11.4504 18.6666C10.5905 19.0249 9.62121 18.843 8.98075 18.2025L8.59232 17.8141C8.13423 17.3562 7.39174 17.3562 6.93376 17.8141L2.95859 21.7892C2.50062 22.2472 2.50062 22.9898 2.95859 23.4478L3.35523 23.8444C3.99382 24.4829 4.17618 25.4498 3.82013 26.3072L3.80113 26.353C3.44976 27.2076 2.63831 27.7598 1.73385 27.7598H1.17279C0.525058 27.7598 0 28.2849 0 28.9326V34.5544C0 35.2021 0.525058 35.7271 1.17279 35.7271H1.74359C2.64534 35.7271 3.4548 36.2772 3.80699 37.1316L3.82505 37.1751C4.18181 38.0319 4.00015 38.9978 3.36215 39.6357L2.95883 40.039C2.50086 40.497 2.50086 41.2396 2.95883 41.6976L6.934 45.6729C7.1539 45.8928 7.45225 46.0164 7.76328 46.0164C8.0743 46.0164 8.37266 45.8928 8.59256 45.6729L8.996 45.2695C9.63376 44.6317 10.5995 44.45 11.4668 44.8109L11.5031 44.8259C11.9993 45.0304 12.3919 45.3913 12.6342 45.8347C12.6253 45.8928 12.6193 45.9519 12.6193 46.0124V56.5284C12.6193 58.4685 14.1977 60.0468 16.1377 60.0468H56.4816C58.4217 60.0468 60 58.4685 60 56.5284V8.67864C59.9998 6.73861 58.4215 5.16027 56.4814 5.16027ZM25.6875 6.64901C25.6875 6.13427 26.1063 5.71559 26.6209 5.71559H32.9395C33.5873 5.71559 34.1123 5.19053 34.1123 4.5428C34.1123 3.33119 35.0981 2.34558 36.3095 2.34558C37.521 2.34558 38.5068 3.33119 38.5068 4.5428C38.5068 5.19053 39.0318 5.71559 39.6796 5.71559H45.9982C46.5129 5.71559 46.9316 6.13427 46.9316 6.64901V10.3205H25.6875V6.64901ZM12.3963 42.657L12.3581 42.6412C10.8111 41.9971 9.07915 42.2283 7.79154 43.2132L5.41864 40.8401C6.40354 39.5525 6.6347 37.8206 5.99025 36.273L5.97454 36.2348C5.33842 34.6915 3.95195 33.6344 2.3457 33.4213V30.0646C3.95113 29.8483 5.33584 28.7895 5.97137 27.2439L5.98662 27.2072C6.62802 25.663 6.39792 23.9345 5.41782 22.6477L7.79365 20.2719C9.08208 21.2484 10.8094 21.4753 12.3519 20.8321L12.394 20.8148C13.9325 20.1802 14.9882 18.8007 15.2079 17.2009H18.5704C18.7934 18.8 19.8507 20.1776 21.3886 20.8106L21.4289 20.8272C22.97 21.4678 24.694 21.2424 25.9822 20.271L28.3612 22.6498C27.3897 23.9378 27.1641 25.6618 27.8042 27.2016L27.8207 27.2413C28.4544 28.7811 29.832 29.8387 31.4311 30.0616V33.4241C29.8313 33.6437 28.4519 34.6994 27.8179 36.2367L27.8005 36.2786C27.157 37.8222 27.3836 39.5496 28.3601 40.8383L25.9843 43.2141C24.6975 42.234 22.9691 42.0041 21.4245 42.6455L21.3869 42.6611C19.8425 43.2962 18.7837 44.6807 18.5675 46.2862H15.2107C14.9976 44.6799 13.9405 43.2935 12.3963 42.657ZM57.6542 56.5284C57.6542 57.1751 57.1281 57.7012 56.4814 57.7012H16.1375C15.4908 57.7012 14.9647 57.1751 14.9647 56.5284V48.6317H19.6989C20.3466 48.6317 20.8717 48.1066 20.8717 47.4589V46.8976C20.8717 45.9933 21.4238 45.1818 22.2824 44.8287L22.3239 44.8116C23.1815 44.4554 24.1484 44.6378 24.7869 45.2762L25.1834 45.6729C25.4033 45.8928 25.7017 46.0164 26.0127 46.0164C26.3237 46.0164 26.6221 45.8928 26.842 45.6729L30.8171 41.6977C31.037 41.4778 31.1607 41.1794 31.1607 40.8683C31.1607 40.5572 31.037 40.2589 30.8171 40.039L30.4287 39.6507C29.7885 39.0104 29.6062 38.0411 29.9653 37.1798L29.985 37.1323C30.337 36.2788 31.1489 35.7273 32.0535 35.7273H32.6032C33.2509 35.7273 33.776 35.2022 33.776 34.5545V28.9327C33.776 28.285 33.2509 27.7599 32.6032 27.7599H32.0642C31.1564 27.7599 30.3418 27.2059 29.9896 26.3501L29.97 26.3027C29.6119 25.4412 29.7948 24.4702 30.4362 23.829L30.8171 23.4479C31.037 23.228 31.1607 22.9298 31.1607 22.6186C31.1607 22.3075 31.037 22.0093 30.8171 21.7894L26.8419 17.8142C26.3839 17.3562 25.6413 17.3563 25.1833 17.8142L24.8024 18.1951C24.161 18.8365 23.1898 19.0194 22.3322 18.6629L22.2829 18.6424C21.4254 18.2895 20.8714 17.475 20.8714 16.5673V16.0282C20.8714 15.7387 20.766 15.4741 20.5922 15.2696V12.6661H52.0246V31.6939C52.0246 32.3417 52.5496 32.8667 53.1974 32.8667C53.8451 32.8667 54.3701 32.3417 54.3701 31.6939V11.4933C54.3701 10.8456 53.8451 10.3205 53.1974 10.3205H49.277V7.50585H56.4814C57.1281 7.50585 57.6542 8.03196 57.6542 8.67864V56.5284Z" fill="#2468EB"/>
<path d="M36.2564 6.33301H36.2402C35.5924 6.33301 35.0674 6.85807 35.0674 7.5058C35.0674 8.15353 35.5924 8.67859 36.2402 8.67859H36.2564C36.9041 8.67859 37.4291 8.15353 37.4291 7.5058C37.4291 6.85807 36.9041 6.33301 36.2564 6.33301Z" fill="#2468EB"/>
<path d="M21.3536 28.6501C20.8956 28.1921 20.153 28.1921 19.695 28.6501L15.9958 32.3493L14.081 30.4345C13.623 29.9765 12.8804 29.9765 12.4223 30.4345C11.9644 30.8925 11.9644 31.6351 12.4223 32.0932L15.1664 34.8373C15.3955 35.0663 15.6956 35.1808 15.9957 35.1808C16.2958 35.1808 16.5961 35.0662 16.825 34.8373L21.3535 30.3088C21.8117 29.8506 21.8117 29.1081 21.3536 28.6501Z" fill="#2468EB"/>
<path d="M53.1977 40.7539C52.55 40.7539 52.0249 41.279 52.0249 41.9267V45.627H46.8966C46.2488 45.627 45.7238 46.152 45.7238 46.7998V51.9281H19.4199C18.7721 51.9281 18.2471 52.4532 18.2471 53.1009C18.2471 53.7486 18.7721 54.2737 19.4199 54.2737H46.8967C47.2077 54.2737 47.506 54.1501 47.7259 53.9302L54.0271 47.629C54.247 47.4091 54.3706 47.1108 54.3706 46.7998V41.9267C54.3705 41.279 53.8454 40.7539 53.1977 40.7539ZM48.0695 50.2694V47.9725H50.3664L48.0695 50.2694Z" fill="#2468EB"/>
<path d="M16.8879 22.2219C11.6375 22.2219 7.36621 26.4932 7.36621 31.7436C7.36621 36.9939 11.6375 41.2652 16.8879 41.2652C22.1382 41.2652 26.4095 36.9938 26.4095 31.7436C26.4096 26.4933 22.1382 22.2219 16.8879 22.2219ZM16.8881 38.9196C12.9312 38.9196 9.71202 35.7003 9.71202 31.7436C9.71202 27.7867 12.9312 24.5675 16.8881 24.5675C20.845 24.5675 24.0641 27.7867 24.0641 31.7436C24.0641 35.7004 20.845 38.9196 16.8881 38.9196Z" fill="#2468EB"/>
<path d="M48.1045 18.1782H42.2907C41.643 18.1782 41.1179 18.7033 41.1179 19.351C41.1179 19.9987 41.643 20.5238 42.2907 20.5238H48.1045C48.7522 20.5238 49.2772 19.9987 49.2772 19.351C49.2772 18.7033 48.7523 18.1782 48.1045 18.1782Z" fill="#2468EB"/>
<path d="M38.3113 18.5218C38.0931 18.3037 37.7906 18.1782 37.4821 18.1782C37.1737 18.1782 36.8711 18.3037 36.653 18.5218C36.4348 18.74 36.3093 19.0426 36.3093 19.351C36.3093 19.6595 36.4348 19.962 36.653 20.1802C36.8711 20.3983 37.1737 20.5238 37.4821 20.5238C37.7906 20.5238 38.0931 20.3983 38.3113 20.1802C38.5294 19.962 38.6549 19.6595 38.6549 19.351C38.6549 19.0426 38.5294 18.74 38.3113 18.5218Z" fill="#2468EB"/>
<path d="M48.1043 25.2151H37.4821C36.8344 25.2151 36.3093 25.7401 36.3093 26.3879C36.3093 27.0356 36.8344 27.5607 37.4821 27.5607H48.1043C48.752 27.5607 49.2771 27.0356 49.2771 26.3879C49.2771 25.7401 48.7521 25.2151 48.1043 25.2151Z" fill="#2468EB"/>
<path d="M48.1043 32.2517H37.4821C36.8344 32.2517 36.3093 32.7768 36.3093 33.4245C36.3093 34.0722 36.8344 34.5973 37.4821 34.5973H48.1043C48.752 34.5973 49.2771 34.0722 49.2771 33.4245C49.2771 32.7768 48.7521 32.2517 48.1043 32.2517Z" fill="#2468EB"/>
<path d="M48.1043 39.2886H37.4821C36.8344 39.2886 36.3093 39.8136 36.3093 40.4614C36.3093 41.1091 36.8344 41.6342 37.4821 41.6342H48.1043C48.752 41.6342 49.2771 41.1091 49.2771 40.4614C49.2771 39.8136 48.7521 39.2886 48.1043 39.2886Z" fill="#2468EB"/>
</svg>
