<svg width="65" height="65" viewBox="0 0 65 65" fill="none" xmlns="http://www.w3.org/2000/svg">
<mask id="path-1-outside-1" maskUnits="userSpaceOnUse" x="0" y="0" width="65" height="65" fill="black">
<rect fill="white" width="65" height="65"/>
<path d="M12.55 59.8H36.7V61.9H12.1169C11.9618 62.3725 11.7549 62.8264 11.5 63.2534V64H9.40002V62.95C9.40002 62.7427 9.4614 62.54 9.57642 62.3675C10.0848 61.6078 10.3562 60.7142 10.3562 59.8C10.3562 58.8858 10.0848 57.9922 9.57642 57.2325C9.44176 57.0305 9.38125 56.7881 9.40518 56.5465C9.42911 56.305 9.536 56.0792 9.70767 55.9075L13.2554 52.3598C13.3647 52.2505 13.4514 52.1207 13.5105 51.9778C13.5697 51.835 13.6001 51.6819 13.6001 51.5273C13.6001 51.3727 13.5697 51.2196 13.5105 51.0767C13.4513 50.9339 13.3646 50.8041 13.2552 50.6948C13.1459 50.5855 13.0161 50.4988 12.8732 50.4396C12.7304 50.3804 12.5773 50.35 12.4227 50.35C12.2681 50.35 12.115 50.3805 11.9721 50.4397C11.8293 50.4989 11.6995 50.5856 11.5902 50.6949L6.9925 55.2925C6.84565 55.4393 6.65856 55.5393 6.45487 55.5799C6.25119 55.6204 6.04006 55.5996 5.8482 55.5201C5.65633 55.4406 5.49234 55.306 5.37696 55.1334C5.26159 54.9607 5.20001 54.7577 5.20002 54.55V46.5848L4.02258 47.7623C3.72919 48.0541 3.4966 48.4013 3.33824 48.7836C3.17989 49.1659 3.09892 49.5759 3.10002 49.9897V64H1.00002V49.9897C0.998156 49.3 1.13309 48.6168 1.39702 47.9796C1.66094 47.3424 2.04862 46.7638 2.53761 46.2774L5.20002 43.615V30.4H7.30002V52.0152L10.1052 49.2098C10.2132 49.1021 10.3284 49.002 10.45 48.9101V22H9.40002C8.84327 22.0007 8.30951 22.2221 7.91582 22.6158C7.52214 23.0095 7.30068 23.5432 7.30002 24.1V28.3H5.20002V24.1C5.20127 22.9865 5.64417 21.9189 6.43155 21.1315C7.21893 20.3441 8.28649 19.9012 9.40002 19.9H28.3V22H12.55V48.2531C13.1868 48.2779 13.8025 48.4878 14.3218 48.8571C14.8411 49.2264 15.2414 49.7391 15.4738 50.3325C15.7062 50.9258 15.7606 51.574 15.6303 52.1978C15.4999 52.8215 15.1906 53.3937 14.7401 53.8444L12.55 56.035V59.8ZM58.75 1H35.65C34.2581 1.00156 32.9237 1.55519 31.9394 2.53942C30.9552 3.52364 30.4016 4.85809 30.4 6.25V7.3H32.5V6.25C32.501 5.41486 32.8331 4.61419 33.4237 4.02365C34.0142 3.43311 34.8149 3.10094 35.65 3.1H58.75C59.5852 3.10094 60.3858 3.43311 60.9764 4.02365C61.5669 4.61419 61.8991 5.41486 61.9 6.25V20.95C61.8991 21.7851 61.5669 22.5858 60.9764 23.1763C60.3858 23.7669 59.5852 24.0991 58.75 24.1H51.4C51.1544 24.1 50.9165 24.1861 50.7278 24.3433L46.15 28.1582V25.15C46.15 24.8715 46.0394 24.6044 45.8425 24.4075C45.6456 24.2106 45.3785 24.1 45.1 24.1H35.65C34.8149 24.0991 34.0142 23.7669 33.4237 23.1763C32.8331 22.5858 32.501 21.7851 32.5 20.95V9.4H30.4V20.95C30.4016 22.3419 30.9552 23.6764 31.9394 24.6606C32.9237 25.6448 34.2581 26.1984 35.65 26.2H44.05V30.4C44.05 30.5996 44.1069 30.795 44.214 30.9635C44.321 31.1319 44.4739 31.2663 44.6547 31.351C44.8354 31.4356 45.0365 31.467 45.2345 31.4414C45.4324 31.4159 45.619 31.3344 45.7723 31.2067L51.7806 26.2H58.75C60.1419 26.1984 61.4764 25.6448 62.4606 24.6606C63.4448 23.6764 63.9985 22.3419 64 20.95V6.25C63.9985 4.85809 63.4448 3.52364 62.4606 2.53942C61.4764 1.55519 60.1419 1.00156 58.75 1ZM39.5425 38.4925L35.3425 42.6925C35.663 43.3633 35.736 44.1257 35.5487 44.8452C35.3614 45.5646 34.9257 46.1946 34.3188 46.6239C33.7118 47.0532 32.9726 47.2541 32.2319 47.191C31.4912 47.128 30.7966 46.8051 30.2709 46.2795C29.7452 45.7538 29.4222 45.0592 29.3591 44.3185C29.296 43.5778 29.4969 42.8386 29.9261 42.2316C30.3553 41.6246 30.9853 41.1889 31.7047 41.0015C32.4241 40.8141 33.1866 40.8871 33.8574 41.2075L38.0574 37.0075L39.5425 38.4925ZM33.55 44.05C33.55 43.8423 33.4884 43.6393 33.3731 43.4667C33.2577 43.294 33.0937 43.1594 32.9018 43.0799C32.71 43.0005 32.4989 42.9797 32.2952 43.0202C32.0915 43.0607 31.9044 43.1607 31.7576 43.3075C31.6107 43.4544 31.5107 43.6415 31.4702 43.8452C31.4297 44.0488 31.4505 44.26 31.5299 44.4518C31.6094 44.6437 31.744 44.8077 31.9167 44.923C32.0893 45.0384 32.2923 45.1 32.5 45.1C32.7784 45.0997 33.0453 44.989 33.2421 44.7921C33.439 44.5953 33.5497 44.3284 33.55 44.05ZM14.65 30.4H18.85V28.3H14.65V30.4ZM20.95 24.1H14.65V26.2H20.95V24.1ZM64 52.45V55.6H61.9V52.45C61.9 52.1715 61.7894 51.9044 61.5925 51.7075C61.3956 51.5106 61.1285 51.4 60.85 51.4C60.5715 51.4 60.3045 51.5106 60.1076 51.7075C59.9106 51.9044 59.8 52.1715 59.8 52.45C59.8 52.7285 59.6894 52.9955 59.4925 53.1925C59.2956 53.3894 59.0285 53.5 58.75 53.5C58.4715 53.5 58.2045 53.3894 58.0076 53.1925C57.8106 52.9955 57.7 52.7285 57.7 52.45C57.7 52.1715 57.5894 51.9044 57.3925 51.7075C57.1956 51.5106 56.9285 51.4 56.65 51.4C56.3715 51.4 56.1045 51.5106 55.9076 51.7075C55.7106 51.9044 55.6 52.1715 55.6 52.45C55.6 52.7285 55.4894 52.9955 55.2925 53.1925C55.0956 53.3894 54.8285 53.5 54.55 53.5C54.2715 53.5 54.0045 53.3894 53.8076 53.1925C53.6106 52.9955 53.5 52.7285 53.5 52.45C53.5 52.1715 53.3894 51.9044 53.1925 51.7075C52.9956 51.5106 52.7285 51.4 52.45 51.4C52.1715 51.4 51.9045 51.5106 51.7076 51.7075C51.5106 51.9044 51.4 52.1715 51.4 52.45C51.4 52.7285 51.2894 52.9955 51.0925 53.1925C50.8956 53.3894 50.6285 53.5 50.35 53.5C50.0715 53.5 49.8045 53.3894 49.6076 53.1925C49.4106 52.9955 49.3 52.7285 49.3 52.45V44.05C49.3 43.7715 49.1894 43.5044 48.9925 43.3075C48.7956 43.1106 48.5285 43 48.25 43C47.9715 43 47.7045 43.1106 47.5076 43.3075C47.3106 43.5044 47.2 43.7715 47.2 44.05V55.6C47.2 55.8077 47.1385 56.0107 47.0231 56.1834C46.9077 56.356 46.7437 56.4906 46.5518 56.5701C46.36 56.6496 46.1488 56.6704 45.9452 56.6299C45.7415 56.5893 45.5544 56.4893 45.4075 56.3425L42.91 53.8449C42.7453 53.6802 42.5355 53.568 42.3071 53.5226C42.0787 53.4771 41.842 53.5004 41.6268 53.5895C41.4116 53.6787 41.2277 53.8296 41.0984 54.0232C40.969 54.2169 40.9 54.4446 40.9 54.6774V54.7761C40.9001 55.0572 41.0007 55.329 41.1835 55.5424L46.633 61.9H61.9V57.7H64V62.95C64 63.2285 63.8894 63.4955 63.6925 63.6925C63.4956 63.8894 63.2285 64 62.95 64H46.15C45.9986 64 45.8489 63.9672 45.7113 63.9039C45.5737 63.8406 45.4514 63.7483 45.3528 63.6333L43.8671 61.9H38.8V59.8H42.0671L39.589 56.909C39.0801 56.3148 38.8003 55.5584 38.8 54.7761V54.6774C38.7994 53.8633 39.103 53.0783 39.6512 52.4764C39.6061 52.3001 39.6076 52.1152 39.6556 51.9397C39.7036 51.7642 39.7964 51.6042 39.925 51.4755C41.8925 49.5074 42.9985 46.8389 43 44.056C43.0016 41.2731 41.8986 38.6033 39.9332 36.6331C39.9305 36.6304 39.9275 36.6281 39.9247 36.6255C38.9501 35.6485 37.7925 34.8732 36.5181 34.3439C35.2437 33.8146 33.8774 33.5418 32.4974 33.5409C31.1175 33.54 29.7509 33.8112 28.4758 34.3389C27.2007 34.8666 26.0422 35.6404 25.0664 36.6162C24.0906 37.592 23.3167 38.7505 22.789 40.0256C22.2613 41.3007 21.9901 42.6673 21.9909 44.0472C21.9918 45.4272 22.2646 46.7935 22.7938 48.0679C23.3231 49.3423 24.0984 50.5 25.0753 51.4745C25.1728 51.572 25.2502 51.6878 25.303 51.8152C25.3557 51.9426 25.3829 52.0791 25.3829 52.217C25.3829 52.3549 25.3557 52.4915 25.303 52.6189C25.2502 52.7463 25.1728 52.862 25.0753 52.9595L22.1055 55.9296C22.008 56.0271 21.8923 56.1044 21.7649 56.1572C21.6375 56.21 21.501 56.2371 21.3631 56.2371C21.2252 56.2371 21.0886 56.21 20.9612 56.1572C20.8338 56.1044 20.7181 56.0271 20.6206 55.9296C17.4699 52.779 15.6999 48.5058 15.6998 44.0501C15.6998 39.5945 17.4698 35.3213 20.6204 32.1706C23.771 29.02 28.0441 27.2499 32.4998 27.2499C36.9555 27.2499 41.2287 29.0198 44.3793 32.1704C44.384 32.1752 44.388 32.1803 44.3925 32.1851C46.785 34.5904 48.3976 37.6605 49.0199 40.9955C49.6996 41.1679 50.3026 41.5617 50.7336 42.1148C51.1646 42.6679 51.3991 43.3488 51.4 44.05V49.4799C52.0795 49.2389 52.8213 49.2401 53.5 49.4831V28.3H55.6V49.4837C56.1322 49.2933 56.7061 49.2504 57.2607 49.3598C57.8152 49.4691 58.3299 49.7265 58.75 50.1047V28.1674H60.85V49.3C61.6852 49.301 62.4858 49.6332 63.0763 50.2237C63.6669 50.8142 63.999 51.6149 64 52.45ZM32.5 31.45C35.4808 31.4413 38.3666 32.4974 40.6375 34.4282L40.8957 34.17L42.1267 32.9389C39.3173 30.5044 35.6898 29.2246 31.9747 29.3572C28.2596 29.4898 24.7326 31.025 22.104 33.6537C19.4753 36.2824 17.9401 39.8093 17.8075 43.5244C17.6749 47.2396 18.9546 50.867 21.3892 53.6764L22.8782 52.1875C21.3268 50.3528 20.3323 48.1128 20.0119 45.7315C19.6915 43.3503 20.0586 40.9271 21.0699 38.7475C22.0811 36.568 23.6944 34.723 25.7196 33.4301C27.7447 32.1371 30.0973 31.4501 32.5 31.45ZM44.3948 52.3598L44.5312 52.4962C44.7316 52.2109 44.9205 51.9176 45.1 51.6193V44.05C45.1006 43.4503 45.2722 42.8633 45.5947 42.3576C45.9171 41.852 46.377 41.4488 46.9205 41.1953C46.4202 38.6905 45.2796 36.3581 43.6097 34.4253L42.142 35.8928L42.1222 35.9128C43.9422 38.0668 44.9876 40.7686 45.0915 43.5867C45.1953 46.4047 44.3515 49.1762 42.695 51.4583C43.3395 51.5806 43.932 51.8948 44.3948 52.3598ZM31.45 55.6H33.55V53.5H31.45V55.6ZM27.25 53.5V55.6H29.35V53.5H27.25ZM35.65 55.6H37.75V53.5H35.65V55.6ZM34.6 5.2V20.95C34.6 21.2285 34.7106 21.4955 34.9076 21.6925C35.1045 21.8894 35.3715 22 35.65 22H58.75V19.9H36.7V18.2233C37.3027 17.634 38.9244 16.2262 41.1546 15.6686C43.0163 15.2035 45.4292 15.7581 48.223 16.4005C51.2579 17.0983 54.6974 17.8903 58.7731 17.7997L58.7269 15.6997C54.9124 15.782 51.609 15.0237 48.6936 14.3534C45.6363 13.6504 42.9959 13.043 40.6454 13.6315C39.6808 13.8771 38.7531 14.2498 37.8866 14.7398C39.3204 13.4766 41.9528 11.9616 46.0016 12.5396C53.3411 13.5879 58.5327 13.6 58.75 13.6V11.5C58.6982 11.5 53.4793 11.4869 46.2983 10.4605C41.6271 9.79375 38.5077 11.4509 36.7 12.9797V5.2H34.6ZM40.9 5.2H38.8V7.3H40.9V5.2ZM47.2 5.2H43V7.3H47.2V5.2Z"/>
</mask>
<path d="M12.55 59.8H36.7V61.9H12.1169C11.9618 62.3725 11.7549 62.8264 11.5 63.2534V64H9.40002V62.95C9.40002 62.7427 9.4614 62.54 9.57642 62.3675C10.0848 61.6078 10.3562 60.7142 10.3562 59.8C10.3562 58.8858 10.0848 57.9922 9.57642 57.2325C9.44176 57.0305 9.38125 56.7881 9.40518 56.5465C9.42911 56.305 9.536 56.0792 9.70767 55.9075L13.2554 52.3598C13.3647 52.2505 13.4514 52.1207 13.5105 51.9778C13.5697 51.835 13.6001 51.6819 13.6001 51.5273C13.6001 51.3727 13.5697 51.2196 13.5105 51.0767C13.4513 50.9339 13.3646 50.8041 13.2552 50.6948C13.1459 50.5855 13.0161 50.4988 12.8732 50.4396C12.7304 50.3804 12.5773 50.35 12.4227 50.35C12.2681 50.35 12.115 50.3805 11.9721 50.4397C11.8293 50.4989 11.6995 50.5856 11.5902 50.6949L6.9925 55.2925C6.84565 55.4393 6.65856 55.5393 6.45487 55.5799C6.25119 55.6204 6.04006 55.5996 5.8482 55.5201C5.65633 55.4406 5.49234 55.306 5.37696 55.1334C5.26159 54.9607 5.20001 54.7577 5.20002 54.55V46.5848L4.02258 47.7623C3.72919 48.0541 3.4966 48.4013 3.33824 48.7836C3.17989 49.1659 3.09892 49.5759 3.10002 49.9897V64H1.00002V49.9897C0.998156 49.3 1.13309 48.6168 1.39702 47.9796C1.66094 47.3424 2.04862 46.7638 2.53761 46.2774L5.20002 43.615V30.4H7.30002V52.0152L10.1052 49.2098C10.2132 49.1021 10.3284 49.002 10.45 48.9101V22H9.40002C8.84327 22.0007 8.30951 22.2221 7.91582 22.6158C7.52214 23.0095 7.30068 23.5432 7.30002 24.1V28.3H5.20002V24.1C5.20127 22.9865 5.64417 21.9189 6.43155 21.1315C7.21893 20.3441 8.28649 19.9012 9.40002 19.9H28.3V22H12.55V48.2531C13.1868 48.2779 13.8025 48.4878 14.3218 48.8571C14.8411 49.2264 15.2414 49.7391 15.4738 50.3325C15.7062 50.9258 15.7606 51.574 15.6303 52.1978C15.4999 52.8215 15.1906 53.3937 14.7401 53.8444L12.55 56.035V59.8ZM58.75 1H35.65C34.2581 1.00156 32.9237 1.55519 31.9394 2.53942C30.9552 3.52364 30.4016 4.85809 30.4 6.25V7.3H32.5V6.25C32.501 5.41486 32.8331 4.61419 33.4237 4.02365C34.0142 3.43311 34.8149 3.10094 35.65 3.1H58.75C59.5852 3.10094 60.3858 3.43311 60.9764 4.02365C61.5669 4.61419 61.8991 5.41486 61.9 6.25V20.95C61.8991 21.7851 61.5669 22.5858 60.9764 23.1763C60.3858 23.7669 59.5852 24.0991 58.75 24.1H51.4C51.1544 24.1 50.9165 24.1861 50.7278 24.3433L46.15 28.1582V25.15C46.15 24.8715 46.0394 24.6044 45.8425 24.4075C45.6456 24.2106 45.3785 24.1 45.1 24.1H35.65C34.8149 24.0991 34.0142 23.7669 33.4237 23.1763C32.8331 22.5858 32.501 21.7851 32.5 20.95V9.4H30.4V20.95C30.4016 22.3419 30.9552 23.6764 31.9394 24.6606C32.9237 25.6448 34.2581 26.1984 35.65 26.2H44.05V30.4C44.05 30.5996 44.1069 30.795 44.214 30.9635C44.321 31.1319 44.4739 31.2663 44.6547 31.351C44.8354 31.4356 45.0365 31.467 45.2345 31.4414C45.4324 31.4159 45.619 31.3344 45.7723 31.2067L51.7806 26.2H58.75C60.1419 26.1984 61.4764 25.6448 62.4606 24.6606C63.4448 23.6764 63.9985 22.3419 64 20.95V6.25C63.9985 4.85809 63.4448 3.52364 62.4606 2.53942C61.4764 1.55519 60.1419 1.00156 58.75 1ZM39.5425 38.4925L35.3425 42.6925C35.663 43.3633 35.736 44.1257 35.5487 44.8452C35.3614 45.5646 34.9257 46.1946 34.3188 46.6239C33.7118 47.0532 32.9726 47.2541 32.2319 47.191C31.4912 47.128 30.7966 46.8051 30.2709 46.2795C29.7452 45.7538 29.4222 45.0592 29.3591 44.3185C29.296 43.5778 29.4969 42.8386 29.9261 42.2316C30.3553 41.6246 30.9853 41.1889 31.7047 41.0015C32.4241 40.8141 33.1866 40.8871 33.8574 41.2075L38.0574 37.0075L39.5425 38.4925ZM33.55 44.05C33.55 43.8423 33.4884 43.6393 33.3731 43.4667C33.2577 43.294 33.0937 43.1594 32.9018 43.0799C32.71 43.0005 32.4989 42.9797 32.2952 43.0202C32.0915 43.0607 31.9044 43.1607 31.7576 43.3075C31.6107 43.4544 31.5107 43.6415 31.4702 43.8452C31.4297 44.0488 31.4505 44.26 31.5299 44.4518C31.6094 44.6437 31.744 44.8077 31.9167 44.923C32.0893 45.0384 32.2923 45.1 32.5 45.1C32.7784 45.0997 33.0453 44.989 33.2421 44.7921C33.439 44.5953 33.5497 44.3284 33.55 44.05ZM14.65 30.4H18.85V28.3H14.65V30.4ZM20.95 24.1H14.65V26.2H20.95V24.1ZM64 52.45V55.6H61.9V52.45C61.9 52.1715 61.7894 51.9044 61.5925 51.7075C61.3956 51.5106 61.1285 51.4 60.85 51.4C60.5715 51.4 60.3045 51.5106 60.1076 51.7075C59.9106 51.9044 59.8 52.1715 59.8 52.45C59.8 52.7285 59.6894 52.9955 59.4925 53.1925C59.2956 53.3894 59.0285 53.5 58.75 53.5C58.4715 53.5 58.2045 53.3894 58.0076 53.1925C57.8106 52.9955 57.7 52.7285 57.7 52.45C57.7 52.1715 57.5894 51.9044 57.3925 51.7075C57.1956 51.5106 56.9285 51.4 56.65 51.4C56.3715 51.4 56.1045 51.5106 55.9076 51.7075C55.7106 51.9044 55.6 52.1715 55.6 52.45C55.6 52.7285 55.4894 52.9955 55.2925 53.1925C55.0956 53.3894 54.8285 53.5 54.55 53.5C54.2715 53.5 54.0045 53.3894 53.8076 53.1925C53.6106 52.9955 53.5 52.7285 53.5 52.45C53.5 52.1715 53.3894 51.9044 53.1925 51.7075C52.9956 51.5106 52.7285 51.4 52.45 51.4C52.1715 51.4 51.9045 51.5106 51.7076 51.7075C51.5106 51.9044 51.4 52.1715 51.4 52.45C51.4 52.7285 51.2894 52.9955 51.0925 53.1925C50.8956 53.3894 50.6285 53.5 50.35 53.5C50.0715 53.5 49.8045 53.3894 49.6076 53.1925C49.4106 52.9955 49.3 52.7285 49.3 52.45V44.05C49.3 43.7715 49.1894 43.5044 48.9925 43.3075C48.7956 43.1106 48.5285 43 48.25 43C47.9715 43 47.7045 43.1106 47.5076 43.3075C47.3106 43.5044 47.2 43.7715 47.2 44.05V55.6C47.2 55.8077 47.1385 56.0107 47.0231 56.1834C46.9077 56.356 46.7437 56.4906 46.5518 56.5701C46.36 56.6496 46.1488 56.6704 45.9452 56.6299C45.7415 56.5893 45.5544 56.4893 45.4075 56.3425L42.91 53.8449C42.7453 53.6802 42.5355 53.568 42.3071 53.5226C42.0787 53.4771 41.842 53.5004 41.6268 53.5895C41.4116 53.6787 41.2277 53.8296 41.0984 54.0232C40.969 54.2169 40.9 54.4446 40.9 54.6774V54.7761C40.9001 55.0572 41.0007 55.329 41.1835 55.5424L46.633 61.9H61.9V57.7H64V62.95C64 63.2285 63.8894 63.4955 63.6925 63.6925C63.4956 63.8894 63.2285 64 62.95 64H46.15C45.9986 64 45.8489 63.9672 45.7113 63.9039C45.5737 63.8406 45.4514 63.7483 45.3528 63.6333L43.8671 61.9H38.8V59.8H42.0671L39.589 56.909C39.0801 56.3148 38.8003 55.5584 38.8 54.7761V54.6774C38.7994 53.8633 39.103 53.0783 39.6512 52.4764C39.6061 52.3001 39.6076 52.1152 39.6556 51.9397C39.7036 51.7642 39.7964 51.6042 39.925 51.4755C41.8925 49.5074 42.9985 46.8389 43 44.056C43.0016 41.2731 41.8986 38.6033 39.9332 36.6331C39.9305 36.6304 39.9275 36.6281 39.9247 36.6255C38.9501 35.6485 37.7925 34.8732 36.5181 34.3439C35.2437 33.8146 33.8774 33.5418 32.4974 33.5409C31.1175 33.54 29.7509 33.8112 28.4758 34.3389C27.2007 34.8666 26.0422 35.6404 25.0664 36.6162C24.0906 37.592 23.3167 38.7505 22.789 40.0256C22.2613 41.3007 21.9901 42.6673 21.9909 44.0472C21.9918 45.4272 22.2646 46.7935 22.7938 48.0679C23.3231 49.3423 24.0984 50.5 25.0753 51.4745C25.1728 51.572 25.2502 51.6878 25.303 51.8152C25.3557 51.9426 25.3829 52.0791 25.3829 52.217C25.3829 52.3549 25.3557 52.4915 25.303 52.6189C25.2502 52.7463 25.1728 52.862 25.0753 52.9595L22.1055 55.9296C22.008 56.0271 21.8923 56.1044 21.7649 56.1572C21.6375 56.21 21.501 56.2371 21.3631 56.2371C21.2252 56.2371 21.0886 56.21 20.9612 56.1572C20.8338 56.1044 20.7181 56.0271 20.6206 55.9296C17.4699 52.779 15.6999 48.5058 15.6998 44.0501C15.6998 39.5945 17.4698 35.3213 20.6204 32.1706C23.771 29.02 28.0441 27.2499 32.4998 27.2499C36.9555 27.2499 41.2287 29.0198 44.3793 32.1704C44.384 32.1752 44.388 32.1803 44.3925 32.1851C46.785 34.5904 48.3976 37.6605 49.0199 40.9955C49.6996 41.1679 50.3026 41.5617 50.7336 42.1148C51.1646 42.6679 51.3991 43.3488 51.4 44.05V49.4799C52.0795 49.2389 52.8213 49.2401 53.5 49.4831V28.3H55.6V49.4837C56.1322 49.2933 56.7061 49.2504 57.2607 49.3598C57.8152 49.4691 58.3299 49.7265 58.75 50.1047V28.1674H60.85V49.3C61.6852 49.301 62.4858 49.6332 63.0763 50.2237C63.6669 50.8142 63.999 51.6149 64 52.45ZM32.5 31.45C35.4808 31.4413 38.3666 32.4974 40.6375 34.4282L40.8957 34.17L42.1267 32.9389C39.3173 30.5044 35.6898 29.2246 31.9747 29.3572C28.2596 29.4898 24.7326 31.025 22.104 33.6537C19.4753 36.2824 17.9401 39.8093 17.8075 43.5244C17.6749 47.2396 18.9546 50.867 21.3892 53.6764L22.8782 52.1875C21.3268 50.3528 20.3323 48.1128 20.0119 45.7315C19.6915 43.3503 20.0586 40.9271 21.0699 38.7475C22.0811 36.568 23.6944 34.723 25.7196 33.4301C27.7447 32.1371 30.0973 31.4501 32.5 31.45ZM44.3948 52.3598L44.5312 52.4962C44.7316 52.2109 44.9205 51.9176 45.1 51.6193V44.05C45.1006 43.4503 45.2722 42.8633 45.5947 42.3576C45.9171 41.852 46.377 41.4488 46.9205 41.1953C46.4202 38.6905 45.2796 36.3581 43.6097 34.4253L42.142 35.8928L42.1222 35.9128C43.9422 38.0668 44.9876 40.7686 45.0915 43.5867C45.1953 46.4047 44.3515 49.1762 42.695 51.4583C43.3395 51.5806 43.932 51.8948 44.3948 52.3598ZM31.45 55.6H33.55V53.5H31.45V55.6ZM27.25 53.5V55.6H29.35V53.5H27.25ZM35.65 55.6H37.75V53.5H35.65V55.6ZM34.6 5.2V20.95C34.6 21.2285 34.7106 21.4955 34.9076 21.6925C35.1045 21.8894 35.3715 22 35.65 22H58.75V19.9H36.7V18.2233C37.3027 17.634 38.9244 16.2262 41.1546 15.6686C43.0163 15.2035 45.4292 15.7581 48.223 16.4005C51.2579 17.0983 54.6974 17.8903 58.7731 17.7997L58.7269 15.6997C54.9124 15.782 51.609 15.0237 48.6936 14.3534C45.6363 13.6504 42.9959 13.043 40.6454 13.6315C39.6808 13.8771 38.7531 14.2498 37.8866 14.7398C39.3204 13.4766 41.9528 11.9616 46.0016 12.5396C53.3411 13.5879 58.5327 13.6 58.75 13.6V11.5C58.6982 11.5 53.4793 11.4869 46.2983 10.4605C41.6271 9.79375 38.5077 11.4509 36.7 12.9797V5.2H34.6ZM40.9 5.2H38.8V7.3H40.9V5.2ZM47.2 5.2H43V7.3H47.2V5.2Z" fill="#2468EB"/>
<path d="M12.55 59.8H36.7V61.9H12.1169C11.9618 62.3725 11.7549 62.8264 11.5 63.2534V64H9.40002V62.95C9.40002 62.7427 9.4614 62.54 9.57642 62.3675C10.0848 61.6078 10.3562 60.7142 10.3562 59.8C10.3562 58.8858 10.0848 57.9922 9.57642 57.2325C9.44176 57.0305 9.38125 56.7881 9.40518 56.5465C9.42911 56.305 9.536 56.0792 9.70767 55.9075L13.2554 52.3598C13.3647 52.2505 13.4514 52.1207 13.5105 51.9778C13.5697 51.835 13.6001 51.6819 13.6001 51.5273C13.6001 51.3727 13.5697 51.2196 13.5105 51.0767C13.4513 50.9339 13.3646 50.8041 13.2552 50.6948C13.1459 50.5855 13.0161 50.4988 12.8732 50.4396C12.7304 50.3804 12.5773 50.35 12.4227 50.35C12.2681 50.35 12.115 50.3805 11.9721 50.4397C11.8293 50.4989 11.6995 50.5856 11.5902 50.6949L6.9925 55.2925C6.84565 55.4393 6.65856 55.5393 6.45487 55.5799C6.25119 55.6204 6.04006 55.5996 5.8482 55.5201C5.65633 55.4406 5.49234 55.306 5.37696 55.1334C5.26159 54.9607 5.20001 54.7577 5.20002 54.55V46.5848L4.02258 47.7623C3.72919 48.0541 3.4966 48.4013 3.33824 48.7836C3.17989 49.1659 3.09892 49.5759 3.10002 49.9897V64H1.00002V49.9897C0.998156 49.3 1.13309 48.6168 1.39702 47.9796C1.66094 47.3424 2.04862 46.7638 2.53761 46.2774L5.20002 43.615V30.4H7.30002V52.0152L10.1052 49.2098C10.2132 49.1021 10.3284 49.002 10.45 48.9101V22H9.40002C8.84327 22.0007 8.30951 22.2221 7.91582 22.6158C7.52214 23.0095 7.30068 23.5432 7.30002 24.1V28.3H5.20002V24.1C5.20127 22.9865 5.64417 21.9189 6.43155 21.1315C7.21893 20.3441 8.28649 19.9012 9.40002 19.9H28.3V22H12.55V48.2531C13.1868 48.2779 13.8025 48.4878 14.3218 48.8571C14.8411 49.2264 15.2414 49.7391 15.4738 50.3325C15.7062 50.9258 15.7606 51.574 15.6303 52.1978C15.4999 52.8215 15.1906 53.3937 14.7401 53.8444L12.55 56.035V59.8ZM58.75 1H35.65C34.2581 1.00156 32.9237 1.55519 31.9394 2.53942C30.9552 3.52364 30.4016 4.85809 30.4 6.25V7.3H32.5V6.25C32.501 5.41486 32.8331 4.61419 33.4237 4.02365C34.0142 3.43311 34.8149 3.10094 35.65 3.1H58.75C59.5852 3.10094 60.3858 3.43311 60.9764 4.02365C61.5669 4.61419 61.8991 5.41486 61.9 6.25V20.95C61.8991 21.7851 61.5669 22.5858 60.9764 23.1763C60.3858 23.7669 59.5852 24.0991 58.75 24.1H51.4C51.1544 24.1 50.9165 24.1861 50.7278 24.3433L46.15 28.1582V25.15C46.15 24.8715 46.0394 24.6044 45.8425 24.4075C45.6456 24.2106 45.3785 24.1 45.1 24.1H35.65C34.8149 24.0991 34.0142 23.7669 33.4237 23.1763C32.8331 22.5858 32.501 21.7851 32.5 20.95V9.4H30.4V20.95C30.4016 22.3419 30.9552 23.6764 31.9394 24.6606C32.9237 25.6448 34.2581 26.1984 35.65 26.2H44.05V30.4C44.05 30.5996 44.1069 30.795 44.214 30.9635C44.321 31.1319 44.4739 31.2663 44.6547 31.351C44.8354 31.4356 45.0365 31.467 45.2345 31.4414C45.4324 31.4159 45.619 31.3344 45.7723 31.2067L51.7806 26.2H58.75C60.1419 26.1984 61.4764 25.6448 62.4606 24.6606C63.4448 23.6764 63.9985 22.3419 64 20.95V6.25C63.9985 4.85809 63.4448 3.52364 62.4606 2.53942C61.4764 1.55519 60.1419 1.00156 58.75 1ZM39.5425 38.4925L35.3425 42.6925C35.663 43.3633 35.736 44.1257 35.5487 44.8452C35.3614 45.5646 34.9257 46.1946 34.3188 46.6239C33.7118 47.0532 32.9726 47.2541 32.2319 47.191C31.4912 47.128 30.7966 46.8051 30.2709 46.2795C29.7452 45.7538 29.4222 45.0592 29.3591 44.3185C29.296 43.5778 29.4969 42.8386 29.9261 42.2316C30.3553 41.6246 30.9853 41.1889 31.7047 41.0015C32.4241 40.8141 33.1866 40.8871 33.8574 41.2075L38.0574 37.0075L39.5425 38.4925ZM33.55 44.05C33.55 43.8423 33.4884 43.6393 33.3731 43.4667C33.2577 43.294 33.0937 43.1594 32.9018 43.0799C32.71 43.0005 32.4989 42.9797 32.2952 43.0202C32.0915 43.0607 31.9044 43.1607 31.7576 43.3075C31.6107 43.4544 31.5107 43.6415 31.4702 43.8452C31.4297 44.0488 31.4505 44.26 31.5299 44.4518C31.6094 44.6437 31.744 44.8077 31.9167 44.923C32.0893 45.0384 32.2923 45.1 32.5 45.1C32.7784 45.0997 33.0453 44.989 33.2421 44.7921C33.439 44.5953 33.5497 44.3284 33.55 44.05ZM14.65 30.4H18.85V28.3H14.65V30.4ZM20.95 24.1H14.65V26.2H20.95V24.1ZM64 52.45V55.6H61.9V52.45C61.9 52.1715 61.7894 51.9044 61.5925 51.7075C61.3956 51.5106 61.1285 51.4 60.85 51.4C60.5715 51.4 60.3045 51.5106 60.1076 51.7075C59.9106 51.9044 59.8 52.1715 59.8 52.45C59.8 52.7285 59.6894 52.9955 59.4925 53.1925C59.2956 53.3894 59.0285 53.5 58.75 53.5C58.4715 53.5 58.2045 53.3894 58.0076 53.1925C57.8106 52.9955 57.7 52.7285 57.7 52.45C57.7 52.1715 57.5894 51.9044 57.3925 51.7075C57.1956 51.5106 56.9285 51.4 56.65 51.4C56.3715 51.4 56.1045 51.5106 55.9076 51.7075C55.7106 51.9044 55.6 52.1715 55.6 52.45C55.6 52.7285 55.4894 52.9955 55.2925 53.1925C55.0956 53.3894 54.8285 53.5 54.55 53.5C54.2715 53.5 54.0045 53.3894 53.8076 53.1925C53.6106 52.9955 53.5 52.7285 53.5 52.45C53.5 52.1715 53.3894 51.9044 53.1925 51.7075C52.9956 51.5106 52.7285 51.4 52.45 51.4C52.1715 51.4 51.9045 51.5106 51.7076 51.7075C51.5106 51.9044 51.4 52.1715 51.4 52.45C51.4 52.7285 51.2894 52.9955 51.0925 53.1925C50.8956 53.3894 50.6285 53.5 50.35 53.5C50.0715 53.5 49.8045 53.3894 49.6076 53.1925C49.4106 52.9955 49.3 52.7285 49.3 52.45V44.05C49.3 43.7715 49.1894 43.5044 48.9925 43.3075C48.7956 43.1106 48.5285 43 48.25 43C47.9715 43 47.7045 43.1106 47.5076 43.3075C47.3106 43.5044 47.2 43.7715 47.2 44.05V55.6C47.2 55.8077 47.1385 56.0107 47.0231 56.1834C46.9077 56.356 46.7437 56.4906 46.5518 56.5701C46.36 56.6496 46.1488 56.6704 45.9452 56.6299C45.7415 56.5893 45.5544 56.4893 45.4075 56.3425L42.91 53.8449C42.7453 53.6802 42.5355 53.568 42.3071 53.5226C42.0787 53.4771 41.842 53.5004 41.6268 53.5895C41.4116 53.6787 41.2277 53.8296 41.0984 54.0232C40.969 54.2169 40.9 54.4446 40.9 54.6774V54.7761C40.9001 55.0572 41.0007 55.329 41.1835 55.5424L46.633 61.9H61.9V57.7H64V62.95C64 63.2285 63.8894 63.4955 63.6925 63.6925C63.4956 63.8894 63.2285 64 62.95 64H46.15C45.9986 64 45.8489 63.9672 45.7113 63.9039C45.5737 63.8406 45.4514 63.7483 45.3528 63.6333L43.8671 61.9H38.8V59.8H42.0671L39.589 56.909C39.0801 56.3148 38.8003 55.5584 38.8 54.7761V54.6774C38.7994 53.8633 39.103 53.0783 39.6512 52.4764C39.6061 52.3001 39.6076 52.1152 39.6556 51.9397C39.7036 51.7642 39.7964 51.6042 39.925 51.4755C41.8925 49.5074 42.9985 46.8389 43 44.056C43.0016 41.2731 41.8986 38.6033 39.9332 36.6331C39.9305 36.6304 39.9275 36.6281 39.9247 36.6255C38.9501 35.6485 37.7925 34.8732 36.5181 34.3439C35.2437 33.8146 33.8774 33.5418 32.4974 33.5409C31.1175 33.54 29.7509 33.8112 28.4758 34.3389C27.2007 34.8666 26.0422 35.6404 25.0664 36.6162C24.0906 37.592 23.3167 38.7505 22.789 40.0256C22.2613 41.3007 21.9901 42.6673 21.9909 44.0472C21.9918 45.4272 22.2646 46.7935 22.7938 48.0679C23.3231 49.3423 24.0984 50.5 25.0753 51.4745C25.1728 51.572 25.2502 51.6878 25.303 51.8152C25.3557 51.9426 25.3829 52.0791 25.3829 52.217C25.3829 52.3549 25.3557 52.4915 25.303 52.6189C25.2502 52.7463 25.1728 52.862 25.0753 52.9595L22.1055 55.9296C22.008 56.0271 21.8923 56.1044 21.7649 56.1572C21.6375 56.21 21.501 56.2371 21.3631 56.2371C21.2252 56.2371 21.0886 56.21 20.9612 56.1572C20.8338 56.1044 20.7181 56.0271 20.6206 55.9296C17.4699 52.779 15.6999 48.5058 15.6998 44.0501C15.6998 39.5945 17.4698 35.3213 20.6204 32.1706C23.771 29.02 28.0441 27.2499 32.4998 27.2499C36.9555 27.2499 41.2287 29.0198 44.3793 32.1704C44.384 32.1752 44.388 32.1803 44.3925 32.1851C46.785 34.5904 48.3976 37.6605 49.0199 40.9955C49.6996 41.1679 50.3026 41.5617 50.7336 42.1148C51.1646 42.6679 51.3991 43.3488 51.4 44.05V49.4799C52.0795 49.2389 52.8213 49.2401 53.5 49.4831V28.3H55.6V49.4837C56.1322 49.2933 56.7061 49.2504 57.2607 49.3598C57.8152 49.4691 58.3299 49.7265 58.75 50.1047V28.1674H60.85V49.3C61.6852 49.301 62.4858 49.6332 63.0763 50.2237C63.6669 50.8142 63.999 51.6149 64 52.45ZM32.5 31.45C35.4808 31.4413 38.3666 32.4974 40.6375 34.4282L40.8957 34.17L42.1267 32.9389C39.3173 30.5044 35.6898 29.2246 31.9747 29.3572C28.2596 29.4898 24.7326 31.025 22.104 33.6537C19.4753 36.2824 17.9401 39.8093 17.8075 43.5244C17.6749 47.2396 18.9546 50.867 21.3892 53.6764L22.8782 52.1875C21.3268 50.3528 20.3323 48.1128 20.0119 45.7315C19.6915 43.3503 20.0586 40.9271 21.0699 38.7475C22.0811 36.568 23.6944 34.723 25.7196 33.4301C27.7447 32.1371 30.0973 31.4501 32.5 31.45ZM44.3948 52.3598L44.5312 52.4962C44.7316 52.2109 44.9205 51.9176 45.1 51.6193V44.05C45.1006 43.4503 45.2722 42.8633 45.5947 42.3576C45.9171 41.852 46.377 41.4488 46.9205 41.1953C46.4202 38.6905 45.2796 36.3581 43.6097 34.4253L42.142 35.8928L42.1222 35.9128C43.9422 38.0668 44.9876 40.7686 45.0915 43.5867C45.1953 46.4047 44.3515 49.1762 42.695 51.4583C43.3395 51.5806 43.932 51.8948 44.3948 52.3598ZM31.45 55.6H33.55V53.5H31.45V55.6ZM27.25 53.5V55.6H29.35V53.5H27.25ZM35.65 55.6H37.75V53.5H35.65V55.6ZM34.6 5.2V20.95C34.6 21.2285 34.7106 21.4955 34.9076 21.6925C35.1045 21.8894 35.3715 22 35.65 22H58.75V19.9H36.7V18.2233C37.3027 17.634 38.9244 16.2262 41.1546 15.6686C43.0163 15.2035 45.4292 15.7581 48.223 16.4005C51.2579 17.0983 54.6974 17.8903 58.7731 17.7997L58.7269 15.6997C54.9124 15.782 51.609 15.0237 48.6936 14.3534C45.6363 13.6504 42.9959 13.043 40.6454 13.6315C39.6808 13.8771 38.7531 14.2498 37.8866 14.7398C39.3204 13.4766 41.9528 11.9616 46.0016 12.5396C53.3411 13.5879 58.5327 13.6 58.75 13.6V11.5C58.6982 11.5 53.4793 11.4869 46.2983 10.4605C41.6271 9.79375 38.5077 11.4509 36.7 12.9797V5.2H34.6ZM40.9 5.2H38.8V7.3H40.9V5.2ZM47.2 5.2H43V7.3H47.2V5.2Z" stroke="#2468EB" stroke-width="0.2" mask="url(#path-1-outside-1)"/>
</svg>
