<svg width="57" height="63" viewBox="0 0 57 63" fill="none" xmlns="http://www.w3.org/2000/svg">
<path d="M56.433 19.6295C56.433 18.4034 55.9556 17.2507 55.0886 16.384L48.9992 10.2946C48.1322 9.42762 46.9796 8.9502 45.7536 8.9502C44.5276 8.9502 43.3748 9.42762 42.5079 10.2946L39.3807 13.4217L38.5402 12.5786V10.459C38.5402 8.56519 37.1527 6.98994 35.341 6.69487V2.89714C35.341 1.29975 34.0414 0 32.4438 0H23.9649C22.3674 0 21.0675 1.29975 21.0675 2.89714V6.70275C19.2777 7.01615 17.9126 8.58069 17.9126 10.459V12.5776L17.0593 13.431L13.9228 10.2945C13.0558 9.42762 11.9031 8.95008 10.677 8.95008C9.451 8.95008 8.29842 9.4275 7.43143 10.2945L1.3422 16.3837C-0.447399 18.1733 -0.447399 21.0852 1.3422 22.875L4.47855 26.0113L3.70913 26.7807C3.32953 27.1603 3.23995 27.7421 3.4874 28.2184L4.86897 30.8758L1.52898 36.7812C1.33346 37.1269 1.31673 37.5456 1.48419 37.9058L8.12874 52.1984C8.33066 52.6325 8.76588 52.9101 9.24453 52.9101H13.8899V55.125C13.8899 55.8046 14.4409 56.3555 15.1204 56.3555H17.007V58.4473C17.007 60.9577 19.0493 63 21.5597 63H34.8488C37.3592 63 39.4015 60.9577 39.4015 58.4473V56.3555H41.2882C41.9677 56.3555 42.5187 55.8046 42.5187 55.125V52.9101H47.1641C47.6429 52.9101 48.0781 52.6325 48.2799 52.1984L54.9244 37.9058C55.0918 37.5456 55.0751 37.1269 54.8796 36.7812L51.5395 30.8761L52.9211 28.2186C53.1683 27.7429 53.0792 27.162 52.7007 26.7823L51.9421 26.0215L55.0884 22.8752C55.9556 22.0082 56.433 20.8555 56.433 19.6295ZM23.5285 2.89714C23.5285 2.65659 23.7242 2.46094 23.9648 2.46094H32.4437C32.6843 2.46094 32.88 2.65659 32.88 2.89714V6.64454H23.5285V2.89714ZM20.3735 10.459C20.3735 9.71272 20.9806 9.10549 21.727 9.10549H34.7259C35.4721 9.10549 36.0794 9.71272 36.0794 10.459V11.8568H20.3735V10.459ZM3.08245 21.1351C2.25238 20.3049 2.25238 18.9542 3.08245 18.1241L9.17169 12.0347C9.5738 11.6326 10.1084 11.4111 10.677 11.4111C11.2458 11.4111 11.7805 11.6326 12.1825 12.0347L15.319 15.1711L6.2188 24.2713L3.08245 21.1351ZM13.8898 50.4493H10.0293L3.98254 37.4421L6.22323 33.4807L13.8899 48.2276V50.4493H13.8898ZM36.9406 58.4474C36.9406 59.6008 36.0022 60.5392 34.8488 60.5392H21.5597C20.4063 60.5392 19.4679 59.6008 19.4679 58.4474V56.3556H36.9406V58.4474ZM40.1965 47.3592C40.1055 47.5346 40.0579 47.7292 40.0579 47.9268V53.8946H38.1711H34.6582C36.6824 52.0665 37.7948 49.4827 37.8173 46.8389C37.8184 46.817 37.8206 46.7953 37.8206 46.773V37.5601C37.8206 36.8805 37.2696 36.3297 36.5902 36.3297C35.9107 36.3297 35.3597 36.8805 35.3597 37.5601V40.3591C33.5569 38.3604 30.9568 37.174 28.2149 37.174C28.2111 37.174 28.2066 37.174 28.2026 37.174C27.5231 37.1749 26.9729 37.7265 26.9738 38.4061C26.9746 39.0851 27.5253 39.635 28.2042 39.635C28.2077 39.6351 28.2115 39.635 28.2151 39.635C30.7319 39.635 33.0887 40.9784 34.3676 43.1427C36.3693 46.5308 35.2413 50.9157 31.8532 52.9174C30.8408 53.5155 29.7395 53.8321 28.6395 53.8945H27.7962C25.5096 53.7541 23.3291 52.5196 22.0786 50.4032C20.8992 48.4069 20.7647 45.951 21.7189 43.8337C21.9981 43.2141 21.7221 42.4855 21.1026 42.2063C20.4835 41.9271 19.7544 42.2029 19.4752 42.8225C19.4031 42.9826 19.3362 43.1443 19.2732 43.307L15.8076 34.239C16.1157 34.2964 16.4328 34.3279 16.7574 34.3279C19.6071 34.3279 21.9254 32.0096 21.9254 29.16C21.9254 27.5203 21.1571 26.0578 19.9625 25.1103L29.4491 21.6526C29.4437 21.74 29.44 21.8278 29.44 21.9165C29.44 24.2271 31.3198 26.1069 33.6304 26.1069C34.2468 26.1069 34.8322 25.972 35.3598 25.7319V28.0135C35.3598 28.6931 35.9108 29.244 36.5903 29.244C37.2697 29.244 37.8207 28.6931 37.8207 28.0135V21.9167C37.8207 19.6061 35.941 17.7263 33.6304 17.7263C32.9007 17.7263 32.2143 17.9142 31.6162 18.2435L15.0594 24.2784C15.052 24.2811 15.0453 24.2846 15.0381 24.2874C13.0313 24.9976 11.5896 26.9132 11.5896 29.1602C11.5896 29.8943 11.7444 30.5926 12.0216 31.2255L19.0846 49.7066C19.0869 49.7126 19.0898 49.7183 19.0922 49.7243C19.3074 50.3917 19.5962 51.0397 19.96 51.6552C20.4661 52.5117 21.0855 53.2607 21.788 53.8946H18.2376H16.3509V47.9268C16.3509 47.7292 16.3032 47.5346 16.2122 47.3592L6.08689 27.8835L19.6528 14.3178H36.7991L50.3225 27.8822L40.1965 47.3592ZM14.0506 29.1602C14.0506 27.6675 15.265 26.4532 16.7577 26.4532C18.2503 26.4532 19.4647 27.6675 19.4647 29.1602C19.4647 30.6529 18.2503 31.8672 16.7577 31.8672C15.2649 31.8672 14.0506 30.6529 14.0506 29.1602ZM31.9011 21.9169C31.9011 20.9633 32.6769 20.1875 33.6305 20.1875C34.5841 20.1875 35.3599 20.9633 35.3599 21.9169C35.3599 22.8705 34.5841 23.6463 33.6305 23.6463C32.6769 23.6463 31.9011 22.8705 31.9011 21.9169ZM52.4262 37.4421L46.3793 50.4493H42.5188V48.2276L50.1855 33.4807L52.4262 37.4421ZM53.3484 21.1349L50.2048 24.2785L41.1185 15.1646L44.2484 12.0347C44.6505 11.6326 45.1851 11.4111 45.7538 11.4111C46.3224 11.4111 46.8572 11.6326 47.2592 12.0347L53.3486 18.1241C53.7507 18.5262 53.972 19.0609 53.972 19.6295C53.972 20.1981 53.7505 20.7328 53.3484 21.1349Z" fill="#2468EB"/>
<path d="M25.0436 38.9388C24.7004 38.3524 23.9467 38.1554 23.36 38.4984L23.3453 38.5072C22.7587 38.8505 22.5617 39.6043 22.905 40.1907C23.1339 40.5819 23.5453 40.7998 23.9681 40.7998C24.179 40.7998 24.3931 40.7454 24.5885 40.6311C24.5891 40.6307 24.6013 40.6235 24.6033 40.6223C25.19 40.279 25.387 39.5253 25.0436 38.9388Z" fill="#2468EB"/>
<path d="M28.2232 42.0972C25.645 42.0972 23.5474 44.1948 23.5474 46.773C23.5474 49.3512 25.645 51.4487 28.2232 51.4487C30.8014 51.4487 32.899 49.3512 32.899 46.773C32.899 44.1948 30.8015 42.0972 28.2232 42.0972ZM28.2232 48.9878C27.0019 48.9878 26.0083 47.9942 26.0083 46.773C26.0083 45.5517 27.0019 44.5581 28.2232 44.5581C29.4444 44.5581 30.438 45.5517 30.438 46.773C30.438 47.9942 29.4444 48.9878 28.2232 48.9878Z" fill="#2468EB"/>
<path d="M16.7699 28.0166H16.7564C16.7546 28.0166 16.7528 28.0166 16.7509 28.0166C16.0739 28.0166 15.5235 28.5639 15.5205 29.2417C15.5176 29.9211 16.066 30.4746 16.7456 30.4775H16.7591C16.761 30.4775 16.7627 30.4775 16.7646 30.4775C17.4417 30.4775 17.992 29.9302 17.995 29.2525C17.9978 28.5729 17.4494 28.0196 16.7699 28.0166Z" fill="#2468EB"/>
<path d="M37.46 31.9836C37.2312 31.7547 36.9138 31.623 36.5901 31.623C36.2665 31.623 35.949 31.7547 35.7203 31.9836C35.4914 32.2124 35.3596 32.5299 35.3596 32.8535C35.3596 33.1771 35.4913 33.4946 35.7203 33.7235C35.949 33.9523 36.2665 34.084 36.5901 34.084C36.9138 34.084 37.2312 33.9523 37.46 33.7235C37.6889 33.4946 37.8206 33.1771 37.8206 32.8535C37.8206 32.5299 37.6889 32.2124 37.46 31.9836Z" fill="#2468EB"/>
<path d="M50.6441 18.3799L50.5573 18.293C50.0773 17.8118 49.2984 17.8107 48.817 18.2905C48.3359 18.7704 48.3348 19.5495 48.8145 20.0307L48.9014 20.1179C49.1418 20.3588 49.4573 20.4794 49.7727 20.4794C50.0871 20.4794 50.4014 20.3596 50.6417 20.1202C51.1228 19.6403 51.124 18.8612 50.6441 18.3799Z" fill="#2468EB"/>
<path d="M47.0822 14.8072L46.9954 14.7202C46.5154 14.2391 45.7365 14.238 45.2551 14.7177C44.774 15.1976 44.7729 15.9768 45.2527 16.458L45.3395 16.5451C45.58 16.786 45.8955 16.9066 46.2108 16.9066C46.5252 16.9066 46.8395 16.7869 47.0798 16.5475C47.5609 16.0676 47.5619 15.2884 47.0822 14.8072Z" fill="#2468EB"/>
<path d="M11.1755 14.7178C10.6943 14.238 9.91516 14.2391 9.43527 14.7202L9.3484 14.8073C8.86864 15.2885 8.86963 16.0677 9.35086 16.5476C9.59105 16.787 9.90544 16.9067 10.2198 16.9067C10.5352 16.9067 10.8508 16.7862 11.0911 16.5452L11.178 16.4581C11.6578 15.9769 11.6568 15.1977 11.1755 14.7178Z" fill="#2468EB"/>
<path d="M7.61377 18.2904C7.1324 17.8105 6.35327 17.8116 5.87351 18.2927L5.78664 18.3798C5.30687 18.8611 5.30786 19.6402 5.7891 20.1201C6.02929 20.3595 6.34367 20.4792 6.65806 20.4792C6.97343 20.4792 7.28904 20.3587 7.52936 20.1177L7.61623 20.0306C8.09599 19.5494 8.095 18.7702 7.61377 18.2904Z" fill="#2468EB"/>
</svg>
