<svg width="65" height="58" viewBox="0 0 65 58" fill="none" xmlns="http://www.w3.org/2000/svg">
<path d="M31.4501 9.3499H31.4501C30.8172 9.3499 30.1985 9.53758 29.6722 9.8892C29.146 10.2408 28.7358 10.7406 28.4936 11.3253C28.2514 11.91 28.1881 12.5535 28.3115 13.1742C28.435 13.7949 28.7398 14.3651 29.1873 14.8126C29.6348 15.2602 30.205 15.5649 30.8258 15.6884C31.4465 15.8119 32.0899 15.7485 32.6746 15.5063C33.2594 15.2641 33.7591 14.854 34.1108 14.3277C34.4624 13.8015 34.6501 13.1828 34.6501 12.5499V12.5498C34.6491 11.7015 34.3116 10.8881 33.7117 10.2882C33.1119 9.68831 32.2985 9.35086 31.4501 9.3499ZM31.45 13.5499C31.2522 13.5499 31.0589 13.4912 30.8945 13.3814C30.73 13.2715 30.6019 13.1153 30.5262 12.9326C30.4505 12.7499 30.4307 12.5488 30.4693 12.3548C30.5079 12.1608 30.6031 11.9826 30.7429 11.8428C30.8828 11.7029 31.061 11.6077 31.255 11.5691C31.4489 11.5305 31.65 11.5503 31.8327 11.626C32.0155 11.7017 32.1716 11.8299 32.2815 11.9943C32.3914 12.1588 32.45 12.3521 32.4501 12.5498C32.4497 12.815 32.3443 13.0692 32.1568 13.2567C31.9693 13.4441 31.7151 13.5496 31.45 13.5499Z" fill="#2468EB" stroke="#2468EB" stroke-width="0.1"/>
<path d="M39.85 9.3499H39.85C39.2171 9.3499 38.5984 9.53758 38.0721 9.8892C37.5459 10.2408 37.1357 10.7406 36.8935 11.3253C36.6513 11.91 36.588 12.5535 36.7114 13.1742C36.8349 13.7949 37.1397 14.3651 37.5872 14.8126C38.0347 15.2602 38.6049 15.5649 39.2257 15.6884C39.8464 15.8119 40.4898 15.7485 41.0745 15.5063C41.6593 15.2641 42.159 14.854 42.5107 14.3277C42.8623 13.8015 43.05 13.1828 43.05 12.5499V12.5498C43.049 11.7015 42.7115 10.8881 42.1117 10.2882C41.5118 9.68831 40.6984 9.35086 39.85 9.3499ZM39.8499 13.5499C39.6521 13.5499 39.4588 13.4912 39.2944 13.3814C39.1299 13.2715 39.0018 13.1153 38.9261 12.9326C38.8504 12.7499 38.8306 12.5488 38.8692 12.3548C38.9078 12.1608 39.003 11.9826 39.1428 11.8428C39.2827 11.7029 39.4609 11.6077 39.6549 11.5691C39.8488 11.5305 40.0499 11.5503 40.2326 11.626C40.4154 11.7017 40.5715 11.8299 40.6814 11.9943C40.7913 12.1588 40.8499 12.3521 40.85 12.5498C40.8496 12.815 40.7442 13.0692 40.5567 13.2567C40.3692 13.4441 40.115 13.5496 39.8499 13.5499Z" fill="#2468EB" stroke="#2468EB" stroke-width="0.1"/>
<mask id="path-3-outside-1" maskUnits="userSpaceOnUse" x="0" y="0" width="65" height="58" fill="black">
<rect fill="white" width="65" height="58"/>
<path d="M58.75 22H48.25V19.9H55.6C55.8785 19.9 56.1455 19.7894 56.3425 19.5925C56.5394 19.3955 56.65 19.1285 56.65 18.85V4.15C56.649 3.31486 56.3169 2.5142 55.7263 1.92367C55.1358 1.33314 54.3351 1.00096 53.5 1H24.1C23.2649 1.00096 22.4642 1.33314 21.8737 1.92367C21.2831 2.5142 20.951 3.31486 20.95 4.15V17.8H17.8C17.5215 17.8 17.2545 17.9106 17.0575 18.1075C16.8606 18.3045 16.75 18.5715 16.75 18.85V22H13.6C13.3215 22 13.0545 22.1106 12.8575 22.3075C12.6606 22.5045 12.55 22.7715 12.55 23.05V24.1H9.4C9.12152 24.1 8.85445 24.2106 8.65754 24.4075C8.46063 24.6045 8.35 24.8715 8.35 25.15V33.55H2.05C1.77152 33.55 1.50445 33.6606 1.30754 33.8575C1.11063 34.0545 1 34.3215 1 34.6V38.8C1 39.0785 1.11063 39.3456 1.30754 39.5425C1.50445 39.7394 1.77152 39.85 2.05 39.85H8.35V46.15C8.35 46.4285 8.46063 46.6955 8.65754 46.8925C8.85445 47.0894 9.12152 47.2 9.4 47.2H12.55V48.25C12.55 48.5285 12.6606 48.7956 12.8575 48.9925C13.0545 49.1894 13.3215 49.3 13.6 49.3H16.75V52.45C16.75 52.7285 16.8606 52.9955 17.0575 53.1925C17.2545 53.3894 17.5215 53.5 17.8 53.5H22C22.2785 53.5 22.5455 53.3894 22.7425 53.1925C22.9394 52.9955 23.05 52.7285 23.05 52.45V49.3H29.35V51.4H26.2C25.9215 51.4 25.6545 51.5106 25.4575 51.7075C25.2606 51.9045 25.15 52.1715 25.15 52.45V56.65C25.15 56.9285 25.2606 57.1955 25.4575 57.3925C25.6545 57.5894 25.9215 57.7 26.2 57.7H50.35C50.6285 57.7 50.8955 57.5894 51.0925 57.3925C51.2894 57.1955 51.4 56.9285 51.4 56.65V52.45C51.4 52.1715 51.2894 51.9045 51.0925 51.7075C50.8955 51.5106 50.6285 51.4 50.35 51.4H47.2V49.3H58.75C60.1419 49.2984 61.4763 48.7448 62.4606 47.7606C63.4448 46.7763 63.9984 45.4419 64 44.05V27.25C63.9984 25.8581 63.4448 24.5237 62.4606 23.5394C61.4763 22.5552 60.1419 22.0016 58.75 22ZM3.1 37.75V35.65H8.35V37.75H3.1ZM46.15 22H42.8194C43.0602 21.3207 43.0602 20.5793 42.8194 19.9H46.15V22ZM23.05 15.7H25.15V17.8H23.05V15.7ZM23.05 19.9H26.3806C26.1398 20.5793 26.1398 21.3207 26.3806 22H23.05V19.9ZM28.3 20.95C28.3 20.7423 28.3616 20.5393 28.477 20.3667C28.5923 20.194 28.7563 20.0594 28.9482 19.9799C29.14 19.9005 29.3512 19.8797 29.5548 19.9202C29.7585 19.9607 29.9456 20.0607 30.0925 20.2075C30.2393 20.3544 30.3393 20.5415 30.3798 20.7452C30.4203 20.9488 30.3995 21.16 30.3201 21.3518C30.2406 21.5437 30.106 21.7077 29.9333 21.823C29.7607 21.9384 29.5577 22 29.35 22C29.0716 21.9997 28.8047 21.889 28.6079 21.6921C28.411 21.4953 28.3003 21.2284 28.3 20.95ZM32.3194 19.9H36.8806C36.6398 20.5793 36.6398 21.3207 36.8806 22H32.3194C32.5602 21.3207 32.5602 20.5793 32.3194 19.9ZM38.8 20.95C38.8 20.7423 38.8616 20.5393 38.977 20.3667C39.0923 20.194 39.2563 20.0594 39.4482 19.9799C39.64 19.9005 39.8512 19.8797 40.0548 19.9202C40.2585 19.9607 40.4456 20.0607 40.5925 20.2075C40.7393 20.3544 40.8393 20.5415 40.8798 20.7452C40.9203 20.9488 40.8995 21.16 40.8201 21.3518C40.7406 21.5437 40.606 21.7077 40.4333 21.823C40.2607 21.9384 40.0577 22 39.85 22C39.5716 21.9997 39.3047 21.889 39.1079 21.6921C38.911 21.4953 38.8003 21.2284 38.8 20.95ZM50.35 14.65V17.8H27.25V14.65C27.25 14.3715 27.1394 14.1045 26.9425 13.9075C26.7455 13.7106 26.4785 13.6 26.2 13.6H23.05V7.3H54.55V13.6H51.4C51.1215 13.6 50.8545 13.7106 50.6575 13.9075C50.4606 14.1045 50.35 14.3715 50.35 14.65ZM52.45 17.8V15.7H54.55V17.8H52.45ZM24.1 3.1H53.5C53.7784 3.10032 54.0453 3.21105 54.2421 3.40789C54.439 3.60473 54.5497 3.87162 54.55 4.15V5.2H23.05V4.15C23.0503 3.87162 23.161 3.60473 23.3579 3.40789C23.5547 3.21105 23.8216 3.10032 24.1 3.1ZM18.85 19.9H20.95V24.1H18.85V19.9ZM10.45 26.2H12.55V45.1H10.45V26.2ZM14.65 24.1H16.75V47.2H14.65V24.1ZM20.95 51.4H18.85V47.2H20.95V51.4ZM49.3 53.5V55.6H27.25V53.5H30.4C30.6785 53.5 30.9455 53.3894 31.1425 53.1925C31.3394 52.9955 31.45 52.7285 31.45 52.45V45.1H45.1V52.45C45.1 52.7285 45.2106 52.9955 45.4075 53.1925C45.6045 53.3894 45.8715 53.5 46.15 53.5H49.3ZM46.15 43H30.4C30.1215 43 29.8545 43.1106 29.6575 43.3075C29.4606 43.5045 29.35 43.7715 29.35 44.05V47.2H23.05V46.15C23.05 45.8715 22.9394 45.6045 22.7425 45.4075C22.5455 45.2106 22.2785 45.1 22 45.1H18.85V26.2H22C22.2785 26.2 22.5455 26.0894 22.7425 25.8925C22.9394 25.6955 23.05 25.4285 23.05 25.15V24.1H49.3V26.2H23.05V28.3H49.3V30.4H23.05V32.5H49.3V34.6H23.05V36.7H49.3V38.8H23.05V40.9H49.3V47.2H47.2V44.05C47.2 43.7715 47.0894 43.5045 46.8925 43.3075C46.6955 43.1106 46.4285 43 46.15 43ZM61.9 44.05C61.899 44.8851 61.5669 45.6858 60.9763 46.2763C60.3858 46.8669 59.5851 47.199 58.75 47.2H51.4V24.1H58.75C59.5851 24.101 60.3858 24.4331 60.9763 25.0237C61.5669 25.6142 61.899 26.4149 61.9 27.25V44.05Z"/>
</mask>
<path d="M58.75 22H48.25V19.9H55.6C55.8785 19.9 56.1455 19.7894 56.3425 19.5925C56.5394 19.3955 56.65 19.1285 56.65 18.85V4.15C56.649 3.31486 56.3169 2.5142 55.7263 1.92367C55.1358 1.33314 54.3351 1.00096 53.5 1H24.1C23.2649 1.00096 22.4642 1.33314 21.8737 1.92367C21.2831 2.5142 20.951 3.31486 20.95 4.15V17.8H17.8C17.5215 17.8 17.2545 17.9106 17.0575 18.1075C16.8606 18.3045 16.75 18.5715 16.75 18.85V22H13.6C13.3215 22 13.0545 22.1106 12.8575 22.3075C12.6606 22.5045 12.55 22.7715 12.55 23.05V24.1H9.4C9.12152 24.1 8.85445 24.2106 8.65754 24.4075C8.46063 24.6045 8.35 24.8715 8.35 25.15V33.55H2.05C1.77152 33.55 1.50445 33.6606 1.30754 33.8575C1.11063 34.0545 1 34.3215 1 34.6V38.8C1 39.0785 1.11063 39.3456 1.30754 39.5425C1.50445 39.7394 1.77152 39.85 2.05 39.85H8.35V46.15C8.35 46.4285 8.46063 46.6955 8.65754 46.8925C8.85445 47.0894 9.12152 47.2 9.4 47.2H12.55V48.25C12.55 48.5285 12.6606 48.7956 12.8575 48.9925C13.0545 49.1894 13.3215 49.3 13.6 49.3H16.75V52.45C16.75 52.7285 16.8606 52.9955 17.0575 53.1925C17.2545 53.3894 17.5215 53.5 17.8 53.5H22C22.2785 53.5 22.5455 53.3894 22.7425 53.1925C22.9394 52.9955 23.05 52.7285 23.05 52.45V49.3H29.35V51.4H26.2C25.9215 51.4 25.6545 51.5106 25.4575 51.7075C25.2606 51.9045 25.15 52.1715 25.15 52.45V56.65C25.15 56.9285 25.2606 57.1955 25.4575 57.3925C25.6545 57.5894 25.9215 57.7 26.2 57.7H50.35C50.6285 57.7 50.8955 57.5894 51.0925 57.3925C51.2894 57.1955 51.4 56.9285 51.4 56.65V52.45C51.4 52.1715 51.2894 51.9045 51.0925 51.7075C50.8955 51.5106 50.6285 51.4 50.35 51.4H47.2V49.3H58.75C60.1419 49.2984 61.4763 48.7448 62.4606 47.7606C63.4448 46.7763 63.9984 45.4419 64 44.05V27.25C63.9984 25.8581 63.4448 24.5237 62.4606 23.5394C61.4763 22.5552 60.1419 22.0016 58.75 22ZM3.1 37.75V35.65H8.35V37.75H3.1ZM46.15 22H42.8194C43.0602 21.3207 43.0602 20.5793 42.8194 19.9H46.15V22ZM23.05 15.7H25.15V17.8H23.05V15.7ZM23.05 19.9H26.3806C26.1398 20.5793 26.1398 21.3207 26.3806 22H23.05V19.9ZM28.3 20.95C28.3 20.7423 28.3616 20.5393 28.477 20.3667C28.5923 20.194 28.7563 20.0594 28.9482 19.9799C29.14 19.9005 29.3512 19.8797 29.5548 19.9202C29.7585 19.9607 29.9456 20.0607 30.0925 20.2075C30.2393 20.3544 30.3393 20.5415 30.3798 20.7452C30.4203 20.9488 30.3995 21.16 30.3201 21.3518C30.2406 21.5437 30.106 21.7077 29.9333 21.823C29.7607 21.9384 29.5577 22 29.35 22C29.0716 21.9997 28.8047 21.889 28.6079 21.6921C28.411 21.4953 28.3003 21.2284 28.3 20.95ZM32.3194 19.9H36.8806C36.6398 20.5793 36.6398 21.3207 36.8806 22H32.3194C32.5602 21.3207 32.5602 20.5793 32.3194 19.9ZM38.8 20.95C38.8 20.7423 38.8616 20.5393 38.977 20.3667C39.0923 20.194 39.2563 20.0594 39.4482 19.9799C39.64 19.9005 39.8512 19.8797 40.0548 19.9202C40.2585 19.9607 40.4456 20.0607 40.5925 20.2075C40.7393 20.3544 40.8393 20.5415 40.8798 20.7452C40.9203 20.9488 40.8995 21.16 40.8201 21.3518C40.7406 21.5437 40.606 21.7077 40.4333 21.823C40.2607 21.9384 40.0577 22 39.85 22C39.5716 21.9997 39.3047 21.889 39.1079 21.6921C38.911 21.4953 38.8003 21.2284 38.8 20.95ZM50.35 14.65V17.8H27.25V14.65C27.25 14.3715 27.1394 14.1045 26.9425 13.9075C26.7455 13.7106 26.4785 13.6 26.2 13.6H23.05V7.3H54.55V13.6H51.4C51.1215 13.6 50.8545 13.7106 50.6575 13.9075C50.4606 14.1045 50.35 14.3715 50.35 14.65ZM52.45 17.8V15.7H54.55V17.8H52.45ZM24.1 3.1H53.5C53.7784 3.10032 54.0453 3.21105 54.2421 3.40789C54.439 3.60473 54.5497 3.87162 54.55 4.15V5.2H23.05V4.15C23.0503 3.87162 23.161 3.60473 23.3579 3.40789C23.5547 3.21105 23.8216 3.10032 24.1 3.1ZM18.85 19.9H20.95V24.1H18.85V19.9ZM10.45 26.2H12.55V45.1H10.45V26.2ZM14.65 24.1H16.75V47.2H14.65V24.1ZM20.95 51.4H18.85V47.2H20.95V51.4ZM49.3 53.5V55.6H27.25V53.5H30.4C30.6785 53.5 30.9455 53.3894 31.1425 53.1925C31.3394 52.9955 31.45 52.7285 31.45 52.45V45.1H45.1V52.45C45.1 52.7285 45.2106 52.9955 45.4075 53.1925C45.6045 53.3894 45.8715 53.5 46.15 53.5H49.3ZM46.15 43H30.4C30.1215 43 29.8545 43.1106 29.6575 43.3075C29.4606 43.5045 29.35 43.7715 29.35 44.05V47.2H23.05V46.15C23.05 45.8715 22.9394 45.6045 22.7425 45.4075C22.5455 45.2106 22.2785 45.1 22 45.1H18.85V26.2H22C22.2785 26.2 22.5455 26.0894 22.7425 25.8925C22.9394 25.6955 23.05 25.4285 23.05 25.15V24.1H49.3V26.2H23.05V28.3H49.3V30.4H23.05V32.5H49.3V34.6H23.05V36.7H49.3V38.8H23.05V40.9H49.3V47.2H47.2V44.05C47.2 43.7715 47.0894 43.5045 46.8925 43.3075C46.6955 43.1106 46.4285 43 46.15 43ZM61.9 44.05C61.899 44.8851 61.5669 45.6858 60.9763 46.2763C60.3858 46.8669 59.5851 47.199 58.75 47.2H51.4V24.1H58.75C59.5851 24.101 60.3858 24.4331 60.9763 25.0237C61.5669 25.6142 61.899 26.4149 61.9 27.25V44.05Z" fill="#2468EB"/>
<path d="M58.75 22H48.25V19.9H55.6C55.8785 19.9 56.1455 19.7894 56.3425 19.5925C56.5394 19.3955 56.65 19.1285 56.65 18.85V4.15C56.649 3.31486 56.3169 2.5142 55.7263 1.92367C55.1358 1.33314 54.3351 1.00096 53.5 1H24.1C23.2649 1.00096 22.4642 1.33314 21.8737 1.92367C21.2831 2.5142 20.951 3.31486 20.95 4.15V17.8H17.8C17.5215 17.8 17.2545 17.9106 17.0575 18.1075C16.8606 18.3045 16.75 18.5715 16.75 18.85V22H13.6C13.3215 22 13.0545 22.1106 12.8575 22.3075C12.6606 22.5045 12.55 22.7715 12.55 23.05V24.1H9.4C9.12152 24.1 8.85445 24.2106 8.65754 24.4075C8.46063 24.6045 8.35 24.8715 8.35 25.15V33.55H2.05C1.77152 33.55 1.50445 33.6606 1.30754 33.8575C1.11063 34.0545 1 34.3215 1 34.6V38.8C1 39.0785 1.11063 39.3456 1.30754 39.5425C1.50445 39.7394 1.77152 39.85 2.05 39.85H8.35V46.15C8.35 46.4285 8.46063 46.6955 8.65754 46.8925C8.85445 47.0894 9.12152 47.2 9.4 47.2H12.55V48.25C12.55 48.5285 12.6606 48.7956 12.8575 48.9925C13.0545 49.1894 13.3215 49.3 13.6 49.3H16.75V52.45C16.75 52.7285 16.8606 52.9955 17.0575 53.1925C17.2545 53.3894 17.5215 53.5 17.8 53.5H22C22.2785 53.5 22.5455 53.3894 22.7425 53.1925C22.9394 52.9955 23.05 52.7285 23.05 52.45V49.3H29.35V51.4H26.2C25.9215 51.4 25.6545 51.5106 25.4575 51.7075C25.2606 51.9045 25.15 52.1715 25.15 52.45V56.65C25.15 56.9285 25.2606 57.1955 25.4575 57.3925C25.6545 57.5894 25.9215 57.7 26.2 57.7H50.35C50.6285 57.7 50.8955 57.5894 51.0925 57.3925C51.2894 57.1955 51.4 56.9285 51.4 56.65V52.45C51.4 52.1715 51.2894 51.9045 51.0925 51.7075C50.8955 51.5106 50.6285 51.4 50.35 51.4H47.2V49.3H58.75C60.1419 49.2984 61.4763 48.7448 62.4606 47.7606C63.4448 46.7763 63.9984 45.4419 64 44.05V27.25C63.9984 25.8581 63.4448 24.5237 62.4606 23.5394C61.4763 22.5552 60.1419 22.0016 58.75 22ZM3.1 37.75V35.65H8.35V37.75H3.1ZM46.15 22H42.8194C43.0602 21.3207 43.0602 20.5793 42.8194 19.9H46.15V22ZM23.05 15.7H25.15V17.8H23.05V15.7ZM23.05 19.9H26.3806C26.1398 20.5793 26.1398 21.3207 26.3806 22H23.05V19.9ZM28.3 20.95C28.3 20.7423 28.3616 20.5393 28.477 20.3667C28.5923 20.194 28.7563 20.0594 28.9482 19.9799C29.14 19.9005 29.3512 19.8797 29.5548 19.9202C29.7585 19.9607 29.9456 20.0607 30.0925 20.2075C30.2393 20.3544 30.3393 20.5415 30.3798 20.7452C30.4203 20.9488 30.3995 21.16 30.3201 21.3518C30.2406 21.5437 30.106 21.7077 29.9333 21.823C29.7607 21.9384 29.5577 22 29.35 22C29.0716 21.9997 28.8047 21.889 28.6079 21.6921C28.411 21.4953 28.3003 21.2284 28.3 20.95ZM32.3194 19.9H36.8806C36.6398 20.5793 36.6398 21.3207 36.8806 22H32.3194C32.5602 21.3207 32.5602 20.5793 32.3194 19.9ZM38.8 20.95C38.8 20.7423 38.8616 20.5393 38.977 20.3667C39.0923 20.194 39.2563 20.0594 39.4482 19.9799C39.64 19.9005 39.8512 19.8797 40.0548 19.9202C40.2585 19.9607 40.4456 20.0607 40.5925 20.2075C40.7393 20.3544 40.8393 20.5415 40.8798 20.7452C40.9203 20.9488 40.8995 21.16 40.8201 21.3518C40.7406 21.5437 40.606 21.7077 40.4333 21.823C40.2607 21.9384 40.0577 22 39.85 22C39.5716 21.9997 39.3047 21.889 39.1079 21.6921C38.911 21.4953 38.8003 21.2284 38.8 20.95ZM50.35 14.65V17.8H27.25V14.65C27.25 14.3715 27.1394 14.1045 26.9425 13.9075C26.7455 13.7106 26.4785 13.6 26.2 13.6H23.05V7.3H54.55V13.6H51.4C51.1215 13.6 50.8545 13.7106 50.6575 13.9075C50.4606 14.1045 50.35 14.3715 50.35 14.65ZM52.45 17.8V15.7H54.55V17.8H52.45ZM24.1 3.1H53.5C53.7784 3.10032 54.0453 3.21105 54.2421 3.40789C54.439 3.60473 54.5497 3.87162 54.55 4.15V5.2H23.05V4.15C23.0503 3.87162 23.161 3.60473 23.3579 3.40789C23.5547 3.21105 23.8216 3.10032 24.1 3.1ZM18.85 19.9H20.95V24.1H18.85V19.9ZM10.45 26.2H12.55V45.1H10.45V26.2ZM14.65 24.1H16.75V47.2H14.65V24.1ZM20.95 51.4H18.85V47.2H20.95V51.4ZM49.3 53.5V55.6H27.25V53.5H30.4C30.6785 53.5 30.9455 53.3894 31.1425 53.1925C31.3394 52.9955 31.45 52.7285 31.45 52.45V45.1H45.1V52.45C45.1 52.7285 45.2106 52.9955 45.4075 53.1925C45.6045 53.3894 45.8715 53.5 46.15 53.5H49.3ZM46.15 43H30.4C30.1215 43 29.8545 43.1106 29.6575 43.3075C29.4606 43.5045 29.35 43.7715 29.35 44.05V47.2H23.05V46.15C23.05 45.8715 22.9394 45.6045 22.7425 45.4075C22.5455 45.2106 22.2785 45.1 22 45.1H18.85V26.2H22C22.2785 26.2 22.5455 26.0894 22.7425 25.8925C22.9394 25.6955 23.05 25.4285 23.05 25.15V24.1H49.3V26.2H23.05V28.3H49.3V30.4H23.05V32.5H49.3V34.6H23.05V36.7H49.3V38.8H23.05V40.9H49.3V47.2H47.2V44.05C47.2 43.7715 47.0894 43.5045 46.8925 43.3075C46.6955 43.1106 46.4285 43 46.15 43ZM61.9 44.05C61.899 44.8851 61.5669 45.6858 60.9763 46.2763C60.3858 46.8669 59.5851 47.199 58.75 47.2H51.4V24.1H58.75C59.5851 24.101 60.3858 24.4331 60.9763 25.0237C61.5669 25.6142 61.899 26.4149 61.9 27.25V44.05Z" stroke="#2468EB" stroke-width="0.2" mask="url(#path-3-outside-1)"/>
<path d="M54.55 30.4498C55.1575 30.4498 55.65 29.9573 55.65 29.3498C55.65 28.7423 55.1575 28.2498 54.55 28.2498C53.9425 28.2498 53.45 28.7423 53.45 29.3498C53.45 29.9573 53.9425 30.4498 54.55 30.4498Z" fill="#2468EB" stroke="#2468EB" stroke-width="0.1"/>
<path d="M58.75 32.45H54.55C54.2583 32.45 53.9785 32.5659 53.7722 32.7722C53.5659 32.9785 53.45 33.2583 53.45 33.55V39.85C53.45 40.1417 53.5659 40.4215 53.7722 40.6278C53.9785 40.8341 54.2583 40.95 54.55 40.95H58.75C59.0417 40.95 59.3215 40.8341 59.5278 40.6278C59.7341 40.4215 59.85 40.1417 59.85 39.85V33.55C59.85 33.2583 59.7341 32.9785 59.5278 32.7722C59.3215 32.5659 59.0417 32.45 58.75 32.45ZM57.65 38.75H55.65V34.65H57.65V38.75Z" fill="#2468EB" stroke="#2468EB" stroke-width="0.1"/>
<path d="M23.05 42.95H23V43V45.1V45.15H23.05H27.25H27.3V45.1V43V42.95H27.25H23.05Z" fill="#2468EB" stroke="#2468EB" stroke-width="0.1"/>
</svg>
