<svg width="63" height="63" viewBox="0 0 63 63" fill="none" xmlns="http://www.w3.org/2000/svg">
<mask id="path-1-outside-1" maskUnits="userSpaceOnUse" x="0" y="0" width="63" height="63" fill="black">
<rect fill="white" width="63" height="63"/>
<path d="M62 39.3951C62 39.3935 61.9998 39.392 61.9998 39.3903V5.84104C61.9998 3.1717 59.8282 1 57.1588 1H11.6035C11.11 1 10.71 1.40007 10.71 1.89355C10.71 2.38704 11.11 2.78711 11.6035 2.78711H57.1588C58.8428 2.78711 60.2127 4.15711 60.2127 5.84104V38.5015H58.0525V6.82812C58.0525 5.79124 57.2089 4.94772 56.1721 4.94772H6.82788C5.791 4.94772 4.94749 5.79136 4.94749 6.82812V38.5015H2.78723V5.84104C2.78723 4.15711 4.15723 2.78711 5.84116 2.78711H8.0293C8.52278 2.78711 8.92285 2.38704 8.92285 1.89355C8.92285 1.40007 8.52278 1 8.0293 1H5.84116C3.17181 1 1.00012 3.1717 1.00012 5.84104V39.3926C1.00012 39.3934 1 39.3943 1 39.3951C1 39.3959 1.00012 39.3968 1.00012 39.3976V43.3429C1.00012 46.0123 3.17181 48.1839 5.84116 48.1839H22.7115V56.2655H17.65C16.6317 56.2655 15.8033 57.0939 15.8033 58.1122V60.1533C15.8033 61.1716 16.6317 62 17.65 62H21.8178C22.3113 62 22.7114 61.5999 22.7114 61.1064C22.7114 60.613 22.3113 60.2129 21.8178 60.2129H17.65C17.6171 60.2129 17.5905 60.1862 17.5905 60.1533V58.1122C17.5905 58.0793 17.6171 58.0526 17.65 58.0526H45.3501C45.383 58.0526 45.4097 58.0793 45.4097 58.1122V60.1533C45.4097 60.1862 45.383 60.2129 45.3501 60.2129H25.392C24.8985 60.2129 24.4985 60.613 24.4985 61.1064C24.4985 61.5999 24.8985 62 25.392 62H45.3501C46.3684 62 47.1968 61.1716 47.1968 60.1533V58.1122C47.1968 57.0939 46.3684 56.2655 45.3501 56.2655H40.2886V48.1839H57.1588C59.8282 48.1839 61.9998 46.0122 61.9998 43.3429V39.3999C61.9998 39.3982 62 39.3966 62 39.3951ZM10.6822 34.5539V6.73483H38.5015V34.5541H10.6822V34.5539ZM56.2654 22.7114H40.2886V20.551H56.2655V22.7114H56.2654ZM40.2886 24.4985H56.2655V34.5539H40.2886V24.4985ZM56.2654 6.82812V18.7639H40.2886V6.73483H56.1721C56.2236 6.73483 56.2654 6.77665 56.2654 6.82812ZM6.82788 6.73483H8.89509V34.5541H6.7346V6.82812C6.7346 6.77665 6.77641 6.73483 6.82788 6.73483ZM6.7346 36.341H56.2654V38.5014H6.7346V36.341ZM8.7084 46.3967V45.3164C8.7084 44.7207 9.19294 44.2361 9.78853 44.2361C10.3841 44.2361 10.8688 44.7207 10.8688 45.3164V46.3967H8.7084ZM33.5671 56.2655H29.4329V52.2243C29.4329 52.1728 29.4748 52.131 29.5263 52.131H33.4738C33.5253 52.131 33.5672 52.1729 33.5672 52.2243V56.2655H33.5671ZM38.5014 56.2655H35.3542V52.2243C35.3542 51.1874 34.5106 50.3439 33.4737 50.3439H29.5262C28.4893 50.3439 27.6457 51.1874 27.6457 52.2243V56.2655H24.4985V48.1839H38.5014V56.2655ZM52.1312 46.3967V45.3164C52.1312 44.7207 52.6158 44.2361 53.2115 44.2361C53.8071 44.2361 54.2916 44.7207 54.2916 45.3164V46.3967H52.1312ZM57.1588 46.3967H56.0787V45.3164C56.0787 43.7353 54.7925 42.449 53.2115 42.449C51.6305 42.449 50.3441 43.7353 50.3441 45.3164V46.3967H39.3976C39.3968 46.3967 39.3959 46.3966 39.3951 46.3966C39.3943 46.3966 39.3934 46.3967 39.3926 46.3967H23.6074C23.6066 46.3967 23.6057 46.3966 23.6049 46.3966C23.6041 46.3966 23.6032 46.3967 23.6024 46.3967H12.656V45.3164C12.656 43.7353 11.3698 42.449 9.78865 42.449C8.20753 42.449 6.92129 43.7353 6.92129 45.3164V46.3967H5.84116C4.15723 46.3967 2.78723 45.0268 2.78723 43.3429V40.2886H60.2127V43.3429C60.2127 45.0268 58.8428 46.3967 57.1588 46.3967Z"/>
</mask>
<path d="M62 39.3951C62 39.3935 61.9998 39.392 61.9998 39.3903V5.84104C61.9998 3.1717 59.8282 1 57.1588 1H11.6035C11.11 1 10.71 1.40007 10.71 1.89355C10.71 2.38704 11.11 2.78711 11.6035 2.78711H57.1588C58.8428 2.78711 60.2127 4.15711 60.2127 5.84104V38.5015H58.0525V6.82812C58.0525 5.79124 57.2089 4.94772 56.1721 4.94772H6.82788C5.791 4.94772 4.94749 5.79136 4.94749 6.82812V38.5015H2.78723V5.84104C2.78723 4.15711 4.15723 2.78711 5.84116 2.78711H8.0293C8.52278 2.78711 8.92285 2.38704 8.92285 1.89355C8.92285 1.40007 8.52278 1 8.0293 1H5.84116C3.17181 1 1.00012 3.1717 1.00012 5.84104V39.3926C1.00012 39.3934 1 39.3943 1 39.3951C1 39.3959 1.00012 39.3968 1.00012 39.3976V43.3429C1.00012 46.0123 3.17181 48.1839 5.84116 48.1839H22.7115V56.2655H17.65C16.6317 56.2655 15.8033 57.0939 15.8033 58.1122V60.1533C15.8033 61.1716 16.6317 62 17.65 62H21.8178C22.3113 62 22.7114 61.5999 22.7114 61.1064C22.7114 60.613 22.3113 60.2129 21.8178 60.2129H17.65C17.6171 60.2129 17.5905 60.1862 17.5905 60.1533V58.1122C17.5905 58.0793 17.6171 58.0526 17.65 58.0526H45.3501C45.383 58.0526 45.4097 58.0793 45.4097 58.1122V60.1533C45.4097 60.1862 45.383 60.2129 45.3501 60.2129H25.392C24.8985 60.2129 24.4985 60.613 24.4985 61.1064C24.4985 61.5999 24.8985 62 25.392 62H45.3501C46.3684 62 47.1968 61.1716 47.1968 60.1533V58.1122C47.1968 57.0939 46.3684 56.2655 45.3501 56.2655H40.2886V48.1839H57.1588C59.8282 48.1839 61.9998 46.0122 61.9998 43.3429V39.3999C61.9998 39.3982 62 39.3966 62 39.3951ZM10.6822 34.5539V6.73483H38.5015V34.5541H10.6822V34.5539ZM56.2654 22.7114H40.2886V20.551H56.2655V22.7114H56.2654ZM40.2886 24.4985H56.2655V34.5539H40.2886V24.4985ZM56.2654 6.82812V18.7639H40.2886V6.73483H56.1721C56.2236 6.73483 56.2654 6.77665 56.2654 6.82812ZM6.82788 6.73483H8.89509V34.5541H6.7346V6.82812C6.7346 6.77665 6.77641 6.73483 6.82788 6.73483ZM6.7346 36.341H56.2654V38.5014H6.7346V36.341ZM8.7084 46.3967V45.3164C8.7084 44.7207 9.19294 44.2361 9.78853 44.2361C10.3841 44.2361 10.8688 44.7207 10.8688 45.3164V46.3967H8.7084ZM33.5671 56.2655H29.4329V52.2243C29.4329 52.1728 29.4748 52.131 29.5263 52.131H33.4738C33.5253 52.131 33.5672 52.1729 33.5672 52.2243V56.2655H33.5671ZM38.5014 56.2655H35.3542V52.2243C35.3542 51.1874 34.5106 50.3439 33.4737 50.3439H29.5262C28.4893 50.3439 27.6457 51.1874 27.6457 52.2243V56.2655H24.4985V48.1839H38.5014V56.2655ZM52.1312 46.3967V45.3164C52.1312 44.7207 52.6158 44.2361 53.2115 44.2361C53.8071 44.2361 54.2916 44.7207 54.2916 45.3164V46.3967H52.1312ZM57.1588 46.3967H56.0787V45.3164C56.0787 43.7353 54.7925 42.449 53.2115 42.449C51.6305 42.449 50.3441 43.7353 50.3441 45.3164V46.3967H39.3976C39.3968 46.3967 39.3959 46.3966 39.3951 46.3966C39.3943 46.3966 39.3934 46.3967 39.3926 46.3967H23.6074C23.6066 46.3967 23.6057 46.3966 23.6049 46.3966C23.6041 46.3966 23.6032 46.3967 23.6024 46.3967H12.656V45.3164C12.656 43.7353 11.3698 42.449 9.78865 42.449C8.20753 42.449 6.92129 43.7353 6.92129 45.3164V46.3967H5.84116C4.15723 46.3967 2.78723 45.0268 2.78723 43.3429V40.2886H60.2127V43.3429C60.2127 45.0268 58.8428 46.3967 57.1588 46.3967Z" fill="#2468EB"/>
<path d="M62 39.3951C62 39.3935 61.9998 39.392 61.9998 39.3903V5.84104C61.9998 3.1717 59.8282 1 57.1588 1H11.6035C11.11 1 10.71 1.40007 10.71 1.89355C10.71 2.38704 11.11 2.78711 11.6035 2.78711H57.1588C58.8428 2.78711 60.2127 4.15711 60.2127 5.84104V38.5015H58.0525V6.82812C58.0525 5.79124 57.2089 4.94772 56.1721 4.94772H6.82788C5.791 4.94772 4.94749 5.79136 4.94749 6.82812V38.5015H2.78723V5.84104C2.78723 4.15711 4.15723 2.78711 5.84116 2.78711H8.0293C8.52278 2.78711 8.92285 2.38704 8.92285 1.89355C8.92285 1.40007 8.52278 1 8.0293 1H5.84116C3.17181 1 1.00012 3.1717 1.00012 5.84104V39.3926C1.00012 39.3934 1 39.3943 1 39.3951C1 39.3959 1.00012 39.3968 1.00012 39.3976V43.3429C1.00012 46.0123 3.17181 48.1839 5.84116 48.1839H22.7115V56.2655H17.65C16.6317 56.2655 15.8033 57.0939 15.8033 58.1122V60.1533C15.8033 61.1716 16.6317 62 17.65 62H21.8178C22.3113 62 22.7114 61.5999 22.7114 61.1064C22.7114 60.613 22.3113 60.2129 21.8178 60.2129H17.65C17.6171 60.2129 17.5905 60.1862 17.5905 60.1533V58.1122C17.5905 58.0793 17.6171 58.0526 17.65 58.0526H45.3501C45.383 58.0526 45.4097 58.0793 45.4097 58.1122V60.1533C45.4097 60.1862 45.383 60.2129 45.3501 60.2129H25.392C24.8985 60.2129 24.4985 60.613 24.4985 61.1064C24.4985 61.5999 24.8985 62 25.392 62H45.3501C46.3684 62 47.1968 61.1716 47.1968 60.1533V58.1122C47.1968 57.0939 46.3684 56.2655 45.3501 56.2655H40.2886V48.1839H57.1588C59.8282 48.1839 61.9998 46.0122 61.9998 43.3429V39.3999C61.9998 39.3982 62 39.3966 62 39.3951ZM10.6822 34.5539V6.73483H38.5015V34.5541H10.6822V34.5539ZM56.2654 22.7114H40.2886V20.551H56.2655V22.7114H56.2654ZM40.2886 24.4985H56.2655V34.5539H40.2886V24.4985ZM56.2654 6.82812V18.7639H40.2886V6.73483H56.1721C56.2236 6.73483 56.2654 6.77665 56.2654 6.82812ZM6.82788 6.73483H8.89509V34.5541H6.7346V6.82812C6.7346 6.77665 6.77641 6.73483 6.82788 6.73483ZM6.7346 36.341H56.2654V38.5014H6.7346V36.341ZM8.7084 46.3967V45.3164C8.7084 44.7207 9.19294 44.2361 9.78853 44.2361C10.3841 44.2361 10.8688 44.7207 10.8688 45.3164V46.3967H8.7084ZM33.5671 56.2655H29.4329V52.2243C29.4329 52.1728 29.4748 52.131 29.5263 52.131H33.4738C33.5253 52.131 33.5672 52.1729 33.5672 52.2243V56.2655H33.5671ZM38.5014 56.2655H35.3542V52.2243C35.3542 51.1874 34.5106 50.3439 33.4737 50.3439H29.5262C28.4893 50.3439 27.6457 51.1874 27.6457 52.2243V56.2655H24.4985V48.1839H38.5014V56.2655ZM52.1312 46.3967V45.3164C52.1312 44.7207 52.6158 44.2361 53.2115 44.2361C53.8071 44.2361 54.2916 44.7207 54.2916 45.3164V46.3967H52.1312ZM57.1588 46.3967H56.0787V45.3164C56.0787 43.7353 54.7925 42.449 53.2115 42.449C51.6305 42.449 50.3441 43.7353 50.3441 45.3164V46.3967H39.3976C39.3968 46.3967 39.3959 46.3966 39.3951 46.3966C39.3943 46.3966 39.3934 46.3967 39.3926 46.3967H23.6074C23.6066 46.3967 23.6057 46.3966 23.6049 46.3966C23.6041 46.3966 23.6032 46.3967 23.6024 46.3967H12.656V45.3164C12.656 43.7353 11.3698 42.449 9.78865 42.449C8.20753 42.449 6.92129 43.7353 6.92129 45.3164V46.3967H5.84116C4.15723 46.3967 2.78723 45.0268 2.78723 43.3429V40.2886H60.2127V43.3429C60.2127 45.0268 58.8428 46.3967 57.1588 46.3967Z" stroke="#2468EB" stroke-width="0.2" mask="url(#path-1-outside-1)"/>
<path d="M33.4738 42.3992H29.5262C29.0052 42.3992 28.5827 42.8217 28.5827 43.3428C28.5827 43.8639 29.0052 44.2863 29.5262 44.2863H33.4738C33.9949 44.2863 34.4174 43.8639 34.4174 43.3428C34.4174 42.8217 33.9949 42.3992 33.4738 42.3992Z" fill="#2468EB" stroke="#2468EB" stroke-width="0.1"/>
<path d="M24.0731 8.96929L24.0731 8.96928C23.783 8.8036 23.4268 8.8036 23.1369 8.96929L23.1616 9.01267L23.1368 8.96929L13.268 14.6087L13.2928 14.6521L13.268 14.6087C12.9741 14.7766 12.7925 15.0893 12.7925 15.4279V25.8606C12.7925 26.1992 12.9739 26.5119 13.268 26.6799L23.1368 32.3192C23.2845 32.4035 23.4454 32.4437 23.6041 32.4437C23.7687 32.4437 23.9307 32.4004 24.0734 32.3191L24.0735 32.319L33.9419 26.6799C34.2358 26.5119 34.4173 26.1993 34.4173 25.8606V15.4279C34.4173 15.0894 34.2359 14.7768 33.9419 14.6087L33.9171 14.6521L33.9419 14.6087L24.0731 8.96929ZM15.6379 15.4279L23.6049 10.8754L31.5719 15.4279L23.6049 19.9805L15.6379 15.4279ZM14.6796 25.3131V17.0539L22.6613 21.6149V29.8741L14.6796 25.3131ZM32.5301 25.3131L24.5484 29.8741V21.6149L32.5301 17.0539V25.3131Z" fill="#2468EB" stroke="#2468EB" stroke-width="0.1"/>
<path d="M44.2957 16.6537H52.2582C53.3041 16.6537 54.1549 15.8029 54.1549 14.757V10.7419C54.1549 9.69603 53.3041 8.84526 52.2582 8.84526H44.2957C43.2497 8.84526 42.399 9.69603 42.399 10.7419V14.757C42.399 15.8029 43.2497 16.6537 44.2957 16.6537ZM44.2861 10.7419C44.2861 10.7367 44.2904 10.7324 44.2957 10.7324H52.2582C52.2634 10.7324 52.2678 10.7367 52.2678 10.7419V14.757C52.2678 14.7623 52.2634 14.7666 52.2582 14.7666H44.2957C44.2904 14.7666 44.2861 14.7623 44.2861 14.757V10.7419Z" fill="#2468EB" stroke="#2468EB" stroke-width="0.1"/>
<path d="M43.3425 28.496H53.2113C53.7324 28.496 54.1549 28.0736 54.1549 27.5525C54.1549 27.0314 53.7324 26.6089 53.2113 26.6089H43.3425C42.8214 26.6089 42.399 27.0314 42.399 27.5525C42.399 28.0736 42.8214 28.496 43.3425 28.496Z" fill="#2468EB" stroke="#2468EB" stroke-width="0.1"/>
<path d="M53.2113 30.5564H43.3425C42.8214 30.5564 42.399 30.9789 42.399 31.5C42.399 32.0211 42.8214 32.4436 43.3425 32.4436H53.2113C53.7324 32.4436 54.1549 32.0211 54.1549 31.5C54.1549 30.9789 53.7324 30.5564 53.2113 30.5564Z" fill="#2468EB" stroke="#2468EB" stroke-width="0.1"/>
</svg>
