<svg width="59" height="59" viewBox="0 0 59 59" fill="none" xmlns="http://www.w3.org/2000/svg">
<path d="M32.3081 31.3386V31.2886H32.2581H30.4194H30.3694V31.3386V33.1273H28.5807H28.5307V33.1773V35.016V35.066H28.5807H30.3694V36.8548V36.9048H30.4194H32.2581H32.3081V36.8548V35.066H34.0968H34.1468V35.016V33.1773V33.1273H34.0968H32.3081V31.3386Z" fill="#2468EB" stroke="#2468EB" stroke-width="0.1"/>
<mask id="path-2-outside-1" maskUnits="userSpaceOnUse" x="0" y="0" width="59" height="59" fill="black">
<rect fill="white" width="59" height="59"/>
<path d="M58 18.4677V9.27419H53.4032V5.81359L55.8102 1H45.4801L47.8871 5.81359V9.27419H45.5371C44.8992 8.18022 43.7262 7.43548 42.371 7.43548H27.6613C25.6331 7.43548 23.9839 9.08476 23.9839 11.1129H19.3871V7.43548H5.59677C3.06226 7.43548 1 9.49775 1 12.0323V12.9516H11.1129V14.7903H1V15.7097C1 18.2442 3.06226 20.3065 5.59677 20.3065H19.3871V16.629H23.9839C23.9839 18.6572 25.6331 20.3065 27.6613 20.3065H28.2498L25.2067 30.0463C24.4355 31.2081 23.9839 32.6001 23.9839 34.0968C23.9839 38.1522 27.2833 41.4516 31.3387 41.4516C31.7019 41.4516 32.0565 41.4166 32.4062 41.365L33.8943 48.8065H32.6091L30.7704 52.4839H28.5806V58H58V52.4839H55.8102L53.9715 48.8065H52.4839V41.8507L38.8314 33.6591L42.1685 20.3065H42.371C43.7262 20.3065 44.8992 19.5617 45.5371 18.4677H47.8871V21.009L45.4801 25.8226H55.8102L53.4032 21.009V18.4677H58ZM2.99583 11.1129C3.3756 10.0427 4.39775 9.27419 5.59677 9.27419H17.5484V11.1129H2.99583ZM17.5484 18.4677H5.59677C4.39775 18.4677 3.3756 17.6992 2.99583 16.629H17.5484V18.4677ZM19.3871 14.7903H12.9516V12.9516H23.9839V14.7903H19.3871ZM25.8226 34.0968C25.8226 31.0546 28.2965 28.5806 31.3387 28.5806C34.3809 28.5806 36.8548 31.0546 36.8548 34.0968C36.8548 37.139 34.3809 39.6129 31.3387 39.6129C28.2965 39.6129 25.8226 37.139 25.8226 34.0968ZM38.5319 35.6239L44.6043 39.2672L34.7697 43.8061L34.1843 40.8779C36.3759 39.955 38.0278 37.9995 38.5319 35.6239ZM46.3801 40.3329L49.5741 42.2498L35.6917 48.4195L35.14 45.6605L46.4335 40.4488L46.3801 40.3329ZM56.1613 56.1613H30.4194V54.3226H56.1613V56.1613ZM53.7543 52.4839H32.8264L33.7457 50.6452H52.8349L53.7543 52.4839ZM39.348 48.8065L50.6452 43.7859V48.8065H39.348ZM37.732 30.4755C36.4661 28.2498 34.0775 26.7419 31.3387 26.7419C30.0948 26.7419 28.9236 27.0544 27.8956 27.6025L30.1756 20.3065H40.275L37.732 30.4755ZM44.2097 16.629C44.2097 17.6431 43.385 18.4677 42.371 18.4677H27.6613C26.6472 18.4677 25.8226 17.6431 25.8226 16.629V11.1129C25.8226 10.0988 26.6472 9.27419 27.6613 9.27419H42.371C43.385 9.27419 44.2097 10.0988 44.2097 11.1129V16.629ZM52.8349 2.83871L51.9156 4.67742H49.3748L48.4554 2.83871H52.8349ZM49.7258 6.51613H51.5645V9.27419H49.7258V6.51613ZM56.1613 11.1129V12.9516H46.0484V11.1129H56.1613ZM46.0484 14.7903H56.1613V16.629H46.0484V14.7903ZM48.4554 23.9839L49.3748 22.1452H51.9156L52.8349 23.9839H48.4554ZM51.5645 20.3065H49.7258V18.4677H51.5645V20.3065Z"/>
</mask>
<path d="M58 18.4677V9.27419H53.4032V5.81359L55.8102 1H45.4801L47.8871 5.81359V9.27419H45.5371C44.8992 8.18022 43.7262 7.43548 42.371 7.43548H27.6613C25.6331 7.43548 23.9839 9.08476 23.9839 11.1129H19.3871V7.43548H5.59677C3.06226 7.43548 1 9.49775 1 12.0323V12.9516H11.1129V14.7903H1V15.7097C1 18.2442 3.06226 20.3065 5.59677 20.3065H19.3871V16.629H23.9839C23.9839 18.6572 25.6331 20.3065 27.6613 20.3065H28.2498L25.2067 30.0463C24.4355 31.2081 23.9839 32.6001 23.9839 34.0968C23.9839 38.1522 27.2833 41.4516 31.3387 41.4516C31.7019 41.4516 32.0565 41.4166 32.4062 41.365L33.8943 48.8065H32.6091L30.7704 52.4839H28.5806V58H58V52.4839H55.8102L53.9715 48.8065H52.4839V41.8507L38.8314 33.6591L42.1685 20.3065H42.371C43.7262 20.3065 44.8992 19.5617 45.5371 18.4677H47.8871V21.009L45.4801 25.8226H55.8102L53.4032 21.009V18.4677H58ZM2.99583 11.1129C3.3756 10.0427 4.39775 9.27419 5.59677 9.27419H17.5484V11.1129H2.99583ZM17.5484 18.4677H5.59677C4.39775 18.4677 3.3756 17.6992 2.99583 16.629H17.5484V18.4677ZM19.3871 14.7903H12.9516V12.9516H23.9839V14.7903H19.3871ZM25.8226 34.0968C25.8226 31.0546 28.2965 28.5806 31.3387 28.5806C34.3809 28.5806 36.8548 31.0546 36.8548 34.0968C36.8548 37.139 34.3809 39.6129 31.3387 39.6129C28.2965 39.6129 25.8226 37.139 25.8226 34.0968ZM38.5319 35.6239L44.6043 39.2672L34.7697 43.8061L34.1843 40.8779C36.3759 39.955 38.0278 37.9995 38.5319 35.6239ZM46.3801 40.3329L49.5741 42.2498L35.6917 48.4195L35.14 45.6605L46.4335 40.4488L46.3801 40.3329ZM56.1613 56.1613H30.4194V54.3226H56.1613V56.1613ZM53.7543 52.4839H32.8264L33.7457 50.6452H52.8349L53.7543 52.4839ZM39.348 48.8065L50.6452 43.7859V48.8065H39.348ZM37.732 30.4755C36.4661 28.2498 34.0775 26.7419 31.3387 26.7419C30.0948 26.7419 28.9236 27.0544 27.8956 27.6025L30.1756 20.3065H40.275L37.732 30.4755ZM44.2097 16.629C44.2097 17.6431 43.385 18.4677 42.371 18.4677H27.6613C26.6472 18.4677 25.8226 17.6431 25.8226 16.629V11.1129C25.8226 10.0988 26.6472 9.27419 27.6613 9.27419H42.371C43.385 9.27419 44.2097 10.0988 44.2097 11.1129V16.629ZM52.8349 2.83871L51.9156 4.67742H49.3748L48.4554 2.83871H52.8349ZM49.7258 6.51613H51.5645V9.27419H49.7258V6.51613ZM56.1613 11.1129V12.9516H46.0484V11.1129H56.1613ZM46.0484 14.7903H56.1613V16.629H46.0484V14.7903ZM48.4554 23.9839L49.3748 22.1452H51.9156L52.8349 23.9839H48.4554ZM51.5645 20.3065H49.7258V18.4677H51.5645V20.3065Z" fill="#2468EB"/>
<path d="M58 18.4677V9.27419H53.4032V5.81359L55.8102 1H45.4801L47.8871 5.81359V9.27419H45.5371C44.8992 8.18022 43.7262 7.43548 42.371 7.43548H27.6613C25.6331 7.43548 23.9839 9.08476 23.9839 11.1129H19.3871V7.43548H5.59677C3.06226 7.43548 1 9.49775 1 12.0323V12.9516H11.1129V14.7903H1V15.7097C1 18.2442 3.06226 20.3065 5.59677 20.3065H19.3871V16.629H23.9839C23.9839 18.6572 25.6331 20.3065 27.6613 20.3065H28.2498L25.2067 30.0463C24.4355 31.2081 23.9839 32.6001 23.9839 34.0968C23.9839 38.1522 27.2833 41.4516 31.3387 41.4516C31.7019 41.4516 32.0565 41.4166 32.4062 41.365L33.8943 48.8065H32.6091L30.7704 52.4839H28.5806V58H58V52.4839H55.8102L53.9715 48.8065H52.4839V41.8507L38.8314 33.6591L42.1685 20.3065H42.371C43.7262 20.3065 44.8992 19.5617 45.5371 18.4677H47.8871V21.009L45.4801 25.8226H55.8102L53.4032 21.009V18.4677H58ZM2.99583 11.1129C3.3756 10.0427 4.39775 9.27419 5.59677 9.27419H17.5484V11.1129H2.99583ZM17.5484 18.4677H5.59677C4.39775 18.4677 3.3756 17.6992 2.99583 16.629H17.5484V18.4677ZM19.3871 14.7903H12.9516V12.9516H23.9839V14.7903H19.3871ZM25.8226 34.0968C25.8226 31.0546 28.2965 28.5806 31.3387 28.5806C34.3809 28.5806 36.8548 31.0546 36.8548 34.0968C36.8548 37.139 34.3809 39.6129 31.3387 39.6129C28.2965 39.6129 25.8226 37.139 25.8226 34.0968ZM38.5319 35.6239L44.6043 39.2672L34.7697 43.8061L34.1843 40.8779C36.3759 39.955 38.0278 37.9995 38.5319 35.6239ZM46.3801 40.3329L49.5741 42.2498L35.6917 48.4195L35.14 45.6605L46.4335 40.4488L46.3801 40.3329ZM56.1613 56.1613H30.4194V54.3226H56.1613V56.1613ZM53.7543 52.4839H32.8264L33.7457 50.6452H52.8349L53.7543 52.4839ZM39.348 48.8065L50.6452 43.7859V48.8065H39.348ZM37.732 30.4755C36.4661 28.2498 34.0775 26.7419 31.3387 26.7419C30.0948 26.7419 28.9236 27.0544 27.8956 27.6025L30.1756 20.3065H40.275L37.732 30.4755ZM44.2097 16.629C44.2097 17.6431 43.385 18.4677 42.371 18.4677H27.6613C26.6472 18.4677 25.8226 17.6431 25.8226 16.629V11.1129C25.8226 10.0988 26.6472 9.27419 27.6613 9.27419H42.371C43.385 9.27419 44.2097 10.0988 44.2097 11.1129V16.629ZM52.8349 2.83871L51.9156 4.67742H49.3748L48.4554 2.83871H52.8349ZM49.7258 6.51613H51.5645V9.27419H49.7258V6.51613ZM56.1613 11.1129V12.9516H46.0484V11.1129H56.1613ZM46.0484 14.7903H56.1613V16.629H46.0484V14.7903ZM48.4554 23.9839L49.3748 22.1452H51.9156L52.8349 23.9839H48.4554ZM51.5645 20.3065H49.7258V18.4677H51.5645V20.3065Z" stroke="#2468EB" stroke-width="0.2" mask="url(#path-2-outside-1)"/>
<path d="M31.3388 11.063C29.7907 11.063 28.5307 12.3231 28.5307 13.8711C28.5307 15.4192 29.7907 16.6792 31.3388 16.6792C32.8868 16.6792 34.1468 15.4192 34.1468 13.8711C34.1468 12.3231 32.8868 11.063 31.3388 11.063ZM31.3388 14.7405C30.8591 14.7405 30.4694 14.3499 30.4694 13.8711C30.4694 13.3923 30.8591 13.0017 31.3388 13.0017C31.8184 13.0017 32.2081 13.3923 32.2081 13.8711C32.2081 14.3499 31.8184 14.7405 31.3388 14.7405Z" fill="#2468EB" stroke="#2468EB" stroke-width="0.1"/>
<path d="M38.6935 11.063C37.1454 11.063 35.8854 12.3231 35.8854 13.8711C35.8854 15.4192 37.1454 16.6792 38.6935 16.6792C40.2415 16.6792 41.5016 15.4192 41.5016 13.8711C41.5016 12.3231 40.2415 11.063 38.6935 11.063ZM38.6935 14.7405C38.2139 14.7405 37.8241 14.3499 37.8241 13.8711C37.8241 13.3923 38.2139 13.0017 38.6935 13.0017C39.1731 13.0017 39.5628 13.3923 39.5628 13.8711C39.5628 14.3499 39.1731 14.7405 38.6935 14.7405Z" fill="#2468EB" stroke="#2468EB" stroke-width="0.1"/>
<path d="M21.7661 41.0929L21.7953 41.0578L21.763 41.0255L17.9743 37.2359L17.942 37.2036L17.9069 37.2329L16.1503 38.7C15.7671 38.509 15.3716 38.3454 14.9651 38.2096L14.7611 35.9308L14.757 35.8853H14.7113H9.3532H9.30749L9.3034 35.9308L9.09849 38.2105C8.692 38.3463 8.29614 38.5099 7.91326 38.7013L6.15674 37.2338L6.12165 37.2045L6.08933 37.2368L2.30058 41.0264L2.26827 41.0587L2.29755 41.0938L3.76377 42.8504C3.57279 43.2328 3.4092 43.6282 3.27339 44.0347L0.99554 44.2387L0.95 44.2428V44.2885V49.6466V49.6923L0.995524 49.6964L3.27514 49.9013C3.41018 50.3071 3.57457 50.7036 3.76598 51.0857L2.29935 52.8422L2.27006 52.8773L2.30237 52.9096L6.09112 56.6992L6.12344 56.7316L6.15853 56.7023L7.91509 55.2351C8.29832 55.4261 8.69377 55.5897 9.10026 55.7255L9.3034 58.0043L9.30746 58.0498H9.3532H14.7113H14.757L14.7611 58.0043L14.966 55.7246C15.3725 55.5888 15.7684 55.4252 16.1513 55.2338L17.9078 56.7014L17.9429 56.7307L17.9752 56.6983L21.7639 52.9087L21.7962 52.8764L21.767 52.8413L20.3008 51.0848C20.4917 50.7023 20.6553 50.3069 20.7911 49.9004L23.069 49.6964L23.1145 49.6923V49.6466V44.2885V44.2428L23.069 44.2387L20.7894 44.0338C20.6543 43.6272 20.49 43.2314 20.2998 42.8495L21.7661 41.0929ZM19.3099 48.0881L19.2746 48.0912L19.2659 48.1256L19.1061 48.7581L19.1061 48.7582C18.9335 49.4439 18.6625 50.0987 18.2996 50.7037L18.2996 50.7037L17.9651 51.264L17.947 51.2944L17.9697 51.3217L19.1713 52.7603L17.825 54.1075L16.3855 52.905L16.3582 52.8822L16.3277 52.9005L15.7684 53.2349L15.7684 53.2349C15.1643 53.5964 14.5094 53.868 13.8219 54.0414L13.8219 54.0414L13.1894 54.2012L13.155 54.2099L13.1519 54.2452L12.9849 56.1111H11.0796L10.9118 54.2452L10.9086 54.2099L10.8742 54.2012L10.2417 54.0414L10.2417 54.0414C9.55419 53.868 8.89928 53.5964 8.29523 53.2349L7.7368 52.9005L7.70633 52.8822L7.67907 52.905L6.23951 54.1066L4.89324 52.7594L6.09482 51.3217L6.11757 51.2944L6.09938 51.264L5.76495 50.7037L5.76494 50.7037C5.40338 50.0987 5.13186 49.4438 4.95843 48.7581L4.79862 48.1256L4.78993 48.0912L4.75462 48.0881L2.88871 47.9202V46.0149L4.75462 45.8471L4.78993 45.8439L4.79862 45.8095L4.95843 45.177L4.95844 45.177C5.13098 44.4913 5.40203 43.8364 5.7649 43.2315L5.76495 43.2314L6.09938 42.6711L6.11757 42.6407L6.09483 42.6135L4.89323 41.1748L6.2395 39.8277L7.67906 41.0301L7.7063 41.0529L7.73677 41.0347L8.2961 40.7002L8.29612 40.7002C8.90018 40.3387 9.55509 40.0672 10.2426 39.8937L10.2426 39.8937L10.8751 39.7339L10.9095 39.7252L10.9127 39.6899L11.0796 37.824H12.9849L13.1528 39.6899L13.1559 39.7252L13.1903 39.7339L13.8228 39.8937L13.8228 39.8937C14.5103 40.0672 15.1652 40.3387 15.7693 40.7002L16.3277 41.0347L16.3582 41.0529L16.3854 41.0301L17.825 39.8285L19.1713 41.1757L17.9697 42.6135L17.9469 42.6407L17.9651 42.6711L18.2996 43.2314L18.2996 43.2314C18.6611 43.8364 18.9327 44.4913 19.1061 45.177L19.2659 45.8095L19.2746 45.8439L19.3099 45.8471L21.1758 46.0149V47.9202L19.3099 48.0881Z" fill="#2468EB" stroke="#2468EB" stroke-width="0.1"/>
<path d="M12.0322 41.4017C8.96241 41.4017 6.46611 43.898 6.46611 46.9678C6.46611 50.0376 8.96241 52.5339 12.0322 52.5339C15.1021 52.5339 17.5984 50.0376 17.5984 46.9678C17.5984 43.898 15.1021 41.4017 12.0322 41.4017ZM12.0322 50.5952C10.0317 50.5952 8.40482 48.9683 8.40482 46.9678C8.40482 44.9673 10.0317 43.3404 12.0322 43.3404C14.0328 43.3404 15.6597 44.9673 15.6597 46.9678C15.6597 48.9683 14.0328 50.5952 12.0322 50.5952Z" fill="#2468EB" stroke="#2468EB" stroke-width="0.1"/>
<path d="M11.1129 22.095H11.0629V22.145V23.9837V24.0337H11.1129H12.9516H13.0016V23.9837V22.145V22.095H12.9516H11.1129Z" fill="#2468EB" stroke="#2468EB" stroke-width="0.1"/>
<path d="M11.1129 25.7725H11.0629V25.8225V27.6612V27.7112H11.1129H12.9516H13.0016V27.6612V25.8225V25.7725H12.9516H11.1129Z" fill="#2468EB" stroke="#2468EB" stroke-width="0.1"/>
<path d="M11.1129 29.45H11.0629V29.5V31.3387V31.3887H11.1129H12.9516H13.0016V31.3387V29.5V29.45H12.9516H11.1129Z" fill="#2468EB" stroke="#2468EB" stroke-width="0.1"/>
</svg>
