<svg width="294" height="94" viewBox="0 0 294 94" xmlns="http://www.w3.org/2000/svg">
    <title>
        iPhone XS
    </title>
    <g fill="none" fill-rule="evenodd">
        <path d="M134.119 52.089c.71.21 1.287.577 1.732 1.102.445.525.668 1.158.668 1.898 0 1.08-.363 1.925-1.088 2.535-.725.61-1.612.915-2.662.915-.82 0-1.553-.188-2.198-.563-.645-.375-1.112-.927-1.402-1.657l1.77-1.02c.26.81.87 1.215 1.83 1.215.53 0 .942-.128 1.237-.383.295-.255.443-.602.443-1.042 0-.43-.148-.775-.443-1.035-.295-.26-.707-.39-1.237-.39h-.45l-.795-1.2 2.07-2.7h-4.11v-1.935h6.6v1.71l-1.965 2.55zm8.655-.855c1.09.03 1.975.382 2.655 1.057.68.675 1.02 1.538 1.02 2.588 0 1.07-.355 1.947-1.065 2.632s-1.625 1.028-2.745 1.028-2.033-.34-2.738-1.02c-.705-.68-1.057-1.56-1.057-2.64 0-.8.205-1.505.615-2.115l3.27-4.935h2.37l-2.325 3.405zm-1.38 4.89c.33.31.745.465 1.245.465.5 0 .917-.155 1.252-.465.335-.31.503-.725.503-1.245 0-.51-.168-.92-.503-1.23-.335-.31-.752-.465-1.252-.465s-.915.152-1.245.457c-.33.305-.495.718-.495 1.238s.165.935.495 1.245zm11.625 2.415c-1.31 0-2.338-.498-3.083-1.493-.745-.995-1.117-2.317-1.117-3.967s.372-2.973 1.117-3.968c.745-.995 1.773-1.492 3.083-1.492 1.32 0 2.35.497 3.09 1.492.74.995 1.11 2.318 1.11 3.968s-.37 2.972-1.11 3.967c-.74.995-1.77 1.493-3.09 1.493zm-1.59-2.895c.36.58.89.87 1.59.87.7 0 1.232-.295 1.597-.885.365-.59.548-1.44.548-2.55 0-1.12-.183-1.975-.548-2.565-.365-.59-.897-.885-1.597-.885s-1.23.295-1.59.885c-.36.59-.54 1.445-.54 2.565 0 1.12.18 1.975.54 2.565z" fill="#2468EB"/>
        <path d="M164.674 48.709c-.514.506-1.14.76-1.88.76s-1.365-.255-1.875-.765-.765-1.135-.765-1.875.255-1.365.765-1.875 1.135-.765 1.875-.765 1.366.255 1.88.765c.513.51.77 1.135.77 1.875s-.257 1.366-.77 1.88zm-2.85-.89c.26.26.583.39.97.39.386 0 .71-.13.97-.39s.39-.59.39-.99-.13-.73-.39-.99-.584-.39-.97-.39a1.3 1.3 0 0 0-.965.39c-.257.26-.385.59-.385.99s.126.73.38.99z" fill="#2468EB"/>
        <path d="M16.2 32.015C54.61 66.51 98.206 81.99 147.015 78.473c48.84-3.52 91.044-24.587 126.633-63.217a4.5 4.5 0 1 1 .742.67c-35.76 38.818-78.2 60.005-127.303 63.544C98 83.008 54.136 67.43 15.524 32.752a4.5 4.5 0 1 1 .676-.737zm-.973-.381a3.5 3.5 0 1 0-.173.188.501.501 0 0 1 .173-.188z" fill="#B7C6E3" fill-rule="nonzero"/>
    </g>
</svg>
