<svg xmlns="http://www.w3.org/2000/svg" width="415" height="141" viewBox="0 0 415 141">
    <g fill="none" fill-rule="evenodd">
        <path fill="#2468EB" d="M174.789 80.147c.878.558 1.516 1.279 1.914 2.16.398.882.454 1.823.167 2.823-.419 1.459-1.236 2.46-2.452 3.004-1.215.543-2.533.611-3.951.204-1.108-.317-2.025-.855-2.752-1.611-.726-.757-1.143-1.684-1.252-2.783l2.786-.692c.038 1.195.705 1.978 2.002 2.35.716.206 1.323.193 1.82-.037.498-.23.832-.643 1.002-1.237.167-.581.101-1.104-.197-1.57-.298-.466-.805-.801-1.52-1.006l-.609-.175-.609-1.93 3.843-2.845-5.553-1.592.75-2.615 8.917 2.557-.663 2.31-3.642 2.685zm12.026 2.198c1.46.462 2.52 1.282 3.177 2.457.657 1.175.783 2.473.376 3.891-.415 1.446-1.234 2.494-2.459 3.144-1.225.65-2.594.76-4.107.325-1.513-.434-2.614-1.247-3.303-2.439-.69-1.191-.825-2.517-.406-3.976.31-1.081.86-1.954 1.65-2.62l6.33-5.4 3.202.918-4.46 3.7zm-3.76 6.072c.326.547.827.917 1.503 1.11.675.194 1.3.147 1.872-.142.573-.29.96-.785 1.161-1.488.198-.689.13-1.308-.202-1.857-.333-.548-.837-.92-1.512-1.113-.676-.194-1.296-.148-1.86.136-.564.284-.946.777-1.148 1.48-.201.703-.14 1.327.187 1.874zm14.772 7.767c-1.77-.508-2.966-1.578-3.587-3.211-.621-1.633-.612-3.564.027-5.794.64-2.229 1.655-3.871 3.047-4.927 1.392-1.056 2.973-1.33 4.743-.822 1.784.51 2.983 1.582 3.597 3.213.614 1.631.602 3.561-.037 5.79-.64 2.23-1.652 3.874-3.037 4.931-1.385 1.058-2.97 1.331-4.753.82zm-1.027-4.528c.262.923.865 1.52 1.811 1.792.946.27 1.78.079 2.501-.577.722-.656 1.298-1.734 1.728-3.233.434-1.514.519-2.74.254-3.678-.264-.939-.87-1.544-1.815-1.815-.946-.271-1.777-.078-2.492.58-.714.658-1.289 1.743-1.723 3.256-.434 1.514-.522 2.739-.264 3.675zm20.906-4.432c-.89.486-1.835.585-2.835.299-1-.287-1.745-.874-2.237-1.76-.491-.887-.594-1.83-.307-2.83s.874-1.746 1.76-2.237c.887-.492 1.83-.594 2.83-.307 1 .286 1.748.874 2.244 1.762.496.888.6 1.832.314 2.831-.287 1-.877 1.747-1.77 2.242zm-3.506-2.307c.25.452.637.753 1.16.903.522.15 1.01.1 1.461-.15.452-.251.756-.647.91-1.187.156-.54.108-1.037-.143-1.49-.25-.451-.637-.752-1.16-.902-.522-.15-1.007-.099-1.454.153-.448.252-.749.648-.904 1.189-.155.54-.112 1.035.13 1.484z"/>
        <path fill="#B7C6E3" fill-rule="nonzero" d="M3.332 34.048c59.768 48.66 124.83 78.284 195.194 88.88 70.343 10.592 140.212 5.461 209.616-15.395a5.506 5.506 0 0 1 3.804-6.196c2.904-.892 5.983.746 6.876 3.657.894 2.911-.736 5.994-3.64 6.885a5.505 5.505 0 0 1-6.628-3.002c-69.604 20.917-139.686 26.065-210.238 15.44C127.696 113.684 62.4 83.953 2.439 35.134c-2.004 1.872-5.19 1.96-7.428.114-2.425-2-2.832-5.528-.89-7.882 1.941-2.354 5.482-2.625 7.908-.625 2.234 1.844 2.755 4.984 1.304 7.308zm-1.365-.49c1.286-1.743.943-4.268-.834-5.733-1.835-1.514-4.49-1.311-5.93.434-1.439 1.746-1.134 4.39.702 5.904 1.776 1.466 4.32 1.322 5.787-.272a.698.698 0 0 1 .275-.333z"/>
        <path d="M-11.85-12.157h444.158v195.373H-11.85z"/>
    </g>
</svg>
