<svg width="305" height="118" viewBox="0 0 305 118" xmlns="http://www.w3.org/2000/svg">
    <title>
        iPhone XS
    </title>
    <g fill="none" fill-rule="evenodd">
        <path d="M129.895 66.044c.625.398 1.079.91 1.362 1.537.283.628.322 1.297.118 2.008-.297 1.038-.879 1.75-1.744 2.137s-1.802.435-2.811.146c-.789-.226-1.441-.608-1.958-1.146-.516-.539-.813-1.199-.89-1.98l1.982-.493c.026.85.501 1.408 1.424 1.672.51.147.941.138 1.295-.026s.591-.457.713-.88c.118-.414.071-.786-.14-1.117-.212-.331-.573-.57-1.083-.716l-.432-.124-.434-1.373 2.734-2.025-3.95-1.133.533-1.86 6.344 1.82-.471 1.643-2.592 1.91zm8.556 1.564c1.04.329 1.793.912 2.26 1.748.468.836.557 1.76.268 2.768-.295 1.029-.878 1.775-1.75 2.237-.871.463-1.845.54-2.922.232-1.076-.31-1.86-.888-2.35-1.736s-.586-1.79-.289-2.829c.22-.769.612-1.39 1.174-1.863l4.504-3.843 2.278.653-3.173 2.633zm-2.675 4.32c.232.389.588.652 1.069.79.48.138.925.104 1.332-.102.407-.205.683-.558.826-1.058.14-.49.093-.93-.144-1.32-.236-.391-.595-.655-1.076-.793-.48-.138-.921-.106-1.322.097-.402.202-.674.553-.817 1.053-.144.5-.1.944.132 1.333zm10.51 5.526c-1.26-.361-2.11-1.123-2.552-2.285-.442-1.162-.436-2.535.019-4.122.455-1.586 1.177-2.754 2.168-3.505.99-.751 2.115-.946 3.374-.585 1.27.363 2.122 1.126 2.56 2.286.436 1.16.427 2.534-.027 4.12-.455 1.586-1.175 2.755-2.161 3.508-.986.752-2.113.946-3.382.583zm-.731-3.221c.186.656.616 1.081 1.288 1.274.673.193 1.266.056 1.78-.41.513-.467.923-1.234 1.23-2.3.308-1.077.368-1.95.18-2.617-.188-.668-.619-1.098-1.292-1.291-.673-.193-1.263-.056-1.772.412-.509.468-.918 1.24-1.226 2.317-.309 1.077-.372 1.948-.188 2.615z" fill="#2468EB"/>
        <path d="M160.428 71.08c-.633.345-1.305.416-2.016.212-.712-.204-1.242-.622-1.592-1.253-.35-.63-.422-1.301-.218-2.013.204-.711.621-1.242 1.252-1.591.63-.35 1.302-.423 2.013-.219.711.204 1.244.622 1.596 1.254.353.631.428 1.303.224 2.014a2.558 2.558 0 0 1-1.259 1.595zm-2.494-1.642c.178.322.453.536.825.642.372.107.718.071 1.04-.107.322-.178.538-.46.648-.844.11-.385.076-.738-.102-1.06a1.317 1.317 0 0 0-.825-.642 1.3 1.3 0 0 0-1.035.11c-.319.178-.533.46-.643.845-.11.384-.08.736.092 1.056z" fill="#2468EB"/>
        <path d="M8.258 33.53c42.427 34.451 88.6 55.433 138.525 62.95 49.854 7.508 99.375 3.914 148.567-10.782a4.5 4.5 0 1 1 .292.956C246.308 101.394 196.637 105 146.634 97.47 96.526 89.924 50.187 68.866 7.622 34.3a4.5 4.5 0 1 1 .636-.772zm-.968-.36a3.5 3.5 0 1 0-.21.254.5.5 0 0 1 .21-.255z" fill="#B7C6E3" fill-rule="nonzero"/>
    </g>
</svg>
