<svg width="122" height="40" viewBox="0 0 122 40" fill="none" xmlns="http://www.w3.org/2000/svg">
<path d="M47.3919 1H30.6081C30.2838 1 30 0.810811 30 0.594595V0.405405C30 0.189189 30.2838 0 30.6081 0H47.3919C47.7162 0 48 0.189189 48 0.405405V0.594595C48 0.837838 47.7162 1 47.3919 1Z" fill="#010101"/>
<path d="M96.7573 15.457C96.4337 15.1719 95.9888 15.1719 95.6652 15.457C94.0067 16.9638 91.8629 17.7376 89.3955 17.7376C84.582 17.7376 80.6584 14.276 80.6584 10.0407C80.6584 5.84615 84.582 2.42534 89.3955 2.42534C91.8629 2.42534 94.0067 3.1991 95.6652 4.70588C95.9888 4.99095 96.4337 4.99095 96.7573 4.70588C96.9191 4.54299 97 4.38009 97 4.21719C97 4.0543 96.9191 3.8914 96.7573 3.72851C94.8157 1.97738 92.1865 1 89.3551 1C83.6517 1 79 5.03167 79 10C79 14.9683 83.6517 19 89.3551 19C92.1865 19 94.7753 18.0226 96.7573 16.3529C96.9191 16.19 97 16.0271 97 15.8643C97 15.7421 96.9191 15.6199 96.7573 15.457Z" fill="#010101"/>
<path d="M84.7727 16.9412C84.2273 16.7059 83.7273 16.4314 83.2727 16.0784L83.1364 16L82 16.9804L82.1364 17.0588C82.6364 17.4118 83.1818 17.6863 83.7273 17.9608L83.8636 18L85 16.9804L84.7727 16.9412Z" fill="#E82022"/>
<path d="M121.669 1.19324L121.386 1.07155C121.102 0.909305 120.737 1.03099 120.575 1.35549L113 16.8502L105.424 1.35549C105.262 1.07155 104.898 0.949867 104.614 1.07155L104.331 1.19324C104.047 1.35549 103.925 1.72055 104.047 2.00448L112.19 18.6755C112.23 18.8378 112.352 18.9189 112.514 18.9594C112.554 19 112.676 19 112.716 19H113.202C113.283 19 113.364 18.9594 113.445 18.9594C113.567 18.9189 113.688 18.7972 113.729 18.6755L121.872 2.00448C122.115 1.72055 121.993 1.35549 121.669 1.19324Z" fill="#010101"/>
<path d="M41.3617 10H30.6383C30.2979 10 30 9.81081 30 9.59459V9.40541C30 9.18919 30.2979 9 30.6383 9H41.3617C41.7021 9 42 9.18919 42 9.40541V9.59459C42 9.81081 41.7021 10 41.3617 10Z" fill="#010101"/>
<path d="M47.3919 18H30.6081C30.2838 18 30 17.8108 30 17.5946V17.4054C30 17.1892 30.2838 17 30.6081 17H47.3919C47.7162 17 48 17.1892 48 17.4054V17.5946C48 17.8108 47.7162 18 47.3919 18Z" fill="#010101"/>
<path d="M67.1908 9L74.7939 1.37594C75.0687 1.10526 75.0687 0.654135 74.7939 0.428571L74.5649 0.203008C74.2901 -0.0676692 73.8321 -0.0676692 73.6031 0.203008L66 7.82707L67.1908 9Z" fill="#E82022"/>
<path d="M63.8571 10C61 12.9067 58.0989 15.7701 55.1978 18.6768C54.9341 18.9371 54.9341 19.3709 55.1978 19.5879L55.4176 19.8048C55.6813 20.0651 56.1209 20.0651 56.3407 19.8048C59.1978 16.898 62.1429 13.9913 65 11.0846C64.6484 10.7375 64.2527 10.3905 63.8571 10Z" fill="#010101"/>
<path d="M55.1824 1.23649L71.7635 17.8176C72.0068 18.0608 72.3716 18.0608 72.6149 17.8176L72.8176 17.6149C73.0608 17.3716 73.0608 17.0068 72.8176 16.7635L56.2365 0.182432C55.9932 -0.0608108 55.6284 -0.0608108 55.3851 0.182432L55.1824 0.385135C54.9392 0.628378 54.9392 0.993243 55.1824 1.23649Z" fill="#010101"/>
<path fill-rule="evenodd" clip-rule="evenodd" d="M7.63524 15.5835C7.24701 16.4585 6.34112 17.2085 5.26269 17.5418C4.61563 17.7502 3.06269 18.1252 2.07054 17.4168C1.94112 17.3335 1.85485 17.2085 1.85485 17.0418C1.50975 17.5002 1.20779 17.9585 0.992104 18.3752C0.905829 18.5418 0.776418 18.6252 0.603869 18.6252C0.5823 18.6252 0.549947 18.6147 0.517594 18.6043C0.485241 18.5939 0.452888 18.5835 0.43132 18.5835C0.215633 18.5002 0.0862217 18.2502 0.129359 18.0418C0.560731 16.8335 1.16465 15.5418 1.94112 14.1252C2.11367 13.8127 2.27544 13.5106 2.4372 13.2085C2.59897 12.9064 2.76073 12.6043 2.93328 12.2918C3.23524 11.6668 3.58034 11.0418 3.92544 10.4585C4.61563 9.29183 5.34897 8.0835 6.0823 6.9585C6.15798 6.8467 6.23412 6.73401 6.31077 6.62057C6.97682 5.6348 7.68114 4.5924 8.45485 3.5835C8.84308 3.04183 9.23132 2.50016 9.74897 1.91683L9.92152 1.7085C10.2666 1.2085 10.6548 0.750163 11.1294 0.291829C11.1725 0.250163 11.2588 0.208496 11.3882 0.208496C11.5176 0.250163 11.647 0.333496 11.6901 0.458496C11.7333 0.583496 11.7333 0.708496 11.647 0.791829C11.3882 1.2085 11.0862 1.5835 10.7843 1.9585L10.7842 1.95851C10.5686 2.20851 10.3529 2.4585 10.1803 2.7085C10.0725 2.85433 9.95387 3.01058 9.83524 3.16683C9.71661 3.32308 9.59799 3.47933 9.49014 3.62516C9.3823 3.771 9.26367 3.92725 9.14504 4.0835C9.02642 4.23975 8.90779 4.396 8.79995 4.54183C7.33328 6.5835 5.90975 8.8335 4.44308 11.3752C4.2274 11.7085 4.05485 12.0418 3.88231 12.3751L3.8823 12.3752C3.64505 12.7918 3.40779 13.2189 3.17054 13.646C2.93328 14.0731 2.69603 14.5002 2.45877 14.9168C2.45877 14.9377 2.44799 14.9481 2.4372 14.9585C2.42642 14.9689 2.41563 14.9793 2.41563 15.0002C2.54505 14.8752 2.63132 14.7918 2.76073 14.7085C3.96857 13.7918 5.13328 13.3335 6.25485 13.2918C6.72936 13.2918 7.37642 13.3752 7.67838 13.9168C7.89406 14.3752 7.89406 15.0002 7.63524 15.5835ZM6.68622 14.2085C6.25485 14.0835 5.78034 14.2085 5.30583 14.3335C3.8823 14.7918 2.76073 15.7502 1.94112 16.7918H2.07054H2.11367C3.06269 16.8752 4.14112 16.9168 5.09014 16.5835C5.95289 16.2502 6.55681 15.7085 6.7725 15.1252C6.90191 14.8752 6.94504 14.5835 6.85877 14.3752C6.81563 14.2918 6.7725 14.2502 6.68622 14.2085Z" fill="black"/>
<path fill-rule="evenodd" clip-rule="evenodd" d="M21.2236 15.5417C21.3961 15.4583 21.6118 15.5417 21.6981 15.7083C21.7844 15.875 21.7412 16.0417 21.4824 16.0417C21.1804 16.1667 20.8785 16.3333 20.6197 16.5C20.581 16.5249 20.5463 16.5497 20.513 16.5735C20.4349 16.6294 20.3654 16.6791 20.2746 16.7083C17.7295 18.1667 15.3138 19.9583 13.0706 22.0833C12.9303 22.6596 12.7613 23.2083 12.5871 23.7742C12.5472 23.9039 12.5069 24.0346 12.4667 24.1667C12.3589 24.5208 12.251 24.8854 12.1432 25.25C12.0353 25.6146 11.9275 25.9792 11.8197 26.3333C11.1295 28.5417 10.4393 30.5833 9.61966 32.5C9.55496 32.625 9.50103 32.75 9.44711 32.875C9.39319 33 9.33927 33.125 9.27456 33.25C8.54123 34.9583 7.76476 36.7083 6.60005 38.1667C6.12555 38.8333 5.34907 39.75 4.22751 39.9167C4.09809 39.9583 4.01182 39.9583 3.88241 39.9583C3.49417 39.9583 3.14907 39.8333 2.89025 39.625C2.45888 39.3333 2.32947 38.8333 2.28633 38.5C2.16222 37.5809 2.43487 36.6618 2.68573 35.8162C2.69644 35.7801 2.7071 35.7442 2.7177 35.7083L2.76084 35.5417C3.0628 34.5417 3.53731 33.5417 4.09809 32.4583C5.953 28.9583 8.41182 25.6667 11.3452 22.625C11.604 22.3333 11.9059 22.0417 12.2079 21.75L12.2079 21.75C12.6393 20.3333 13.2001 18.5833 13.9334 16.875C13.8192 16.9742 13.7051 17.0764 13.5886 17.1806C13.2647 17.4705 12.9223 17.7769 12.5099 18.0833C12.3655 18.1763 12.2245 18.2725 12.0841 18.3683C11.7209 18.6161 11.3613 18.8614 10.9569 19.0417C10.3961 19.3333 9.53339 19.5417 8.92947 19.25C8.58437 19.125 8.41182 18.8333 8.32554 18.4583C8.19613 17.875 8.54123 17.2083 8.80005 16.7083L8.88633 16.5833C9.18829 16 9.57653 15.4583 9.92162 15C10.2667 14.5 10.6981 14 11.1726 13.5C11.3883 13.25 11.6471 13.0417 11.9491 12.8333C12.2079 12.625 12.5099 12.5 12.8118 12.375H12.8981C13.0275 12.375 13.1138 12.4583 13.1569 12.5417L13.2001 12.6667L13.0706 12.7917C12.9412 12.875 12.8118 13 12.6824 13.125L12.2942 13.5C12.0785 13.6667 11.8628 13.875 11.6471 14.125C11.2157 14.625 10.7844 15.1667 10.3961 15.7083C10.051 16.1667 9.79221 16.625 9.57653 17.0417C9.53646 17.132 9.4964 17.2183 9.45761 17.3018C9.37112 17.4881 9.29099 17.6607 9.23143 17.8333C9.14515 18.0417 9.10202 18.2917 9.18829 18.4583C9.3177 18.6667 9.6628 18.625 10.051 18.5417C10.4824 18.375 10.9138 18.0833 11.2589 17.8333C13.0706 16.625 14.6236 15 15.9177 13.0417C16.0903 12.8333 16.3491 12.7917 16.5648 12.9167C16.7804 13.0833 16.8667 13.3333 16.7373 13.5417L16.7373 13.5417C16.4785 13.9584 16.2197 14.375 16.004 14.7917C15.1412 16.375 14.3648 18.2083 13.6314 20.5C14.3216 19.875 15.0981 19.25 16.004 18.5833C16.0915 18.5223 16.1796 18.4606 16.2684 18.3986C16.9669 17.9101 17.7071 17.3926 18.5491 16.875C19.2393 16.4583 19.9295 16.125 20.6197 15.8333C20.8354 15.7083 21.0079 15.625 21.2236 15.5417ZM11.3452 25.0417L11.604 24.125C11.6903 23.9167 11.7334 23.7083 11.7334 23.5833C11.6903 23.6458 11.6363 23.6979 11.5824 23.75C11.5285 23.8021 11.4746 23.8542 11.4314 23.9167L11.1295 24.2083C8.23927 27.3333 5.99613 30.5833 4.44319 33.8333L4.43395 33.8545C4.08966 34.6443 3.62128 35.7187 3.36476 36.875C3.35808 36.9105 3.35141 36.9457 3.34477 36.9807C3.26565 37.3981 3.19221 37.7855 3.19221 38.2083C3.19221 38.5417 3.19221 38.8333 3.45104 39.0417C3.753 39.2083 4.18437 39.125 4.48633 39C4.9177 38.8333 5.21966 38.5417 5.52162 38.2083C6.21182 37.4167 6.7726 36.5 7.20398 35.7083C7.50594 35.125 7.76476 34.5417 8.02358 33.9583C8.08687 33.8208 8.14435 33.6889 8.20028 33.5605C8.29686 33.3388 8.38883 33.1278 8.49809 32.9167C9.05888 31.75 9.44711 30.7917 9.74907 29.875C10.353 28.2917 10.8706 26.625 11.3452 25.0417Z" fill="black"/>
</svg>
