<svg xmlns="http://www.w3.org/2000/svg" width="64" height="67" viewBox="0 0 64 67">
    <g fill="#2468EB" stroke="#2468EB" stroke-width=".3">
        <path d="M11.5 32c2.206 0 4-1.794 4-4s-1.794-4-4-4-4 1.794-4 4 1.794 4 4 4zm0-6.063c1.137 0 2.063.926 2.063 2.063s-.926 2.063-2.063 2.063S9.437 29.137 9.437 28s.926-2.063 2.063-2.063zM22.5 32c2.206 0 4-1.794 4-4s-1.794-4-4-4-4 1.794-4 4 1.794 4 4 4zm0-6.063c1.137 0 2.063.926 2.063 2.063s-.926 2.063-2.063 2.063-2.063-.926-2.063-2.063.925-2.063 2.063-2.063zM35.5 32c2.206 0 4-1.794 4-4s-1.794-4-4-4-4 1.794-4 4 1.794 4 4 4zm0-6.063c1.137 0 2.063.926 2.063 2.063s-.926 2.063-2.063 2.063-2.063-.926-2.063-2.063.926-2.063 2.063-2.063zM51.5 28c0-2.206-1.794-4-4-4s-4 1.794-4 4 1.794 4 4 4 4-1.794 4-4zm-6.063 0c0-1.137.925-2.063 2.063-2.063 1.137 0 2.063.926 2.063 2.063s-.926 2.063-2.063 2.063A2.065 2.065 0 0 1 45.437 28zM11.5 43c2.206 0 4-1.794 4-4s-1.794-4-4-4-4 1.794-4 4 1.794 4 4 4zm0-6.063c1.137 0 2.063.926 2.063 2.063s-.926 2.063-2.063 2.063S9.437 40.137 9.437 39s.926-2.063 2.063-2.063zM22.5 43c2.206 0 4-1.794 4-4s-1.794-4-4-4-4 1.794-4 4 1.794 4 4 4zm0-6.063c1.137 0 2.063.926 2.063 2.063s-.926 2.063-2.063 2.063-2.063-.926-2.063-2.063.925-2.063 2.063-2.063zM11.5 54c2.206 0 4-1.794 4-4s-1.794-4-4-4-4 1.794-4 4 1.794 4 4 4zm0-6.063c1.137 0 2.063.926 2.063 2.063s-.926 2.063-2.063 2.063S9.437 51.137 9.437 50s.926-2.063 2.063-2.063zm7.302 5.795c.395.35 1.054.35 1.45 0L23 51.288l2.75 2.444c.934.83 2.382-.458 1.448-1.288L24.45 50l2.75-2.443c.933-.83-.514-2.12-1.45-1.288L23 48.712l-2.749-2.443c-.934-.83-2.385.456-1.449 1.288L21.552 50l-2.75 2.444c-.4.355-.4.932 0 1.288z"/>
        <path d="M62.512 44.01c-.424-1.157-2.24-.506-1.815.651.573 1.564.866 3.21.872 4.889.027 7.896-6.679 14.54-14.658 14.54-8.059 0-14.629-6.469-14.656-14.443-.027-7.919 6.652-14.54 14.658-14.54 4.562 0 8.783 2.044 11.585 5.614.764.973 2.289-.198 1.526-1.17a16.761 16.761 0 0 0-2.201-2.312V11.16c0-2.243-1.845-4.068-4.113-4.068h-5.798V3.74c0-3.648-5.73-3.659-5.73 0v3.35H32.024V3.74c0-3.648-5.73-3.659-5.73 0v3.35H16.136V3.74c0-3.648-5.73-3.659-5.73 0v3.35H4.613C2.345 7.091.5 8.916.5 11.158v34.07c0 1.232 1.93 1.232 1.93 0V20.433h53.462v15.363c-4.196-2.679-9.549-3.32-14.28-1.747a16.501 16.501 0 0 0-3.749 1.798 3.976 3.976 0 0 0-3.036-1.388c-2.199 0-3.987 1.769-3.987 3.943a3.95 3.95 0 0 0 1.604 3.16c-2.572 4.51-2.804 10.123-.629 14.831H4.613c-1.203 0-2.182-.968-2.182-2.157v-4.298c0-1.231-1.931-1.231-1.931 0v4.298c0 2.242 1.845 4.067 4.113 4.067h28.246A16.63 16.63 0 0 0 46.911 66c9.063 0 16.62-7.493 16.589-16.457-.007-1.9-.339-3.76-.988-5.532zM44.113 3.74c0-1.186 1.868-1.188 1.868 0v8.279c0 1.186-1.868 1.188-1.868 0v-8.28zm-15.888 0c0-1.186 1.868-1.188 1.868 0v8.279c0 1.194-1.868 1.194-1.868 0v-8.28zm-15.888 0c0-1.186 1.868-1.188 1.868 0v8.279c0 1.186-1.868 1.188-1.868 0v-8.28zM2.43 18.523v-7.365c0-1.19.979-2.157 2.182-2.157h5.793v3.018c0 3.647 5.73 3.658 5.73 0V9h10.158v3.018c0 3.654 5.73 3.654 5.73 0V9h10.158v3.018c0 3.647 5.73 3.658 5.73 0V9h5.798c1.203 0 2.182.968 2.182 2.157v7.365H2.431zm30.34 19.88c0-1.122.922-2.034 2.056-2.034.57 0 1.097.228 1.477.619-1.054.87-2 1.865-2.81 2.962a2.037 2.037 0 0 1-.723-1.548z"/>
        <path d="M46.99 55a2.98 2.98 0 0 0-2.118.886A2.977 2.977 0 0 0 44 58.01a2.98 2.98 0 0 0 .886 2.119A2.98 2.98 0 0 0 47 61h.01a2.98 2.98 0 0 0 2.118-.886A2.977 2.977 0 0 0 50 57.99a2.982 2.982 0 0 0-.886-2.119A3.01 3.01 0 0 0 46.99 55zm1.124 2.996a1.114 1.114 0 0 1-1.11 1.118H47c-.296 0-.575-.115-.785-.324a1.11 1.11 0 0 1-.005-1.575c.21-.21.489-.328.787-.329H47a1.11 1.11 0 0 1 1.113 1.11zM50 39.775C50 38.245 48.654 37 47 37s-3 1.245-3 2.775v11.45C44 52.755 45.346 54 47 54s3-1.245 3-2.775v-11.45zm-2 11.21c0 .56-.449 1.015-1 1.015-.551 0-1-.455-1-1.014V40.014c0-.559.449-1.014 1-1.014.551 0 1 .455 1 1.014v10.972z"/>
    </g>
</svg>
