<svg xmlns="http://www.w3.org/2000/svg" width="68" height="68" viewBox="0 0 68 68">
    <g fill="#2468EB">
        <path d="M20.562 47.473l-.043-.043a1.478 1.478 0 0 0-2.084 2.095l.048.047a1.475 1.475 0 0 0 2.09-.01 1.479 1.479 0 0 0-.01-2.089z"/>
        <path d="M48.711 19.288c-8.385-8.384-22.029-8.384-30.414 0-6.865 6.864-8.28 17.525-3.44 25.927a1.326 1.326 0 1 0 2.3-1.324c-4.24-7.364-3-16.71 3.017-22.726 7.35-7.349 19.31-7.349 26.66 0 7.35 7.35 7.35 19.307 0 26.657-6.054 6.053-15.44 7.27-22.823 2.961a1.327 1.327 0 1 0-1.339 2.293A21.422 21.422 0 0 0 33.485 56a21.512 21.512 0 0 0 15.226-6.301c8.385-8.385 8.385-22.027 0-30.41z"/>
        <path d="M67.995 28.164c0-.653-.475-1.209-1.12-1.31l-4.902-.778-2.601-6.272 2.914-4.018a1.33 1.33 0 0 0-.136-1.72l-8.237-8.23a1.328 1.328 0 0 0-1.72-.136L48.18 8.616 41.902 6.02l-.78-4.9A1.328 1.328 0 0 0 39.81 0L28.164.005c-.653 0-1.209.475-1.31 1.12l-.777 4.903-6.273 2.6-4.018-2.914a1.328 1.328 0 0 0-1.719.136l-8.232 8.238a1.328 1.328 0 0 0-.135 1.719l2.916 4.014-2.597 6.277-4.9.78A1.329 1.329 0 0 0 0 28.19l.005 11.645c0 .653.475 1.21 1.12 1.312l4.903.776 2.6 6.273-2.914 4.018a1.328 1.328 0 0 0 .136 1.719l8.238 8.232c.462.461 1.19.519 1.719.135l4.014-2.916 6.277 2.597.78 4.9A1.33 1.33 0 0 0 28.19 68l11.645-.005c.653 0 1.21-.475 1.312-1.12l.776-4.903 6.273-2.6 4.018 2.914a1.328 1.328 0 0 0 1.719-.137l8.232-8.237a1.33 1.33 0 0 0 .135-1.72l-2.916-4.013 2.597-6.277 4.9-.78A1.328 1.328 0 0 0 68 39.81l-.005-11.646zM60.83 39.396a1.326 1.326 0 0 0-1.018.803l-3.166 7.651c-.177.427-.119.915.153 1.288l2.686 3.699-6.628 6.633-3.702-2.685a1.33 1.33 0 0 0-1.289-.152l-7.646 3.17c-.426.177-.73.563-.803 1.02l-.715 4.516-9.378.004-.719-4.514a1.326 1.326 0 0 0-.803-1.018l-7.651-3.166a1.32 1.32 0 0 0-1.288.153l-3.699 2.686-6.633-6.628 2.685-3.702c.272-.374.329-.862.152-1.289l-3.17-7.646a1.331 1.331 0 0 0-1.02-.803l-4.516-.715-.004-9.378 4.514-.719a1.328 1.328 0 0 0 1.019-.804l3.165-7.65a1.325 1.325 0 0 0-.153-1.288l-2.686-3.699 6.628-6.633 3.703 2.685c.374.271.861.329 1.288.152l7.646-3.17a1.33 1.33 0 0 0 .803-1.02l.715-4.516 9.378-.004.719 4.514c.073.456.377.842.804 1.018l7.65 3.166a1.33 1.33 0 0 0 1.289-.153l3.698-2.686 6.633 6.628-2.685 3.702a1.33 1.33 0 0 0-.152 1.289l3.17 7.646c.178.426.563.73 1.02.803l4.517.715.003 9.378-4.514.719z"/>
        <path d="M45.583 36.152a7.353 7.353 0 0 0-6.089-1.82L33.67 28.51a7.409 7.409 0 0 0-2.075-6.348 7.376 7.376 0 0 0-7.964-1.631 1.326 1.326 0 0 0-.445 2.168l1.923 1.923a1.045 1.045 0 0 1-1.477 1.476l-1.93-1.93a1.328 1.328 0 0 0-2.167.44 7.413 7.413 0 0 0 1.883 8.24 7.347 7.347 0 0 0 6.094 1.818l5.82 5.818a7.406 7.406 0 0 0 2.073 6.353 7.369 7.369 0 0 0 7.986 1.623 1.325 1.325 0 0 0 .441-2.167l-1.914-1.914a1.045 1.045 0 0 1 1.477-1.476l1.91 1.91a1.328 1.328 0 0 0 2.169-.444 7.417 7.417 0 0 0-1.891-8.217zm-.313 4.876a3.703 3.703 0 0 0-5.228 0 3.7 3.7 0 0 0 0 5.227l.065.064a4.715 4.715 0 0 1-2.826-1.357 4.743 4.743 0 0 1-1.224-4.568 1.327 1.327 0 0 0-.344-1.28l-6.832-6.83a1.325 1.325 0 0 0-1.278-.344 4.718 4.718 0 0 1-4.402-1.055 4.749 4.749 0 0 1-1.52-2.988l.076.076a3.7 3.7 0 0 0 5.227 0 3.697 3.697 0 0 0 0-5.226l-.062-.063a4.719 4.719 0 0 1 2.797 1.353 4.748 4.748 0 0 1 1.226 4.564c-.122.457.009.944.343 1.279l6.836 6.834c.334.334.82.465 1.277.344a4.719 4.719 0 0 1 4.398 1.057 4.743 4.743 0 0 1 1.517 2.96l-.046-.047zm1.438-16.253a15.95 15.95 0 0 0-9.033-5.741 1.373 1.373 0 0 0-1.641 1.04 1.376 1.376 0 0 0 1.038 1.646c2.946.665 5.6 2.352 7.474 4.752a1.367 1.367 0 0 0 1.927.235 1.378 1.378 0 0 0 .235-1.932zm2.221 4.309l-.022-.066a1.494 1.494 0 0 0-1.875-.947 1.466 1.466 0 0 0-.96 1.85l.02.057a1.487 1.487 0 0 0 1.871.952 1.465 1.465 0 0 0 .966-1.846z"/>
    </g>
</svg>
