<svg id="Слой_1" xmlns="http://www.w3.org/2000/svg" viewBox="0 0 1366 1426">
    <style>
        .st0{fill-rule:evenodd;clip-rule:evenodd;fill:#ced9ef;fill-opacity:.1029}.st1,.st2{fill:none;stroke:#e8ebf1;stroke-opacity:.4982}.st2{stroke-opacity:.3001}.st3,.st4{fill-rule:evenodd;clip-rule:evenodd;fill:#ced9ef;fill-opacity:.149}.st4{fill-opacity:.1785}.st5{fill:none}.st6{enable-background:new}.st7{fill:#2468eb}.st8{fill:#b7c6e3}
    </style>
    <g id="Page-1">
        <g id="Стр.-Главная">
            <g id="графика_x28_экран-1_x29_" transform="translate(-127 -563)">
                <circle id="Oval-Copy-3" class="st0" cx="963" cy="916" r="381"/>
                <ellipse id="Oval-Copy-5" class="st1" cx="963" cy="915.5" rx="448" ry="447.5"/>
                <ellipse id="Oval-Copy-6" class="st2" cx="963" cy="915.5" rx="511" ry="510.5"/>
                <circle id="Oval-Copy-2" class="st3" cx="963" cy="916" r="303"/>
                <circle id="Oval" class="st4" cx="963" cy="916" r="216"/>
                <path id="Rectangle-2-Copy-5" class="st5" d="M127 563h1366v1417H127z"/>
                <g id="_x33_60" transform="translate(732.89 1122.626)">
                    <g class="st6">
                        <path class="st7" d="M129 50c.6.5 1 1 1.2 1.7.2.7.2 1.3-.1 2-.4 1-1.1 1.6-2 1.9-.9.3-1.8.2-2.8-.2-.8-.3-1.4-.8-1.8-1.4-.4-.6-.7-1.3-.6-2.1l2-.2c-.1.8.3 1.5 1.2 1.8.5.2.9.3 1.3.1.4-.1.6-.4.8-.8.2-.4.2-.8 0-1.1s-.5-.6-1-.8l-.4-.2-.3-1.4 3-1.7-3.8-1.6.8-1.8 6.1 2.6-.7 1.6L129 50z"/>
                        <path class="st7" d="M137.3 52.6c1 .5 1.7 1.1 2 2s.3 1.8-.1 2.8c-.4 1-1.1 1.7-2 2s-1.9.3-2.9-.1-1.7-1.1-2.1-2c-.4-.9-.4-1.8.1-2.8.3-.7.8-1.3 1.4-1.7l4.9-3.3 2.2.9-3.5 2.2zm-3.2 4c.2.4.5.7 1 .9.5.2.9.2 1.3.1.4-.2.7-.5.9-.9.2-.5.2-.9 0-1.3s-.5-.7-1-.9c-.5-.2-.9-.2-1.3-.1-.4.2-.7.5-.9.9-.2.4-.2.9 0 1.3z"/>
                        <path class="st7" d="M143.8 63.4c-1.2-.5-2-1.4-2.3-2.6-.3-1.2-.1-2.6.5-4.1.6-1.5 1.5-2.6 2.6-3.2 1.1-.6 2.2-.7 3.4-.2 1.2.5 2 1.4 2.3 2.6.3 1.2.1 2.6-.5 4.1-.6 1.5-1.5 2.6-2.6 3.2-1 .6-2.2.7-3.4.2zm-.3-3.3c.1.7.5 1.2 1.1 1.4.6.3 1.2.2 1.8-.2.6-.4 1.1-1.1 1.5-2.1.4-1 .6-1.9.5-2.6-.1-.7-.5-1.2-1.1-1.4-.6-.3-1.2-.2-1.8.2-.6.4-1.1 1.1-1.5 2.2-.4.9-.6 1.8-.5 2.5z"/>
                    </g>
                    <g class="st6">
                        <path class="st7" d="M158.4 58.9c-.7.3-1.3.3-2 0s-1.2-.8-1.4-1.4c-.3-.7-.3-1.3 0-2s.8-1.2 1.4-1.4c.7-.3 1.3-.3 2 0s1.2.8 1.4 1.4.3 1.3 0 2c-.2.6-.7 1.1-1.4 1.4zm-2.3-2c.1.3.4.6.7.7.4.2.7.2 1 0s.6-.4.7-.8.2-.7 0-1.1c-.1-.3-.4-.6-.7-.7-.4-.2-.7-.2-1 0s-.6.4-.7.8c-.1.4-.1.8 0 1.1z"/>
                    </g>
                    <path id="Path-2" class="st8" d="M11.3 3.9c-1.8 1.4-4.4 1.2-6-.5-1.7-1.8-1.6-4.7.2-6.4s4.7-1.6 6.4.2c1.6 1.7 1.6 4.3.2 6C49.9 42.6 93.2 69 141.8 82.6c48.6 13.5 98.2 16 148.8 7.4-.1-2.3 1.4-4.3 3.7-4.7 2.4-.4 4.8 1.2 5.2 3.6.4 2.4-1.2 4.8-3.6 5.2-2.3.4-4.5-1-5.1-3.2-50.8 8.6-100.5 6.1-149.2-7.5-48.8-13.5-92.3-40-130.3-79.5zm-.2-1.2c1.3-1.3 1.3-3.5 0-4.8-1.3-1.4-3.5-1.5-4.9-.1s-1.5 3.5-.1 4.9c1.3 1.4 3.4 1.5 4.8.2l.1-.1.1-.1z"/>
                </g>
            </g>
        </g>
    </g>
</svg>
