<svg xmlns="http://www.w3.org/2000/svg" width="41" height="55" viewBox="0 0 41 55">
    <g fill="#2468EB">
        <path d="M40.666 11.794L29.277.336A1.128 1.128 0 0 0 28.472 0H4.555C2.043 0 0 2.056 0 4.583v45.834C0 52.944 2.043 55 4.556 55h31.889C38.957 55 41 52.944 41 50.417V12.604c0-.304-.12-.595-.334-.81zM29.611 3.912l7.5 7.546H31.89a2.287 2.287 0 0 1-2.278-2.291V3.912zm9.111 46.505a2.287 2.287 0 0 1-2.277 2.291H4.555a2.287 2.287 0 0 1-2.277-2.291V4.583a2.287 2.287 0 0 1 2.278-2.291h22.777v6.875c0 2.527 2.043 4.583 4.556 4.583h6.833v36.667z"/>
        <path d="M26.236 33.583c-1.042-.85-2.031-1.724-2.69-2.408a39.458 39.458 0 0 1-2.285-2.57c1.035-3.317 1.49-5.027 1.49-5.938 0-3.873-1.35-4.667-3.376-4.667-1.54 0-3.375.83-3.375 4.778 0 1.741.92 3.855 2.742 6.311-.446 1.412-.97 3.04-1.559 4.875-.283.881-.59 1.697-.916 2.45-.265.123-.522.247-.77.376-.894.464-1.744.88-2.531 1.268C9.373 39.822 7 40.988 7 43.292 7 44.964 8.752 46 10.375 46c2.092 0 5.25-2.897 7.557-7.778 2.395-.98 5.373-1.706 7.723-2.16C27.538 37.563 29.618 39 30.625 39 33.415 39 34 37.327 34 35.925c0-2.758-3.039-2.758-4.5-2.758-.454 0-1.671.139-3.264.416zM10.375 43.667c-.643 0-1.078-.315-1.125-.375 0-.827 2.378-1.996 4.68-3.126l.444-.218c-1.69 2.54-3.36 3.719-3.999 3.719zm7.875-20.889c0-2.445.732-2.445 1.125-2.445.796 0 1.125 0 1.125 2.334 0 .492-.316 1.722-.895 3.643-.884-1.41-1.355-2.619-1.355-3.532zm.862 12.54c.07-.203.139-.408.205-.615.417-1.3.793-2.466 1.128-3.516.467.533.97 1.079 1.51 1.638.21.219.734.71 1.43 1.327a47.273 47.273 0 0 0-4.273 1.166zm12.638.607c0 .524 0 .742-1.044.749-.306-.069-1.015-.502-1.89-1.12.318-.036.552-.054.684-.054 1.662 0 2.134.169 2.25.425z"/>
    </g>
</svg>
