<svg width="28" height="29" viewBox="0 0 28 29" xmlns="http://www.w3.org/2000/svg">
    <title>
        phone-call
    </title>
    <g fill="#B1BDD4" fill-rule="nonzero" stroke="#B1BDD4" stroke-width=".5">
        <path d="M22.045 18.306c-.545-.543-1.204-.833-1.901-.833-.692 0-1.356.285-1.924.828l-1.778 1.694c-.146-.076-.292-.146-.433-.215a7.264 7.264 0 0 1-.557-.285c-1.665-1.011-3.178-2.328-4.63-4.033-.703-.85-1.175-1.564-1.518-2.29.461-.403.889-.823 1.305-1.226.157-.15.315-.306.472-.457 1.182-1.129 1.182-2.591 0-3.72L9.546 6.3c-.175-.167-.355-.339-.524-.51a26.025 26.025 0 0 0-1.057-1C7.419 4.273 6.767 4 6.08 4c-.686 0-1.35.274-1.912.79l-.011.011-1.913 1.844c-.72.688-1.13 1.527-1.22 2.5-.136 1.57.348 3.032.72 3.99.91 2.349 2.272 4.526 4.303 6.86a26.337 26.337 0 0 0 8.815 6.596c1.294.586 3.02 1.28 4.95 1.398.118.006.242.011.354.011 1.3 0 2.391-.446 3.246-1.333.006-.011.017-.016.023-.027.292-.339.63-.645.984-.973.242-.22.49-.452.732-.694.556-.554.849-1.199.849-1.86 0-.667-.298-1.307-.866-1.844l-3.089-2.963zm2.014 5.662c-.005 0-.005.005 0 0-.22.226-.444.43-.686.656-.366.333-.737.682-1.086 1.075-.568.58-1.237.855-2.115.855-.084 0-.174 0-.259-.006-1.67-.102-3.223-.725-4.388-1.258a24.86 24.86 0 0 1-8.303-6.215c-1.918-2.21-3.2-4.252-4.05-6.446-.523-1.339-.714-2.382-.63-3.366.056-.629.31-1.15.776-1.596l1.919-1.834c.275-.247.568-.381.855-.381.354 0 .64.204.821.376l.017.016c.343.307.67.624 1.012.962l.535.522 1.536 1.468c.596.57.596 1.096 0 1.666-.164.156-.321.312-.484.463-.473.462-.923.892-1.412 1.312-.011.01-.023.016-.028.026-.484.463-.394.914-.293 1.22l.017.05c.4.924.962 1.795 1.817 2.833l.006.005c1.552 1.828 3.19 3.253 4.995 4.344.23.14.467.253.692.36.202.097.394.188.557.285.022.011.045.027.067.038.192.091.372.134.557.134.467 0 .76-.28.855-.37l1.924-1.84c.192-.182.495-.403.85-.403.348 0 .635.21.81.393l.011.01 3.1 2.963c.579.548.579 1.113.005 1.683z"/>
        <path d="M15.623 7.5a7.104 7.104 0 0 1 3.865 2.006 7.142 7.142 0 0 1 2.006 3.866c.062.37.381.628.745.628.045 0 .084-.006.129-.011a.757.757 0 0 0 .622-.874 8.642 8.642 0 0 0-2.426-4.679 8.64 8.64 0 0 0-4.678-2.426.76.76 0 0 0-.874.616.748.748 0 0 0 .61.875z"/>
        <path d="M26.989 11.236c-.475-2.556-1.79-4.883-3.808-6.734-2.019-1.851-4.556-3.056-7.344-3.492-.39-.064-.758.181-.827.539-.064.362.197.7.592.764 2.49.387 4.76 1.469 6.564 3.12 1.805 1.655 2.98 3.736 3.402 6.018.06.324.364.549.71.549.043 0 .08-.005.124-.01.39-.054.656-.396.587-.754z"/>
    </g>
</svg>
