<svg width="51" height="18" viewBox="0 0 51 18" xmlns="http://www.w3.org/2000/svg" xmlns:xlink="http://www.w3.org/1999/xlink">
    <title>
        T&amp;T
    </title>
    <defs>
        <path d="M108.472 61V47.368h-5.376V44.2h14.64v3.168h-5.376V61h-3.888zm28.056-2.088l-2.04 2.376-2.016-1.872c-1.536 1.2-3.456 1.872-5.616 1.872-3.696 0-6.408-1.92-6.408-4.608 0-2.112 1.128-3.576 3.696-5.016-1.224-1.272-1.728-2.352-1.728-3.552 0-2.448 2.064-4.128 5.232-4.128 2.904 0 4.824 1.488 4.824 3.864 0 1.728-1.008 3-3.288 4.248l3.072 2.856c.36-.744.648-1.632.84-2.616l3 .936c-.312 1.44-.816 2.736-1.536 3.816l1.968 1.824zm-8.88-12.384c-1.152 0-1.824.648-1.824 1.536 0 .648.264 1.128 1.296 2.136 1.656-.888 2.184-1.512 2.184-2.28 0-.816-.576-1.392-1.656-1.392zm-.528 11.832a5.371 5.371 0 0 0 3.144-.984l-4.056-3.792c-1.536.888-2.088 1.656-2.088 2.688 0 1.224 1.152 2.088 3 2.088zM144.352 61V47.368h-5.376V44.2h14.64v3.168h-5.376V61h-3.888z" id="a"/>
    </defs>
    <g transform="translate(-103 -44)" fill="none" fill-rule="evenodd">
        <use fill="#FFF" xlink:href="#a"/>
        <use fill="#2468EB" xlink:href="#a"/>
    </g>
</svg>
