<svg xmlns="http://www.w3.org/2000/svg" width="66" height="66" viewBox="0 0 66 66">
    <g fill="#2468EB">
        <path d="M43 44a1 1 0 1 0 0 2 1 1 0 0 0 0-2zM16 22c.552 0 1-.597 1-1.333v-5.334c0-.736-.448-1.333-1-1.333s-1 .597-1 1.333v5.334c0 .736.448 1.333 1 1.333z"/>
        <path d="M60.844 30.422V20.109a6.453 6.453 0 0 0-6.446-6.445H47.18V3.867A3.872 3.872 0 0 0 43.313 0H19.335a3.871 3.871 0 0 0-3.867 3.867v4.64h-3.867a3.873 3.873 0 0 0-3.868 3.868v1.29H6.445A6.45 6.45 0 0 0 0 20.108v39.446A6.452 6.452 0 0 0 6.445 66h39.446c3.112 0 5.716-2.218 6.315-5.156h2.192a6.454 6.454 0 0 0 6.446-6.446v-3.351h1.289A3.872 3.872 0 0 0 66 47.18V35.578a5.162 5.162 0 0 0-5.156-5.156zm2.578 5.156a2.578 2.578 0 0 1-2.578 2.578V33a2.582 2.582 0 0 1 2.578 2.578zm-9.024-19.336a3.872 3.872 0 0 1 3.868 3.867v18.047h-5.93v-7.734c0-3.113-2.218-5.717-5.156-6.316v-7.864h7.218zM18.047 3.867c0-.71.578-1.289 1.289-1.289h23.977c.71 0 1.289.578 1.289 1.29v20.109h-5.93V12.375a3.872 3.872 0 0 0-3.867-3.867H18.047v-4.64zm12.89 20.11V11.086h3.868c.71 0 1.289.578 1.289 1.289v11.602h-5.157zm-7.734 0V11.086h5.156v12.89h-5.156zm-12.89-11.602c0-.711.578-1.29 1.289-1.29h9.023v12.892H10.312V12.375zm-3.868 3.867h1.29v7.735H6.72c-2.13 0-4.143-1.543-4.143-3.868a3.872 3.872 0 0 1 3.867-3.867zm39.446 47.18H6.445a3.872 3.872 0 0 1-3.867-3.867V25.186a6.94 6.94 0 0 0 4.143 1.369h39.17a3.871 3.871 0 0 1 3.867 3.867v7.734h-9.024a3.872 3.872 0 0 0-3.867 3.867v5.157a3.872 3.872 0 0 0 3.867 3.867h9.024v8.508a3.872 3.872 0 0 1-3.867 3.867zm12.375-9.024a3.872 3.872 0 0 1-3.868 3.868h-2.062v-7.22h5.93v3.352zm3.867-5.93H40.734a1.29 1.29 0 0 1-1.289-1.288v-5.157c0-.71.578-1.289 1.29-1.289h20.109c.92 0 1.802-.24 2.578-.69v7.136c0 .71-.578 1.289-1.29 1.289z"/>
        <path d="M54.788 44h-5.576c-.67 0-1.212.448-1.212 1s.543 1 1.212 1h5.576c.67 0 1.212-.448 1.212-1s-.543-1-1.212-1z"/>
    </g>
</svg>
