<svg xmlns="http://www.w3.org/2000/svg" width="63" height="63" viewBox="0 0 63 63">
    <g fill="#2468EB">
        <path d="M62.481 17.995L32.031.145a1.045 1.045 0 0 0-1.038-.014L.543 16.93a1.048 1.048 0 0 0-.543.919v44.1C0 62.53.47 63 1.05 63H6.3c.58 0 1.05-.47 1.05-1.05V25.2h48.3v36.75c0 .58.47 1.05 1.05 1.05h5.25c.58 0 1.05-.47 1.05-1.05V18.9c0-.373-.197-.718-.519-.905zM60.901 60.9h-3.15V24.15c0-.58-.47-1.05-1.05-1.05H6.3c-.58 0-1.05.47-1.05 1.05V60.9H2.1V18.47L31.484 2.256 60.9 19.501V60.9z"/>
        <path d="M52 49H40a1 1 0 0 0-1 1v12a1 1 0 0 0 1 1h12a1 1 0 0 0 1-1V50a1 1 0 0 0-1-1zm-1 12H41V51h10v10z"/>
        <path d="M47.667 50v3h-2.334v-3H43v4c0 .553.521 1 1.167 1h4.666C49.48 55 50 54.553 50 54v-4h-2.333zM40 49H28a1 1 0 0 0-1 1v12a1 1 0 0 0 1 1h12a1 1 0 0 0 1-1V50a1 1 0 0 0-1-1zm-1 12H29V51h10v10z"/>
        <path d="M34.667 50v3h-2.334v-3H30v4c0 .553.523 1 1.167 1h4.666C36.48 55 37 54.553 37 54v-4h-2.333zM52 36H40a1 1 0 0 0-1 1v12a1 1 0 0 0 1 1h12a1 1 0 0 0 1-1V37a1 1 0 0 0-1-1zm-1 12H41V38h10v10z"/>
        <path d="M47.667 37v3h-2.334v-3H43v4c0 .553.521 1 1.167 1h4.666C49.48 42 50 41.553 50 41v-4h-2.333zM6 31h51v2H6zm0-3h51v2H6zm31-14H27c-.552 0-1 .523-1 1.167v4.666c0 .644.448 1.167 1 1.167h10c.553 0 1-.523 1-1.167v-4.666c0-.644-.447-1.167-1-1.167zm-1 4.667h-8v-2.334h8v2.334z"/>
    </g>
</svg>
