<svg xmlns="http://www.w3.org/2000/svg" width="34" height="24" viewBox="0 0 34 24">
    <path fill="#2468EB" d="M32.675 2.06C31.447.597 29.182 0 24.855 0H9.144C4.72 0 2.416.635 1.193 2.193 0 3.713 0 5.95 0 9.048v5.904C0 20.953 1.414 24 9.146 24h15.708c3.753 0 5.832-.527 7.178-1.818 1.38-1.324 1.968-3.487 1.968-7.23V9.048c0-3.267-.092-5.518-1.325-6.988zM21.828 12.815l-7.133 3.74a1.092 1.092 0 0 1-1.076-.035 1.098 1.098 0 0 1-.529-.94V8.124c0-.384.2-.74.527-.94.328-.2.735-.213 1.075-.036l7.134 3.715a1.101 1.101 0 0 1 .002 1.951z"/>
</svg>
